<svg width="2472" height="1521" viewBox="0 0 2472 1521" fill="none" xmlns="http://www.w3.org/2000/svg">
<path d="M236.163 667.808C632.122 736.153 399.962 -19.6481 939.37 301.165C1153.88 428.747 1462.76 274.355 1758.56 358.742C2030.22 436.241 1963.3 690.531 1937.02 773.732C1883.92 941.797 2148.36 874.767 2301.63 946.976C2542.07 1060.24 2516.74 1517.9 2289.6 1519.8C2062.46 1521.71 258.16 1515.01 258.16 1515.01C258.16 1515.01 159.032 1450.86 106.401 1318.65C-1.49437 1047.63 -112.499 607.627 236.163 667.808Z" fill="#EBF2F9"/>
<path d="M1872.57 528.007V414.676H1838.17V219.809H1653.71V414.676H1481.25V147.571L1290.95 75.542V303.272H1247.55V0L1057.25 63.069V518.584H816.568V787.642H726.641V855.423H520.081V738.705H401.487V421.545H254.988V1007.02V1516.47H380.558H401.487H520.081H587.118H694.486H726.641H816.568H901.045H1057.25H1105.08H1200.26H1247.55H1290.95H1390.56H1458.37H1481.25H1653.71H1835.09H1838.17H1872.57H2019.55V528.007H1872.57Z" fill="#D5E7F7"/>
<path d="M1214.06 86.1311H1085.68V133.143H1214.06V86.1311Z" fill="#C4D9ED"/>
<path d="M1214.06 174.449H1085.68V221.461H1214.06V174.449Z" fill="#C4D9ED"/>
<path d="M1214.06 253.906H1085.68V300.918H1214.06V253.906Z" fill="#C4D9ED"/>
<path d="M404.2 635.22H254.988V707.787H404.2V635.22Z" fill="#C4D9ED"/>
<path d="M402.775 857.966H254.988V930.533H402.775V857.966Z" fill="#C4D9ED"/>
<path d="M402.775 967.586H254.988V1040.15H402.775V967.586Z" fill="#C4D9ED"/>
<path d="M400.367 1082.27H252.58V1154.84H400.367V1082.27Z" fill="#C4D9ED"/>
<path d="M400.367 1194.59H252.58V1267.15H400.367V1194.59Z" fill="#C4D9ED"/>
<path d="M400.367 1309.27H252.58V1381.84H400.367V1309.27Z" fill="#C4D9ED"/>
<path d="M1451.03 253.906H1316.01V300.918H1451.03V253.906Z" fill="#C4D9ED"/>
<path d="M1451.03 175.166H1316.01V222.178H1451.03V175.166Z" fill="#C4D9ED"/>
<path d="M1451.03 330.947H1082.42V377.96H1451.03V330.947Z" fill="#C4D9ED"/>
<path d="M1451.03 401.636H1082.42V448.648H1451.03V401.636Z" fill="#C4D9ED"/>
<path d="M1451.03 471.847H1082.42V517.059H1451.03V471.847Z" fill="#C4D9ED"/>
<path d="M402.775 748.346H254.988V820.913H402.775V748.346Z" fill="#C4D9ED"/>
<path d="M885.683 562.68H853.422V608.152H885.683V562.68Z" fill="#C4D9ED"/>
<path d="M946.011 562.68H913.75V608.152H946.011V562.68Z" fill="#C4D9ED"/>
<path d="M1004.99 562.68H972.728V608.152H1004.99V562.68Z" fill="#C4D9ED"/>
<path d="M1060.91 562.68H1028.65V608.152H1060.91V562.68Z" fill="#C4D9ED"/>
<path d="M1117.9 562.68H1085.64V608.152H1117.9V562.68Z" fill="#C4D9ED"/>
<path d="M1175.55 562.68H1143.29V608.152H1175.55V562.68Z" fill="#C4D9ED"/>
<path d="M1235.88 562.68H1203.62V608.152H1235.88V562.68Z" fill="#C4D9ED"/>
<path d="M1294.85 562.68H1262.59V608.152H1294.85V562.68Z" fill="#C4D9ED"/>
<path d="M1350.77 562.68H1318.51V608.152H1350.77V562.68Z" fill="#C4D9ED"/>
<path d="M1407.77 562.68H1375.51V608.152H1407.77V562.68Z" fill="#C4D9ED"/>
<path d="M1467.16 562.68H1434.9V608.152H1467.16V562.68Z" fill="#C4D9ED"/>
<path d="M1527.49 562.68H1495.23V608.152H1527.49V562.68Z" fill="#C4D9ED"/>
<path d="M1586.47 562.68H1554.21V608.152H1586.47V562.68Z" fill="#C4D9ED"/>
<path d="M1642.39 562.68H1610.13V608.152H1642.39V562.68Z" fill="#C4D9ED"/>
<path d="M1699.38 562.68H1667.12V608.152H1699.38V562.68Z" fill="#C4D9ED"/>
<path d="M1757.03 562.68H1724.77V608.152H1757.03V562.68Z" fill="#C4D9ED"/>
<path d="M1817.36 562.68H1785.1V608.152H1817.36V562.68Z" fill="#C4D9ED"/>
<path d="M1876.33 562.68H1844.07V608.152H1876.33V562.68Z" fill="#C4D9ED"/>
<path d="M1932.26 562.68H1899.99V608.152H1932.26V562.68Z" fill="#C4D9ED"/>
<path d="M1989.25 562.68H1956.99V608.152H1989.25V562.68Z" fill="#C4D9ED"/>
<path d="M885.683 642.922H853.422V688.394H885.683V642.922Z" fill="#C4D9ED"/>
<path d="M946.011 642.922H913.75V688.394H946.011V642.922Z" fill="#C4D9ED"/>
<path d="M1004.99 642.922H972.728V688.394H1004.99V642.922Z" fill="#C4D9ED"/>
<path d="M1060.91 642.922H1028.65V688.394H1060.91V642.922Z" fill="#C4D9ED"/>
<path d="M1117.9 642.922H1085.64V688.394H1117.9V642.922Z" fill="#C4D9ED"/>
<path d="M1175.55 642.922H1143.29V688.394H1175.55V642.922Z" fill="#C4D9ED"/>
<path d="M1235.88 642.922H1203.62V688.394H1235.88V642.922Z" fill="#C4D9ED"/>
<path d="M1294.85 642.922H1262.59V688.394H1294.85V642.922Z" fill="#C4D9ED"/>
<path d="M1350.77 642.922H1318.51V688.394H1350.77V642.922Z" fill="#C4D9ED"/>
<path d="M1407.77 642.922H1375.51V688.394H1407.77V642.922Z" fill="#C4D9ED"/>
<path d="M1467.16 642.922H1434.9V688.394H1467.16V642.922Z" fill="#C4D9ED"/>
<path d="M1527.49 642.922H1495.23V688.394H1527.49V642.922Z" fill="#C4D9ED"/>
<path d="M1586.47 642.922H1554.21V688.394H1586.47V642.922Z" fill="#C4D9ED"/>
<path d="M1642.39 642.922H1610.13V688.394H1642.39V642.922Z" fill="#C4D9ED"/>
<path d="M1699.38 642.922H1667.12V688.394H1699.38V642.922Z" fill="#C4D9ED"/>
<path d="M1757.03 642.922H1724.77V688.394H1757.03V642.922Z" fill="#C4D9ED"/>
<path d="M1817.36 642.922H1785.1V688.394H1817.36V642.922Z" fill="#C4D9ED"/>
<path d="M1876.33 642.922H1844.07V688.394H1876.33V642.922Z" fill="#C4D9ED"/>
<path d="M1932.26 642.922H1899.99V688.394H1932.26V642.922Z" fill="#C4D9ED"/>
<path d="M1989.25 642.922H1956.99V688.394H1989.25V642.922Z" fill="#C4D9ED"/>
<path d="M885.683 721.935H853.422V767.407H885.683V721.935Z" fill="#C4D9ED"/>
<path d="M946.011 721.935H913.75V767.407H946.011V721.935Z" fill="#C4D9ED"/>
<path d="M1004.99 721.935H972.728V767.407H1004.99V721.935Z" fill="#C4D9ED"/>
<path d="M1060.91 721.935H1028.65V767.407H1060.91V721.935Z" fill="#C4D9ED"/>
<path d="M1117.9 721.935H1085.64V767.407H1117.9V721.935Z" fill="#C4D9ED"/>
<path d="M1175.55 721.935H1143.29V767.407H1175.55V721.935Z" fill="#C4D9ED"/>
<path d="M1235.88 721.935H1203.62V767.407H1235.88V721.935Z" fill="#C4D9ED"/>
<path d="M1294.85 721.935H1262.59V767.407H1294.85V721.935Z" fill="#C4D9ED"/>
<path d="M1350.77 721.935H1318.51V767.407H1350.77V721.935Z" fill="#C4D9ED"/>
<path d="M1407.77 721.935H1375.51V767.407H1407.77V721.935Z" fill="#C4D9ED"/>
<path d="M1467.16 721.935H1434.9V767.407H1467.16V721.935Z" fill="#C4D9ED"/>
<path d="M1527.49 721.935H1495.23V767.407H1527.49V721.935Z" fill="#C4D9ED"/>
<path d="M1586.47 721.935H1554.21V767.407H1586.47V721.935Z" fill="#C4D9ED"/>
<path d="M1642.39 721.935H1610.13V767.407H1642.39V721.935Z" fill="#C4D9ED"/>
<path d="M1699.38 721.935H1667.12V767.407H1699.38V721.935Z" fill="#C4D9ED"/>
<path d="M1757.03 721.935H1724.77V767.407H1757.03V721.935Z" fill="#C4D9ED"/>
<path d="M1817.36 721.935H1785.1V767.407H1817.36V721.935Z" fill="#C4D9ED"/>
<path d="M1876.33 721.935H1844.07V767.407H1876.33V721.935Z" fill="#C4D9ED"/>
<path d="M1932.26 721.935H1899.99V767.407H1932.26V721.935Z" fill="#C4D9ED"/>
<path d="M1989.25 721.935H1956.99V767.407H1989.25V721.935Z" fill="#C4D9ED"/>
<path d="M885.683 805.882H853.422V851.354H885.683V805.882Z" fill="#C4D9ED"/>
<path d="M946.011 805.882H913.75V851.354H946.011V805.882Z" fill="#C4D9ED"/>
<path d="M1004.99 805.882H972.728V851.354H1004.99V805.882Z" fill="#C4D9ED"/>
<path d="M1060.91 805.882H1028.65V851.354H1060.91V805.882Z" fill="#C4D9ED"/>
<path d="M1117.9 805.882H1085.64V851.354H1117.9V805.882Z" fill="#C4D9ED"/>
<path d="M1175.55 805.882H1143.29V851.354H1175.55V805.882Z" fill="#C4D9ED"/>
<path d="M1235.88 805.882H1203.62V851.354H1235.88V805.882Z" fill="#C4D9ED"/>
<path d="M1294.85 805.882H1262.59V851.354H1294.85V805.882Z" fill="#C4D9ED"/>
<path d="M1350.77 805.882H1318.51V851.354H1350.77V805.882Z" fill="#C4D9ED"/>
<path d="M1407.77 805.882H1375.51V851.354H1407.77V805.882Z" fill="#C4D9ED"/>
<path d="M1467.16 805.882H1434.9V851.354H1467.16V805.882Z" fill="#C4D9ED"/>
<path d="M1527.49 805.882H1495.23V851.354H1527.49V805.882Z" fill="#C4D9ED"/>
<path d="M1586.47 805.882H1554.21V851.354H1586.47V805.882Z" fill="#C4D9ED"/>
<path d="M1642.39 805.882H1610.13V851.354H1642.39V805.882Z" fill="#C4D9ED"/>
<path d="M1699.38 805.882H1667.12V851.354H1699.38V805.882Z" fill="#C4D9ED"/>
<path d="M1757.03 805.882H1724.77V851.354H1757.03V805.882Z" fill="#C4D9ED"/>
<path d="M1817.36 805.882H1785.1V851.354H1817.36V805.882Z" fill="#C4D9ED"/>
<path d="M1876.33 805.882H1844.07V851.354H1876.33V805.882Z" fill="#C4D9ED"/>
<path d="M1932.26 805.882H1899.99V851.354H1932.26V805.882Z" fill="#C4D9ED"/>
<path d="M1989.25 805.882H1956.99V851.354H1989.25V805.882Z" fill="#C4D9ED"/>
<path d="M885.683 886.125H853.422V931.596H885.683V886.125Z" fill="#C4D9ED"/>
<path d="M946.011 886.125H913.75V931.596H946.011V886.125Z" fill="#C4D9ED"/>
<path d="M1004.99 886.125H972.728V931.596H1004.99V886.125Z" fill="#C4D9ED"/>
<path d="M1060.91 886.125H1028.65V931.596H1060.91V886.125Z" fill="#C4D9ED"/>
<path d="M1117.9 886.125H1085.64V931.596H1117.9V886.125Z" fill="#C4D9ED"/>
<path d="M1175.55 886.125H1143.29V931.596H1175.55V886.125Z" fill="#C4D9ED"/>
<path d="M1235.88 886.125H1203.62V931.596H1235.88V886.125Z" fill="#C4D9ED"/>
<path d="M1294.85 886.125H1262.59V931.596H1294.85V886.125Z" fill="#C4D9ED"/>
<path d="M1350.77 886.125H1318.51V931.596H1350.77V886.125Z" fill="#C4D9ED"/>
<path d="M1407.77 886.125H1375.51V931.596H1407.77V886.125Z" fill="#C4D9ED"/>
<path d="M1467.16 886.125H1434.9V931.596H1467.16V886.125Z" fill="#C4D9ED"/>
<path d="M1527.49 886.125H1495.23V931.596H1527.49V886.125Z" fill="#C4D9ED"/>
<path d="M1586.47 886.125H1554.21V931.596H1586.47V886.125Z" fill="#C4D9ED"/>
<path d="M1642.39 886.125H1610.13V931.596H1642.39V886.125Z" fill="#C4D9ED"/>
<path d="M1699.38 886.125H1667.12V931.596H1699.38V886.125Z" fill="#C4D9ED"/>
<path d="M1757.03 886.125H1724.77V931.596H1757.03V886.125Z" fill="#C4D9ED"/>
<path d="M1817.36 886.125H1785.1V931.596H1817.36V886.125Z" fill="#C4D9ED"/>
<path d="M1932.26 886.125H1899.99V931.596H1932.26V886.125Z" fill="#C4D9ED"/>
<path d="M1876.33 886.125H1844.07V931.596H1876.33V886.125Z" fill="#C4D9ED"/>
<path d="M1989.25 886.125H1956.99V931.596H1989.25V886.125Z" fill="#C4D9ED"/>
<path d="M885.683 965.137H853.422V1010.61H885.683V965.137Z" fill="#C4D9ED"/>
<path d="M946.011 965.137H913.75V1010.61H946.011V965.137Z" fill="#C4D9ED"/>
<path d="M1004.99 965.137H972.728V1010.61H1004.99V965.137Z" fill="#C4D9ED"/>
<path d="M1060.91 965.137H1028.65V1010.61H1060.91V965.137Z" fill="#C4D9ED"/>
<path d="M1117.9 965.137H1085.64V1010.61H1117.9V965.137Z" fill="#C4D9ED"/>
<path d="M1175.55 965.137H1143.29V1010.61H1175.55V965.137Z" fill="#C4D9ED"/>
<path d="M1235.88 965.137H1203.62V1010.61H1235.88V965.137Z" fill="#C4D9ED"/>
<path d="M1294.85 965.137H1262.59V1010.61H1294.85V965.137Z" fill="#C4D9ED"/>
<path d="M1350.77 965.137H1318.51V1010.61H1350.77V965.137Z" fill="#C4D9ED"/>
<path d="M1407.77 965.137H1375.51V1010.61H1407.77V965.137Z" fill="#C4D9ED"/>
<path d="M1467.16 965.137H1434.9V1010.61H1467.16V965.137Z" fill="#C4D9ED"/>
<path d="M1527.49 965.137H1495.23V1010.61H1527.49V965.137Z" fill="#C4D9ED"/>
<path d="M1586.47 965.137H1554.21V1010.61H1586.47V965.137Z" fill="#C4D9ED"/>
<path d="M1642.39 965.137H1610.13V1010.61H1642.39V965.137Z" fill="#C4D9ED"/>
<path d="M1699.38 965.137H1667.12V1010.61H1699.38V965.137Z" fill="#C4D9ED"/>
<path d="M1757.03 965.137H1724.77V1010.61H1757.03V965.137Z" fill="#C4D9ED"/>
<path d="M1817.36 965.137H1785.1V1010.61H1817.36V965.137Z" fill="#C4D9ED"/>
<path d="M1932.26 965.137H1899.99V1010.61H1932.26V965.137Z" fill="#C4D9ED"/>
<path d="M1989.25 965.137H1956.99V1010.61H1989.25V965.137Z" fill="#C4D9ED"/>
<path d="M572.558 568.499V473.915H576.445V568.499H629.672V685.218H520.062V568.499H572.558Z" fill="#C4D9ED"/>
<path d="M254.988 494.246V421.679H285.827V390.098H289.713V421.679H402.148H404.2H425.468V390.098H429.355V421.679H456.638V738.806H402.148V602.166H254.988V529.6H402.148V494.246H254.988Z" fill="#C4D9ED"/>
<path d="M2232.09 798.172H2224.48V895.489H2232.09V798.172Z" fill="#D5E7F7"/>
<path d="M480.891 1514.46H1219.75V1082.27H480.891V1514.46Z" fill="#C4D9ED"/>
<path d="M1151.37 1186.72H1190.76V1126.58H1151.37V1186.72Z" fill="#D5E7F7"/>
<path d="M1081.9 1186.72H1121.3V1126.58H1081.9V1186.72Z" fill="#D5E7F7"/>
<path d="M1011.98 1186.72H1051.37V1126.58H1011.98V1186.72Z" fill="#D5E7F7"/>
<path d="M942.511 1186.72H981.905V1126.58H942.511V1186.72Z" fill="#D5E7F7"/>
<path d="M870.967 1186.72H910.361V1126.58H870.967V1186.72Z" fill="#D5E7F7"/>
<path d="M801.502 1186.72H840.896V1126.58H801.502V1186.72Z" fill="#D5E7F7"/>
<path d="M731.573 1186.72H770.967V1126.58H731.573V1186.72Z" fill="#D5E7F7"/>
<path d="M662.107 1186.72H701.501V1126.58H662.107V1186.72Z" fill="#D5E7F7"/>
<path d="M589.254 1186.72H628.648V1126.58H589.254V1186.72Z" fill="#D5E7F7"/>
<path d="M519.789 1186.72H559.183V1126.58H519.789V1186.72Z" fill="#D5E7F7"/>
<path d="M1151.37 1275.67H1190.76V1215.53H1151.37V1275.67Z" fill="#D5E7F7"/>
<path d="M1081.9 1275.67H1121.3V1215.53H1081.9V1275.67Z" fill="#D5E7F7"/>
<path d="M1011.98 1275.67H1051.37V1215.53H1011.98V1275.67Z" fill="#D5E7F7"/>
<path d="M942.511 1275.67H981.905V1215.53H942.511V1275.67Z" fill="#D5E7F7"/>
<path d="M870.967 1275.67H910.361V1215.53H870.967V1275.67Z" fill="#D5E7F7"/>
<path d="M801.502 1275.67H840.896V1215.53H801.502V1275.67Z" fill="#D5E7F7"/>
<path d="M731.573 1275.67H770.967V1215.53H731.573V1275.67Z" fill="#D5E7F7"/>
<path d="M662.107 1275.67H701.501V1215.53H662.107V1275.67Z" fill="#D5E7F7"/>
<path d="M589.254 1275.67H628.648V1215.53H589.254V1275.67Z" fill="#D5E7F7"/>
<path d="M519.789 1275.67H559.183V1215.53H519.789V1275.67Z" fill="#D5E7F7"/>
<path d="M1151.37 1371.22H1190.76V1311.07H1151.37V1371.22Z" fill="#D5E7F7"/>
<path d="M1081.9 1371.22H1121.3V1311.07H1081.9V1371.22Z" fill="#D5E7F7"/>
<path d="M1011.98 1371.22H1051.37V1311.07H1011.98V1371.22Z" fill="#D5E7F7"/>
<path d="M942.511 1371.22H981.905V1311.07H942.511V1371.22Z" fill="#D5E7F7"/>
<path d="M870.967 1371.22H910.361V1311.07H870.967V1371.22Z" fill="#D5E7F7"/>
<path d="M801.502 1371.22H840.896V1311.07H801.502V1371.22Z" fill="#D5E7F7"/>
<path d="M731.573 1371.22H770.967V1311.07H731.573V1371.22Z" fill="#D5E7F7"/>
<path d="M662.107 1371.22H701.501V1311.07H662.107V1371.22Z" fill="#D5E7F7"/>
<path d="M589.254 1371.22H628.648V1311.07H589.254V1371.22Z" fill="#D5E7F7"/>
<path d="M519.789 1371.22H559.183V1311.07H519.789V1371.22Z" fill="#D5E7F7"/>
<path d="M1151.37 1460.17H1190.76V1400.03H1151.37V1460.17Z" fill="#D5E7F7"/>
<path d="M1081.9 1460.17H1121.3V1400.03H1081.9V1460.17Z" fill="#D5E7F7"/>
<path d="M1011.98 1460.17H1051.37V1400.03H1011.98V1460.17Z" fill="#D5E7F7"/>
<path d="M942.511 1460.17H981.905V1400.03H942.511V1460.17Z" fill="#D5E7F7"/>
<path d="M870.967 1460.17H910.361V1400.03H870.967V1460.17Z" fill="#D5E7F7"/>
<path d="M801.502 1460.17H840.896V1400.03H801.502V1460.17Z" fill="#D5E7F7"/>
<path d="M731.573 1460.17H770.967V1400.03H731.573V1460.17Z" fill="#D5E7F7"/>
<path d="M662.107 1460.17H701.501V1400.03H662.107V1460.17Z" fill="#D5E7F7"/>
<path d="M589.254 1460.17H628.648V1400.03H589.254V1460.17Z" fill="#D5E7F7"/>
<path d="M519.789 1460.17H559.183V1400.03H519.789V1460.17Z" fill="#D5E7F7"/>
<path d="M735.427 1102.01H581.248V967.586L735.427 1026.61V1102.01Z" fill="#C4D9ED"/>
<path d="M1495.31 1514.47H1848.14V1130.66L1495.31 1252.8V1514.47Z" fill="#C4D9ED"/>
<path d="M1504.63 1277.37H1838.83V1265.51H1504.63V1277.37Z" fill="#D5E7F7"/>
<path d="M1504.63 1315.49H1838.83V1303.63H1504.63V1315.49Z" fill="#D5E7F7"/>
<path d="M1504.63 1353.61H1838.83V1341.75H1504.63V1353.61Z" fill="#D5E7F7"/>
<path d="M1504.63 1391.73H1838.83V1379.87H1504.63V1391.73Z" fill="#D5E7F7"/>
<path d="M1504.63 1429.85H1838.83V1417.99H1504.63V1429.85Z" fill="#D5E7F7"/>
<path d="M1504.63 1467.97H1838.83V1456.11H1504.63V1467.97Z" fill="#D5E7F7"/>
<path d="M551.598 1082.27H581.248V967.586H551.598V1082.27Z" fill="#C4D9ED"/>
<path d="M673.969 1064.52V1025.13H613.822V1064.52H673.969Z" fill="#D5E7F7"/>
<path d="M1796.14 409.26H1816.59V235.809H1796.14V409.26Z" fill="#C4D9ED"/>
<path d="M1755.48 409.26H1775.93V235.809H1755.48V409.26Z" fill="#C4D9ED"/>
<path d="M1715.37 409.26H1735.81V235.809H1715.37V409.26Z" fill="#C4D9ED"/>
<path d="M1673.85 409.26H1694.3V235.809H1673.85V409.26Z" fill="#C4D9ED"/>
<path d="M2213.68 1254.56H532.895V1385.8H2213.68V1254.56Z" fill="#1C2948"/>
<path d="M2028.84 1516.3C2089.2 1516.3 2138.14 1467.37 2138.14 1407C2138.14 1346.63 2089.2 1297.7 2028.84 1297.7C1968.47 1297.7 1919.54 1346.63 1919.54 1407C1919.54 1467.37 1968.47 1516.3 2028.84 1516.3Z" fill="#2D3A62"/>
<path d="M2028.84 1339.28C1991.44 1339.28 1961.12 1369.6 1961.12 1407C1961.12 1444.4 1991.44 1474.72 2028.84 1474.72C2066.24 1474.72 2096.56 1444.4 2096.56 1407C2096.56 1369.6 2066.24 1339.28 2028.84 1339.28ZM2038.11 1346.7C2052.86 1348.95 2065.86 1356.49 2075.14 1367.32L2051.67 1381.81C2047.85 1378.34 2043.22 1375.74 2038.11 1374.29V1346.7ZM2019.56 1346.7V1374.29C2014.45 1375.74 2009.83 1378.34 2006 1381.81L1982.53 1367.32C1991.81 1356.49 2004.81 1348.95 2019.56 1346.7ZM1972.59 1430.65C1969.53 1423.38 1967.84 1415.39 1967.84 1407C1967.84 1398.5 1969.58 1390.41 1972.72 1383.06L1996.18 1397.55C1995.31 1400.55 1994.84 1403.72 1994.84 1407C1994.84 1410.17 1995.28 1413.23 1996.09 1416.14L1972.59 1430.65ZM2019.56 1467.3C2004.7 1465.03 1991.62 1457.4 1982.32 1446.45L2005.77 1431.97C2009.64 1435.55 2014.34 1438.23 2019.56 1439.71L2019.56 1467.3ZM2013.46 1407C2013.46 1398.51 2020.35 1391.63 2028.84 1391.63C2037.33 1391.63 2044.21 1398.51 2044.21 1407C2044.21 1415.49 2037.33 1422.38 2028.84 1422.38C2020.35 1422.38 2013.46 1415.49 2013.46 1407ZM2038.11 1467.3V1439.71C2043.33 1438.23 2048.03 1435.55 2051.9 1431.97L2075.35 1446.45C2066.05 1457.4 2052.97 1465.03 2038.11 1467.3ZM2061.58 1416.14C2062.39 1413.23 2062.84 1410.17 2062.84 1407C2062.84 1403.72 2062.36 1400.55 2061.5 1397.55L2084.95 1383.06C2088.09 1390.41 2089.84 1398.5 2089.84 1407C2089.84 1415.39 2088.14 1423.38 2085.08 1430.65L2061.58 1416.14Z" fill="#98BDF4"/>
<path d="M668.836 1516.3C729.201 1516.3 778.137 1467.37 778.137 1407C778.137 1346.63 729.201 1297.7 668.836 1297.7C608.47 1297.7 559.535 1346.63 559.535 1407C559.535 1467.37 608.47 1516.3 668.836 1516.3Z" fill="#2D3A62"/>
<path d="M668.836 1339.28C631.435 1339.28 601.116 1369.6 601.116 1407C601.116 1444.4 631.435 1474.72 668.836 1474.72C706.237 1474.72 736.556 1444.4 736.556 1407C736.556 1369.6 706.237 1339.28 668.836 1339.28ZM678.112 1346.7C692.86 1348.95 705.859 1356.49 715.142 1367.32L691.672 1381.81C687.846 1378.34 683.222 1375.74 678.112 1374.29V1346.7ZM659.559 1346.7V1374.29C654.449 1375.74 649.825 1378.34 645.999 1381.81L622.529 1367.32C631.813 1356.49 644.812 1348.95 659.559 1346.7ZM612.593 1430.65C609.53 1423.38 607.836 1415.39 607.836 1407C607.836 1398.5 609.578 1390.41 612.717 1383.06L636.176 1397.55C635.309 1400.55 634.835 1403.72 634.835 1407C634.835 1410.17 635.277 1413.23 636.088 1416.14L612.593 1430.65ZM659.559 1467.3C644.703 1465.03 631.621 1457.4 622.324 1446.45L645.766 1431.97C649.638 1435.55 654.343 1438.23 659.558 1439.71L659.559 1467.3ZM653.461 1407C653.461 1398.51 660.345 1391.63 668.836 1391.63C677.327 1391.63 684.211 1398.51 684.211 1407C684.211 1415.49 677.327 1422.38 668.836 1422.38C660.345 1422.38 653.461 1415.49 653.461 1407ZM678.112 1467.3V1439.71C683.327 1438.23 688.033 1435.55 691.904 1431.97L715.346 1446.45C706.051 1457.4 692.968 1465.03 678.112 1467.3ZM701.583 1416.14C702.393 1413.23 702.836 1410.17 702.836 1407C702.836 1403.72 702.362 1400.55 701.495 1397.55L724.955 1383.06C728.094 1390.41 729.836 1398.5 729.836 1407C729.836 1415.39 728.141 1423.38 725.079 1430.65L701.583 1416.14Z" fill="#98BDF4"/>
<path d="M1241.51 714.513H285.506V685.052C285.506 671.768 296.275 661 309.558 661H1191.5C1199.35 661 1206.7 664.826 1211.2 671.252L1241.51 714.513Z" fill="#A8D29F"/>
<path d="M285.506 697V714.513H1241.51L1229.24 697H285.506Z" fill="#82B378"/>
<path d="M2238.81 714.513H226.166C192.042 714.513 164.379 742.176 164.379 776.3V1338.84C164.379 1354 175.197 1367 190.106 1369.76L359.506 1401.12H547.698C547.698 1334.85 601.424 1281.12 667.698 1281.12C733.972 1281.12 787.699 1334.85 787.699 1401.12H1907.7C1907.7 1334.85 1961.42 1281.12 2027.7 1281.12C2093.97 1281.12 2147.7 1334.85 2147.7 1401.12H2269.97C2286.88 1401.12 2300.59 1387.41 2300.59 1370.5V776.3C2300.59 742.176 2272.93 714.513 2238.81 714.513Z" fill="#A8D29F"/>
<path d="M2126.77 1333.4C2139.97 1352.68 2147.7 1376 2147.7 1401.12H2269.97C2286.88 1401.12 2300.59 1387.41 2300.59 1370.5C2300.59 1350.01 2283.98 1333.4 2263.49 1333.4H2126.77Z" fill="#82B378"/>
<path d="M164.379 1333.4V1338.84C164.379 1354 175.197 1367 190.106 1369.76L359.506 1401.12H547.698C547.698 1376 555.426 1352.68 568.627 1333.4L164.379 1333.4Z" fill="#82B378"/>
<path d="M766.771 1333.4C779.972 1352.68 787.699 1376 787.699 1401.12H1907.7C1907.7 1376 1915.43 1352.68 1928.63 1333.4H766.771Z" fill="#82B378"/>
<path d="M178.839 1168.33H151.506V1313H178.839V1168.33Z" fill="#B64C41"/>
<path d="M178.839 1129.1H151.506V1156.44H178.839V1129.1Z" fill="#F1A34F"/>
<path d="M2300.59 1161H2286.51V1291.82H2300.59V1161Z" fill="#B64C41"/>
<path d="M898.672 1099.06H1478C1489.05 1099.06 1498 1090.11 1498 1079.06V817C1498 805.954 1489.05 797 1478 797H898.672C887.626 797 878.672 805.954 878.672 817V1079.06C878.672 1090.11 887.626 1099.06 898.672 1099.06Z" fill="#163560"/>
<path d="M1862.22 1099.06H2075.42C2086.47 1099.06 2095.42 1090.11 2095.42 1079.06V817C2095.42 805.954 2086.47 797 2075.42 797H1862.22C1851.17 797 1842.22 805.954 1842.22 817V1079.06C1842.22 1090.11 1851.17 1099.06 1862.22 1099.06Z" fill="#163560"/>
<path d="M2248.73 1099.06H2300.59V817C2300.59 805.954 2291.64 797 2280.59 797H2135.33C2124.29 797 2115.33 805.954 2115.33 817V965.666C2115.33 1039.34 2175.06 1099.06 2248.73 1099.06Z" fill="#163560"/>
<path d="M898.672 1099.06H1478C1489.05 1099.06 1498 1090.11 1498 1079.06V817C1498 805.954 1489.05 797 1478 797H898.672C887.626 797 878.672 805.954 878.672 817V1079.06C878.672 1090.11 887.626 1099.06 898.672 1099.06Z" fill="#98BDF4"/>
<path d="M1862.22 1099.06H2075.42C2086.47 1099.06 2095.42 1090.11 2095.42 1079.06V817C2095.42 805.954 2086.47 797 2075.42 797H1862.22C1851.17 797 1842.22 805.954 1842.22 817V1079.06C1842.22 1090.11 1851.17 1099.06 1862.22 1099.06Z" fill="#98BDF4"/>
<path d="M2248.73 1099.06H2300.59V817C2300.59 805.954 2291.64 797 2280.59 797H2135.33C2124.29 797 2115.33 805.954 2115.33 817V965.666C2115.33 1039.34 2175.06 1099.06 2248.73 1099.06Z" fill="#98BDF4"/>
<path d="M237.067 1099.06H816.398C827.444 1099.06 836.398 1090.11 836.398 1079.06V817C836.398 805.954 827.444 797 816.398 797H237.067C226.021 797 217.067 805.954 217.067 817V1079.06C217.067 1090.11 226.021 1099.06 237.067 1099.06Z" fill="#163560"/>
<path d="M237.067 1099.06H816.398C827.444 1099.06 836.398 1090.11 836.398 1079.06V817C836.398 805.954 827.444 797 816.398 797H237.067C226.021 797 217.067 805.954 217.067 817V1079.06C217.067 1090.11 226.021 1099.06 237.067 1099.06Z" fill="#98BDF4"/>
<path d="M1805.51 797H1655.86H1638.15H1537.51C1526.46 797 1517.51 805.954 1517.51 817V1401.12H1638.15H1655.86H1825.51V817C1825.51 805.954 1816.55 797 1805.51 797Z" fill="#98BDF4"/>
<mask id="mask0_2953_12820" style="mask-type:luminance" maskUnits="userSpaceOnUse" x="878" y="797" width="621" height="303">
<path d="M898.672 1099.06H1478C1489.05 1099.06 1498 1090.11 1498 1079.06V817C1498 805.954 1489.05 797 1478 797H898.672C887.626 797 878.672 805.954 878.672 817V1079.06C878.672 1090.11 887.626 1099.06 898.672 1099.06Z" fill="white"/>
</mask>
<g mask="url(#mask0_2953_12820)">
<path d="M892.011 1264.52H806.516L1183 601.164H1268.49L892.011 1264.52Z" fill="#D5E7F7"/>
</g>
<mask id="mask1_2953_12820" style="mask-type:luminance" maskUnits="userSpaceOnUse" x="878" y="797" width="621" height="303">
<path d="M898.672 1099.06H1478C1489.05 1099.06 1498 1090.11 1498 1079.06V817C1498 805.954 1489.05 797 1478 797H898.672C887.626 797 878.672 805.954 878.672 817V1079.06C878.672 1090.11 887.626 1099.06 898.672 1099.06Z" fill="white"/>
</mask>
<g mask="url(#mask1_2953_12820)">
<path d="M1031.46 1279.71H945.963L1322.44 616.353H1407.94L1031.46 1279.71Z" fill="#D5E7F7"/>
</g>
<mask id="mask2_2953_12820" style="mask-type:luminance" maskUnits="userSpaceOnUse" x="878" y="797" width="621" height="303">
<path d="M898.672 1099.06H1478C1489.05 1099.06 1498 1090.11 1498 1079.06V817C1498 805.954 1489.05 797 1478 797H898.672C887.626 797 878.672 805.954 878.672 817V1079.06C878.672 1090.11 887.626 1099.06 898.672 1099.06Z" fill="white"/>
</mask>
<g mask="url(#mask2_2953_12820)">
<path d="M1282.96 1293.21H1197.46L1573.94 629.853H1659.44L1282.96 1293.21Z" fill="#D5E7F7"/>
</g>
<mask id="mask3_2953_12820" style="mask-type:luminance" maskUnits="userSpaceOnUse" x="878" y="797" width="621" height="303">
<path d="M898.672 1099.06H1478C1489.05 1099.06 1498 1090.11 1498 1079.06V817C1498 805.954 1489.05 797 1478 797H898.672C887.626 797 878.672 805.954 878.672 817V1079.06C878.672 1090.11 887.626 1099.06 898.672 1099.06Z" fill="white"/>
</mask>
<g mask="url(#mask3_2953_12820)">
<path d="M1084.51 1291.82H1061.96L1438.44 628.466H1460.99L1084.51 1291.82Z" fill="#D5E7F7"/>
</g>
<mask id="mask4_2953_12820" style="mask-type:luminance" maskUnits="userSpaceOnUse" x="1842" y="797" width="254" height="303">
<path d="M1862.22 1099.06H2075.42C2086.47 1099.06 2095.42 1090.11 2095.42 1079.06V817C2095.42 805.954 2086.47 797 2075.42 797H1862.22C1851.17 797 1842.22 805.954 1842.22 817V1079.06C1842.22 1090.11 1851.17 1099.06 1862.22 1099.06Z" fill="white"/>
</mask>
<g mask="url(#mask4_2953_12820)">
<path d="M1871.07 1230.35H1785.57L2162.05 566.996H2247.55L1871.07 1230.35Z" fill="#D5E7F7"/>
</g>
<mask id="mask5_2953_12820" style="mask-type:luminance" maskUnits="userSpaceOnUse" x="1842" y="797" width="254" height="303">
<path d="M1862.22 1099.06H2075.42C2086.47 1099.06 2095.42 1090.11 2095.42 1079.06V817C2095.42 805.954 2086.47 797 2075.42 797H1862.22C1851.17 797 1842.22 805.954 1842.22 817V1079.06C1842.22 1090.11 1851.17 1099.06 1862.22 1099.06Z" fill="white"/>
</mask>
<g mask="url(#mask5_2953_12820)">
<path d="M1924.11 1242.46H1901.57L2278.05 579.109H2300.59L1924.11 1242.46Z" fill="#D5E7F7"/>
</g>
<mask id="mask6_2953_12820" style="mask-type:luminance" maskUnits="userSpaceOnUse" x="2115" y="797" width="186" height="303">
<path d="M2248.73 1099.06H2300.59V817C2300.59 805.954 2291.64 797 2280.59 797H2135.33C2124.29 797 2115.33 805.954 2115.33 817V965.666C2115.33 1039.34 2175.06 1099.06 2248.73 1099.06Z" fill="white"/>
</mask>
<g mask="url(#mask6_2953_12820)">
<path d="M2075.53 1218.24H2032.78L2409.26 554.882H2452.01L2075.53 1218.24Z" fill="#D5E7F7"/>
</g>
<mask id="mask7_2953_12820" style="mask-type:luminance" maskUnits="userSpaceOnUse" x="2115" y="797" width="186" height="303">
<path d="M2248.73 1099.06H2300.59V817C2300.59 805.954 2291.64 797 2280.59 797H2135.33C2124.29 797 2115.33 805.954 2115.33 817V965.666C2115.33 1039.34 2175.06 1099.06 2248.73 1099.06Z" fill="white"/>
</mask>
<g mask="url(#mask7_2953_12820)">
<path d="M2128.58 1230.35H2106.03L2482.52 566.996H2505.06L2128.58 1230.35Z" fill="#D5E7F7"/>
</g>
<mask id="mask8_2953_12820" style="mask-type:luminance" maskUnits="userSpaceOnUse" x="217" y="797" width="620" height="303">
<path d="M237.067 1099.06H816.398C827.444 1099.06 836.398 1090.11 836.398 1079.06V817C836.398 805.954 827.444 797 816.398 797H237.067C226.021 797 217.067 805.954 217.067 817V1079.06C217.067 1090.11 226.021 1099.06 237.067 1099.06Z" fill="white"/>
</mask>
<g mask="url(#mask8_2953_12820)">
<path d="M221.011 1257.52H135.516L511.997 594.164H597.492L221.011 1257.52Z" fill="#D5E7F7"/>
</g>
<mask id="mask9_2953_12820" style="mask-type:luminance" maskUnits="userSpaceOnUse" x="217" y="797" width="620" height="303">
<path d="M237.067 1099.06H816.398C827.444 1099.06 836.398 1090.11 836.398 1079.06V817C836.398 805.954 827.444 797 816.398 797H237.067C226.021 797 217.067 805.954 217.067 817V1079.06C217.067 1090.11 226.021 1099.06 237.067 1099.06Z" fill="white"/>
</mask>
<g mask="url(#mask9_2953_12820)">
<path d="M516.011 1257.52H430.516L806.997 594.164H892.492L516.011 1257.52Z" fill="#D5E7F7"/>
</g>
<mask id="mask10_2953_12820" style="mask-type:luminance" maskUnits="userSpaceOnUse" x="217" y="797" width="620" height="303">
<path d="M237.067 1099.06H816.398C827.444 1099.06 836.398 1090.11 836.398 1079.06V817C836.398 805.954 827.444 797 816.398 797H237.067C226.021 797 217.067 805.954 217.067 817V1079.06C217.067 1090.11 226.021 1099.06 237.067 1099.06Z" fill="white"/>
</mask>
<g mask="url(#mask10_2953_12820)">
<path d="M270.026 1257.52H247.516L623.997 594.164H646.507L270.026 1257.52Z" fill="#D5E7F7"/>
</g>
<mask id="mask11_2953_12820" style="mask-type:luminance" maskUnits="userSpaceOnUse" x="1517" y="797" width="309" height="605">
<path d="M1805.51 797H1655.86H1638.15H1537.51C1526.46 797 1517.51 805.954 1517.51 817V1401.12H1638.15H1655.86H1825.51V817C1825.51 805.954 1816.55 797 1805.51 797Z" fill="white"/>
</mask>
<g mask="url(#mask11_2953_12820)">
<path d="M1408.13 1419.76H1322.64L1699.12 756.408H1784.62L1408.13 1419.76Z" fill="#D5E7F7"/>
</g>
<mask id="mask12_2953_12820" style="mask-type:luminance" maskUnits="userSpaceOnUse" x="1517" y="797" width="309" height="605">
<path d="M1805.51 797H1655.86H1638.15H1537.51C1526.46 797 1517.51 805.954 1517.51 817V1401.12H1638.15H1655.86H1825.51V817C1825.51 805.954 1816.55 797 1805.51 797Z" fill="white"/>
</mask>
<g mask="url(#mask12_2953_12820)">
<path d="M1461.18 1431.88H1438.64L1815.12 768.521H1837.66L1461.18 1431.88Z" fill="#D5E7F7"/>
</g>
<mask id="mask13_2953_12820" style="mask-type:luminance" maskUnits="userSpaceOnUse" x="1517" y="797" width="309" height="605">
<path d="M1805.51 797H1655.86H1638.15H1537.51C1526.46 797 1517.51 805.954 1517.51 817V1401.12H1638.15H1655.86H1825.51V817C1825.51 805.954 1816.55 797 1805.51 797Z" fill="white"/>
</mask>
<g mask="url(#mask13_2953_12820)">
<path d="M1612.6 1407.65H1569.85L1946.33 744.295H1989.08L1612.6 1407.65Z" fill="#D5E7F7"/>
</g>
<path d="M1679.49 797H1662.99V1401.12H1679.49V797Z" fill="#163560"/>
<path d="M816.397 1104.06H237.067C223.282 1104.06 212.067 1092.85 212.067 1079.06V817C212.067 803.215 223.282 792 237.067 792H816.397C830.182 792 841.397 803.215 841.397 817V1079.06C841.397 1092.85 830.182 1104.06 816.397 1104.06ZM237.067 802C228.796 802 222.067 808.728 222.067 817V1079.06C222.067 1087.33 228.796 1094.06 237.067 1094.06H816.397C824.668 1094.06 831.397 1087.33 831.397 1079.06V817C831.397 808.728 824.668 802 816.397 802H237.067Z" fill="#163560"/>
<path d="M1478 1104.06H898.672C884.887 1104.06 873.672 1092.85 873.672 1079.06V817C873.672 803.215 884.887 792 898.672 792H1478C1491.79 792 1503 803.215 1503 817V1079.06C1503 1092.85 1491.79 1104.06 1478 1104.06ZM898.672 802C890.401 802 883.672 808.728 883.672 817V1079.06C883.672 1087.33 890.401 1094.06 898.672 1094.06H1478C1486.27 1094.06 1493 1087.33 1493 1079.06V817C1493 808.728 1486.27 802 1478 802H898.672Z" fill="#163560"/>
<path d="M1830.51 1406.12H1512.51V817C1512.51 803.215 1523.72 792 1537.51 792H1805.51C1819.29 792 1830.51 803.215 1830.51 817V1406.12ZM1522.51 1396.12H1820.51V817C1820.51 808.728 1813.78 802 1805.51 802H1537.51C1529.23 802 1522.51 808.728 1522.51 817V1396.12Z" fill="#163560"/>
<path d="M2075.42 1104.06H1862.22C1848.43 1104.06 1837.22 1092.85 1837.22 1079.06V817C1837.22 803.215 1848.43 792 1862.22 792H2075.42C2089.2 792 2100.42 803.215 2100.42 817V1079.06C2100.42 1092.85 2089.2 1104.06 2075.42 1104.06ZM1862.22 802C1853.95 802 1847.22 808.728 1847.22 817V1079.06C1847.22 1087.33 1853.95 1094.06 1862.22 1094.06H2075.42C2083.69 1094.06 2090.42 1087.33 2090.42 1079.06V817C2090.42 808.728 2083.69 802 2075.42 802H1862.22Z" fill="#163560"/>
<path d="M2294.85 1104.06H2248.73C2172.42 1104.06 2110.33 1041.98 2110.33 965.666V817C2110.33 803.215 2121.55 792 2135.33 792H2280.59C2294.38 792 2305.59 803.215 2305.59 817V1093.32C2305.59 1099.24 2300.78 1104.06 2294.85 1104.06ZM2135.33 802C2127.06 802 2120.33 808.728 2120.33 817V965.666C2120.33 1036.46 2177.93 1094.06 2248.73 1094.06H2294.85C2295.26 1094.06 2295.59 1093.73 2295.59 1093.32V817.001C2295.59 808.729 2288.86 802.001 2280.59 802.001L2135.33 802Z" fill="#163560"/>
<path d="M1860.01 1401.12H1482.51V1419H1860.01V1401.12Z" fill="#A8D29F"/>
<path d="M1876.51 1419H1466.01V1436.88H1876.51V1419Z" fill="#82B378"/>
<path d="M2348.17 985.667C2336.39 985.667 2326.84 976.116 2326.84 964.334V789.667C2326.84 777.885 2336.39 768.334 2348.17 768.334C2359.95 768.334 2369.51 777.885 2369.51 789.667V964.334C2369.51 976.115 2359.95 985.667 2348.17 985.667Z" fill="#A8D29F"/>
<path d="M2339.09 782.25H2138.42C2130.74 782.25 2124.51 776.019 2124.51 768.333C2124.51 760.647 2130.74 754.416 2138.42 754.416H2339.09C2346.78 754.416 2353.01 760.647 2353.01 768.333C2353.01 776.019 2346.78 782.25 2339.09 782.25Z" fill="#82B378"/>
<path d="M1419.64 1081.65C1420.68 1078.46 1421.46 1076.14 1421.85 1074.99C1422.03 1074.46 1422.13 1074.18 1422.13 1074.18C1422.13 1074.18 1422.45 1074.48 1422.96 1075.13C1426.18 1079.16 1437.22 1096.48 1428.92 1136.57C1427.7 1142.47 1426.07 1148.86 1423.92 1155.78C1423.92 1155.78 1454.48 1150.38 1463.11 1144.64C1463.47 1143.74 1467.96 1130.43 1471.38 1128.64C1474.79 1126.84 1481.08 1124.86 1482.52 1125.58C1483.96 1126.3 1486.66 1136.37 1482.52 1141.58C1478.39 1146.79 1467.78 1151.82 1467.78 1151.82C1467.78 1151.82 1433.63 1179.15 1409.91 1178.42C1390.08 1177.82 1411.93 1105.43 1419.64 1081.65Z" fill="#D9935C"/>
<path d="M1273.4 1258.72C1274.58 1255.45 1275.08 1250.63 1275.08 1250.63C1292.33 1258.18 1311.21 1254.95 1311.21 1254.95C1312.83 1261.6 1311.41 1270.85 1311.41 1270.85C1292 1276.07 1270.47 1264.65 1270.47 1264.65C1270.47 1264.65 1272.52 1261.15 1273.4 1258.72Z" fill="white"/>
<path d="M1299.91 1207.18C1300.68 1209.07 1304.06 1210.75 1308.93 1211.96C1309.39 1212.07 1309.85 1212.18 1310.32 1212.29C1321.35 1214.69 1338.8 1214.83 1351.67 1210.06C1366.06 1204.73 1376.5 1128.67 1380.93 1089.68C1381 1089.08 1381.07 1088.5 1381.13 1087.91C1382.55 1075.3 1383.3 1066.99 1383.3 1066.99C1383.3 1066.99 1375.04 1054.05 1343.04 1058.36C1311.05 1062.68 1307.82 1073.46 1304.94 1092.87C1302.07 1112.28 1297.39 1201.07 1299.91 1207.18Z" fill="#466AA5"/>
<path d="M1310.32 1212.29C1321.35 1214.69 1338.81 1214.83 1351.67 1210.06C1366.06 1204.73 1376.5 1128.67 1380.94 1089.68C1381 1089.08 1381.07 1088.5 1381.13 1087.91C1377.86 1076.61 1375.4 1069.39 1375.4 1069.39C1375.4 1069.39 1335.23 1064.54 1327.41 1076.67C1320.58 1087.27 1312.3 1187.26 1310.32 1212.29Z" fill="#2B478B"/>
<path d="M1292.05 1249.92C1294.41 1248.42 1296.7 1243.87 1297.55 1242.05C1304.85 1223.91 1313.28 1188.61 1316.06 1182.12C1317.07 1179.75 1319.01 1168.61 1321.56 1154.25C1326.13 1128.49 1332.62 1092.37 1339.13 1078.06C1339.92 1076.34 1342.15 1074.88 1345.09 1073.66C1352.87 1070.4 1365.49 1068.82 1368.45 1068.48C1371.6 1065.96 1375.94 1055.12 1375.88 1038.63L1377.29 1038.91L1400.99 1043.6C1400.99 1043.6 1400.45 1051.06 1400.44 1058.08C1400.42 1063.94 1400.78 1069.49 1402.1 1070.19C1403.81 1070.34 1404.82 1070.44 1404.82 1070.44C1404.82 1070.44 1424.58 1097.89 1426.24 1123.41C1427.9 1148.94 1410.41 1160.03 1426.37 1211.03C1442.66 1263.13 1331.96 1230.28 1338.03 1216.64C1349.04 1191.96 1354.3 1184.99 1354.49 1177.22C1354.62 1171.77 1352.24 1165.92 1347.58 1153.3C1347.17 1154.81 1346.76 1156.32 1346.36 1157.8C1343.73 1167.59 1341.47 1176.33 1340.55 1180.7C1337.72 1194.12 1306.65 1245.68 1306.65 1245.68L1306.64 1245.68L1306.64 1245.68C1306.64 1245.68 1305.7 1246.31 1304.6 1249.45C1303.5 1252.58 1294.71 1269.22 1290.95 1269.22C1287.18 1269.22 1286.4 1263.57 1285.61 1259.96C1284.83 1256.35 1289.06 1251.8 1292.05 1249.92Z" fill="#D9935C"/>
<path d="M1345.1 972.588C1350.35 969.371 1358.75 973.216 1358.75 973.216C1355.85 969.136 1345.25 970.47 1345.25 970.47C1366.41 965.969 1370.78 979.531 1371.12 980.734C1386.43 966.92 1410.94 996.366 1410.94 996.366L1375.77 1042.98C1375.77 1042.98 1372.56 1035.56 1368.33 1037.88C1361.72 1041.49 1348.94 1026.88 1353.02 1007.67C1353.46 1005.59 1354 1003.69 1354.58 1001.95C1353.21 1002.55 1351.65 1003.04 1350.2 1003.04C1346.35 1003.04 1340.55 993.227 1339.76 989.932C1338.97 986.635 1339.84 975.805 1345.1 972.588Z" fill="#233862"/>
<path d="M1400.99 1043.6C1400.99 1043.6 1400.45 1051.06 1400.44 1058.09C1387.17 1057.71 1380.17 1045.61 1377.29 1038.91L1400.99 1043.6Z" fill="#CB7D45"/>
<path d="M1374.84 1036.33C1374.84 1036.33 1367.89 1025.35 1366.23 1015.96C1365.04 1009.25 1368.45 984.402 1393.42 987.981C1393.42 987.981 1400.67 988.696 1407.49 993.3C1412.91 996.962 1420.74 1004.87 1411.99 1026.55L1409.72 1033.88L1374.84 1036.33Z" fill="#233862"/>
<path d="M1405.42 1050.25C1405.42 1050.25 1374.05 1050.77 1374.02 1031.23C1374 1011.68 1369.94 998.583 1389.97 997.426C1410 996.27 1413.9 1003.72 1415.5 1010.25C1417.09 1016.77 1413.58 1049.62 1405.42 1050.25Z" fill="#D9935C"/>
<path d="M1365.82 1453.44C1373.71 1484.84 1385.6 1508.92 1385.6 1508.92L1395.94 1508.2C1395.94 1508.2 1390.87 1484.06 1391.16 1451.44C1391.37 1428.64 1394.19 1401.69 1403.2 1375.96C1434.16 1287.53 1429.15 1223.18 1429.15 1223.18L1370.93 1229.99L1368.22 1230.31C1367.98 1257.05 1367.29 1293.35 1366.68 1321.74C1366.15 1347.27 1365.68 1366.4 1365.68 1366.4C1354.48 1390.51 1358.55 1424.53 1365.82 1453.44Z" fill="#AA413E"/>
<path d="M1345.72 1148.21C1351.6 1164.46 1354.63 1171.08 1354.49 1177.22C1373.23 1148.2 1407.09 1143.82 1407.09 1143.82L1342.79 1136.47C1343.38 1140.45 1344.34 1144.39 1345.72 1148.21Z" fill="#CB7D45"/>
<path d="M1332.41 1448.42C1335.76 1484.15 1350.5 1507.25 1350.5 1507.25L1355.45 1510.85C1355.45 1510.85 1360.12 1485.68 1363.43 1455.73C1366.59 1427.26 1370.91 1397.14 1375.8 1387.95C1395.22 1351.49 1401.07 1213.84 1401.07 1213.84L1342.03 1210.91C1336.1 1220.89 1333.51 1237.27 1332.89 1255.88C1331.34 1302.86 1342.38 1364.11 1344.03 1372.97C1344.03 1372.97 1344.03 1372.98 1344.04 1372.99C1344.17 1373.68 1343.97 1374.35 1343.65 1374.97C1331.91 1398.22 1330.21 1424.82 1332.41 1448.42Z" fill="#B64C41"/>
<path d="M1382.48 1023.27C1369.3 1026.66 1363.58 1023.13 1363.58 1023.13C1363.58 1023.13 1364.56 1009.73 1375.79 1001.07C1392.08 988.51 1403.3 995.524 1403.99 996.558C1406.05 994.79 1409.71 993.497 1414.57 999.378C1421.84 1008.19 1415.37 1023.78 1415.37 1023.78C1412.38 1024.13 1411.68 1013.88 1410.11 1008.91C1408.96 1005.24 1405.18 1001.51 1403.27 999.787C1402.66 1002.05 1396.34 1024 1380.57 1031.29C1380.57 1031.29 1387.83 1024.84 1393.17 1015.9C1390.11 1019.37 1386.51 1022.23 1382.48 1023.27Z" fill="#233862"/>
<path d="M1330.63 1234.46C1330.53 1236.45 1330.64 1238.04 1331 1239.18C1332.26 1243.13 1336.57 1244.93 1347 1243.85C1353.37 1243.19 1356.21 1232.51 1357.48 1223.39C1361.31 1236.43 1366.67 1243.75 1373.6 1245.28C1383.71 1247.53 1434.71 1253.73 1438.04 1229.49C1441.72 1202.83 1430.72 1155.61 1430.12 1130.16C1431.62 1121.13 1432.13 1113.3 1431.97 1106.57C1431.54 1088.43 1426.22 1078.27 1422.13 1074.17C1420.97 1073.28 1419.81 1072.73 1415.16 1071.93C1412.78 1071.53 1409.48 1071.06 1404.81 1070.44C1404.81 1070.44 1402.91 1070.23 1402.95 1070.3C1403.82 1071.84 1415.37 1089.33 1414.47 1093.83C1413.52 1098.54 1372.56 1094.3 1369.73 1091.71C1366.91 1089.12 1362.44 1069.29 1362.44 1069.29C1362.44 1069.29 1347.93 1070.88 1340.84 1076.04C1340.84 1076.04 1340.86 1076.07 1340.91 1076.13C1340.06 1076.74 1339.41 1077.39 1339.05 1078.09C1331.48 1092.5 1323.92 1128.88 1318.6 1154.83C1331.49 1161.93 1342.74 1159.81 1346.24 1158.88C1341.67 1188.76 1331.31 1220.84 1330.63 1234.46Z" fill="#F1A34F"/>
<path d="M1404.81 1070.44C1404.81 1070.44 1404.83 1070.48 1404.88 1070.55C1406.27 1072.75 1428.03 1107.54 1430.12 1130.16C1431.62 1121.13 1432.13 1113.3 1431.97 1106.57C1429.17 1098.02 1422.37 1079.03 1415.15 1071.93C1414.25 1071.04 1404.81 1070.44 1404.81 1070.44Z" fill="#466AA5"/>
<path d="M1456.59 1146.69L1465.72 1119.26C1465.88 1118.78 1466.4 1118.52 1466.87 1118.68L1481.26 1123.47C1481.74 1123.63 1481.99 1124.15 1481.84 1124.62L1472.7 1152.06C1472.54 1152.53 1472.03 1152.79 1471.55 1152.63L1457.16 1147.84C1456.69 1147.68 1456.43 1147.17 1456.59 1146.69Z" fill="#F1A34F"/>
<path d="M1459.88 1147.04L1468.57 1120.95C1468.85 1120.1 1469.77 1119.64 1470.61 1119.93L1483.66 1124.27C1484.51 1124.55 1484.97 1125.47 1484.68 1126.32L1475.99 1152.41C1475.71 1153.26 1474.8 1153.72 1473.95 1153.43L1460.9 1149.09C1460.06 1148.81 1459.6 1147.89 1459.88 1147.04Z" fill="#D86713"/>
<path d="M1332.41 1448.42C1335.76 1484.15 1350.5 1507.25 1350.5 1507.25L1355.54 1511.84C1355.54 1511.84 1360.12 1485.68 1363.43 1455.73C1359.95 1455.98 1344.57 1456.54 1332.41 1448.42Z" fill="#D9935C"/>
<path d="M1365.82 1453.44C1373.71 1484.84 1385.6 1508.92 1385.6 1508.92L1395.94 1508.2C1395.94 1508.2 1390.87 1484.06 1391.16 1451.44C1387.65 1453.21 1380.4 1455.01 1365.82 1453.44Z" fill="#D9935C"/>
<path d="M1379.64 1517.59H1386.24C1388.46 1517.25 1390.09 1516.61 1392.36 1516.31C1395.81 1515.86 1397.39 1517.27 1397.71 1517.59C1397.75 1517.64 1397.77 1517.66 1397.77 1517.66H1425.83C1426.54 1516.65 1425.86 1514.32 1425.2 1512.6C1424.75 1511.43 1423.77 1510.55 1422.57 1510.2C1419.59 1509.34 1413.73 1508.57 1408.35 1503.7C1405.33 1500.97 1393.76 1493.66 1393.76 1493.66L1393.7 1493.65C1393.44 1493.65 1392.23 1494.02 1386.97 1498.47C1384.25 1500.76 1379.61 1495.23 1379.61 1495.23C1379.61 1495.23 1378.74 1495.95 1378.09 1497.29C1377.57 1498.35 1377.18 1499.8 1377.48 1501.6C1377.9 1504.13 1376.55 1508.83 1375.47 1512.01C1374.82 1513.93 1374.27 1515.3 1374.27 1515.3C1374.27 1515.3 1373.95 1516.88 1379.64 1517.59Z" fill="#233862"/>
<path d="M1378.09 1497.29C1379.67 1498.4 1382.99 1500.59 1385.2 1500.88C1388.18 1501.27 1393.76 1493.66 1393.76 1493.66L1393.7 1493.65C1393.44 1493.65 1392.23 1494.02 1386.97 1498.47C1384.25 1500.76 1379.61 1495.23 1379.61 1495.23C1379.61 1495.23 1378.74 1495.95 1378.09 1497.29Z" fill="#466AA5"/>
<path d="M1379.64 1517.59H1386.24C1388.46 1517.24 1390.09 1516.6 1392.36 1516.31C1395.81 1515.86 1397.39 1517.27 1397.71 1517.59C1397.75 1517.63 1397.77 1517.66 1397.77 1517.66H1425.83C1426.54 1516.65 1425.86 1514.32 1425.2 1512.6C1424.34 1511.84 1424.1 1515.89 1423.63 1516.53C1423.16 1517.18 1400.74 1516.77 1399.45 1515.83C1398.15 1514.89 1394.27 1513.24 1388.85 1514.53C1384.14 1515.66 1377.19 1512.77 1375.47 1512C1374.82 1513.93 1374.27 1515.29 1374.27 1515.29C1374.27 1515.29 1373.95 1516.88 1379.64 1517.59Z" fill="#466AA5"/>
<path d="M1344.39 1517.59H1350.99C1353.2 1517.25 1354.84 1516.61 1357.11 1516.31C1360.55 1515.86 1362.14 1517.27 1362.46 1517.59C1362.5 1517.64 1362.52 1517.66 1362.52 1517.66H1390.58C1391.29 1516.65 1390.61 1514.32 1389.94 1512.6C1389.5 1511.43 1388.52 1510.55 1387.32 1510.2C1384.34 1509.34 1378.48 1508.57 1373.1 1503.7C1370.08 1500.97 1358.51 1493.66 1358.51 1493.66L1358.45 1493.65C1358.19 1493.65 1356.98 1494.02 1351.72 1498.47C1348.99 1500.76 1344.36 1495.23 1344.36 1495.23C1344.36 1495.23 1343.49 1495.95 1342.84 1497.29C1342.31 1498.35 1341.93 1499.8 1342.23 1501.6C1342.65 1504.13 1341.3 1508.83 1340.22 1512.01C1339.57 1513.93 1339.02 1515.3 1339.02 1515.3C1339.02 1515.3 1338.7 1516.88 1344.39 1517.59Z" fill="#233862"/>
<path d="M1342.84 1497.29C1344.41 1498.4 1347.74 1500.59 1349.95 1500.88C1352.93 1501.27 1358.51 1493.66 1358.51 1493.66L1358.44 1493.65C1358.19 1493.65 1356.98 1494.02 1351.72 1498.47C1348.99 1500.76 1344.36 1495.23 1344.36 1495.23C1344.36 1495.23 1343.49 1495.95 1342.84 1497.29Z" fill="#466AA5"/>
<path d="M1344.39 1517.59H1350.99C1353.2 1517.24 1354.84 1516.6 1357.11 1516.31C1360.55 1515.86 1362.14 1517.27 1362.46 1517.59C1362.5 1517.63 1362.52 1517.66 1362.52 1517.66H1390.58C1391.29 1516.65 1390.61 1514.32 1389.94 1512.6C1389.09 1511.84 1388.85 1515.89 1388.38 1516.53C1387.91 1517.18 1365.49 1516.77 1364.19 1515.83C1362.9 1514.89 1359.01 1513.24 1353.6 1514.53C1348.89 1515.66 1341.94 1512.77 1340.22 1512C1339.57 1513.93 1339.02 1515.29 1339.02 1515.29C1339.02 1515.29 1338.7 1516.88 1344.39 1517.59Z" fill="#466AA5"/>
<path opacity="0.4" d="M1330.63 1234.46C1337.64 1232.12 1346.63 1225.89 1357.42 1211.95C1386 1175.01 1359.85 1131.6 1356.34 1130.79C1352.84 1129.99 1346.24 1158.88 1346.24 1158.88C1341.67 1188.76 1331.31 1220.84 1330.63 1234.46Z" fill="#D86713"/>
<path d="M1346.64 1066.63C1346.64 1066.63 1375.4 1086.22 1377.55 1127.74C1379.71 1169.26 1342.33 1177.71 1342.33 1177.71L1344.75 1164.58C1344.75 1164.58 1375.04 1153.62 1367.13 1120.55C1359.22 1087.48 1335.5 1069.5 1335.5 1069.5L1346.64 1066.63Z" fill="#466AA5"/>
<path d="M1483.33 1130.15C1483.33 1130.15 1480.63 1124.58 1475.69 1126.82C1470.75 1129.07 1472.9 1137.52 1475.78 1140.48C1478.66 1143.45 1479.46 1144.8 1479.46 1144.8L1483.33 1130.15Z" fill="#D9935C"/>
<path d="M470.652 1187.94C470.652 1187.94 475.408 1193.37 472.629 1196.75C469.85 1200.13 464.9 1203.04 460.227 1199.8C455.554 1196.57 454.296 1184.53 456.992 1184.53C459.688 1184.53 470.652 1187.94 470.652 1187.94Z" fill="#CB8757"/>
<path d="M461.484 1136.72C461.484 1136.72 475.144 1181.29 472.269 1187.76C469.393 1194.23 460.087 1193.05 454.854 1185.37C449.621 1177.7 461.484 1136.72 461.484 1136.72Z" fill="#AA413E"/>
<path d="M425.822 1037.24C425.822 1037.24 446.881 1041.05 454.692 1048.86C462.502 1056.67 480.931 1079.71 469.337 1156.53C469.337 1156.53 468.406 1179.68 442.373 1181.91C416.339 1184.14 425.822 1037.24 425.822 1037.24Z" fill="#B64C41"/>
<path d="M437.5 1035.25C437.096 1031.23 437.246 1027.68 437.441 1025.41V1025.41C437.581 1023.76 437.748 1022.78 437.748 1022.78L437.441 1022.68L412.146 1014.98L411.521 1014.79C411.149 1023.02 410.669 1029.12 410.162 1033.65C409.59 1038.79 408.981 1041.9 408.464 1043.78H439.22C438.293 1040.88 437.77 1037.95 437.5 1035.25Z" fill="#D9935C"/>
<path d="M447.332 982.545C447.332 982.545 444.427 941.116 390.628 956.803C378.421 960.362 380.008 997.219 409.572 1011.25L447.332 982.545Z" fill="#2B478B"/>
<path d="M377.425 1228.28C381.047 1253.48 405.343 1319 404.636 1341.65C404.077 1359.5 404.37 1400.72 406.725 1428.11C407.373 1435.56 408.139 1441.95 409.11 1446.6C411.201 1456.7 413.881 1468.33 415.324 1475.67C418.534 1492.13 416.855 1501.73 419.476 1510.56C422.362 1520.22 455.492 1518.45 445.509 1512.59C441.946 1510.5 436.762 1506.06 434.2 1500.32C424.895 1479.47 437.94 1389.56 441.827 1354.9C442.328 1350.57 442.682 1347.13 442.829 1344.77C444.125 1323.36 458.821 1180.74 458.821 1180.74C423.132 1160.89 373.832 1203.07 377.425 1228.28Z" fill="#D9935C"/>
<path d="M377.426 1228.28C381.048 1253.48 405.343 1319 404.636 1341.65C404.077 1359.5 404.371 1400.72 406.726 1428.11L441.828 1354.9C442.329 1350.57 442.682 1347.13 442.829 1344.77C444.125 1323.36 459.19 1180.68 459.19 1180.68C423.499 1160.84 373.833 1203.07 377.426 1228.28Z" fill="#CB8757"/>
<path d="M454.855 1185.37C454.855 1185.37 424.202 1326.27 420.719 1347.43C417.237 1368.58 389.323 1468.19 395.407 1493.15C398.996 1507.88 405.253 1512.23 405.253 1512.23C406.725 1514.93 382.48 1520.29 380.522 1509.96C378.036 1496.84 377.514 1478.43 373.873 1447.22C367.602 1393.47 380.039 1362.89 383.054 1340.43C386.069 1317.96 372.931 1246.57 380.222 1222.17C392.983 1179.47 421.404 1161.96 454.855 1185.37Z" fill="#D9935C"/>
<path d="M373.054 1314.85C373.054 1314.85 381.035 1316.09 392.784 1316.91L399.174 1291.29L401.413 1317.38C420.289 1318.15 444.937 1317.21 463.106 1309.7L459.189 1180.68C459.189 1180.68 432.873 1187.63 401.216 1175.46C401.216 1175.46 360.049 1207.61 373.054 1314.85Z" fill="#B64C41"/>
<path d="M368.651 1490.73C370.111 1499 370.405 1513.88 370.456 1517.66H373.054L373.29 1498.04C373.475 1498.28 373.653 1498.48 373.813 1498.67C376.132 1501.25 379.186 1513.85 381.446 1517.66H410.199C410.494 1516.83 410.275 1516.02 409.802 1515.27V1515.26C408.487 1513.2 405.222 1511.6 405.222 1511.6C405.222 1511.6 396.02 1513.03 386.869 1510.73C383.031 1509.77 376.537 1475.67 376.537 1475.67C376.537 1475.67 367.487 1481.17 366.483 1483.69C365.995 1484.9 367.099 1487.77 368.651 1490.73Z" fill="#AA413E"/>
<path d="M408.293 1492.32C409.331 1499.44 409.685 1509.97 409.803 1515.26V1515.27C409.82 1516.28 409.837 1517.09 409.845 1517.66H412.442L412.671 1498.78C414.982 1501.57 417.992 1513.91 420.218 1517.66H448.972C450.068 1514.55 443.994 1511.6 443.994 1511.6C443.994 1511.6 434.793 1513.03 425.642 1510.73C421.804 1509.76 415.309 1475.67 415.309 1475.67C415.309 1475.67 406.259 1481.17 405.256 1483.69C404.683 1485.12 406.32 1488.85 408.293 1492.32Z" fill="#AA413E"/>
<path d="M398.999 1177.51C398.999 1177.51 423.17 1194.19 459.674 1181.99C459.674 1181.99 472.148 1139.32 468.218 1098.24C465.578 1070.67 449.944 1048.97 438.322 1040.43C436.492 1042.06 433.272 1044.86 409.436 1039.08C409.436 1039.08 398.501 1043.67 396.553 1047.89C392.403 1056.92 406.337 1159.59 398.999 1177.51Z" fill="#E7F0FD"/>
<path d="M388.871 1191C399.649 1193.21 407.953 1185.6 420.704 1181.95C424.944 1180.75 428.685 1179.24 431.511 1177.51C442.907 1170.5 448.444 1118.61 446.47 1098.97C444.526 1079.36 409.434 1039.08 409.434 1039.08C401.337 1045.09 399.824 1059.07 394.965 1077.41C383.275 1121.56 388.871 1191 388.871 1191Z" fill="#B64C41"/>
<path d="M388.871 1191C399.649 1193.21 411.518 1189.2 420.704 1181.95C425.387 1175.3 429.125 1167.17 431.127 1157.25C436.928 1128.62 414.047 1097.56 394.965 1077.41C383.275 1121.56 388.871 1191 388.871 1191Z" fill="#AA413E"/>
<path d="M412.146 1014.98C415.03 1019.81 424.133 1033.17 437.5 1035.25C437.096 1031.22 437.246 1027.68 437.441 1025.41V1025.41C437.581 1023.76 437.748 1022.78 437.748 1022.78L437.441 1022.68L412.146 1014.98Z" fill="#CB7D45"/>
<path d="M444.597 1024.56C444.597 1024.56 413.198 1030.86 409.572 1011.25C405.946 991.636 399.451 979.241 419.346 974.385C439.24 969.53 444.529 976.292 447.332 982.544C450.135 988.797 452.671 1022.41 444.597 1024.56Z" fill="#D9935C"/>
<path d="M398.666 977.343C409.169 964.16 422.333 965.903 429.229 968.1C430.608 967.871 432.553 967.713 435.211 967.651C455.708 967.174 450.044 990.849 450.044 990.849C449.305 975.913 436.367 974.325 436.367 974.325C436.367 974.325 436.203 974.277 435.921 974.193C437.064 978.353 436.662 985.021 426.621 991.326C410.425 1001.5 411.667 1021.83 415.972 1027.55C415.972 1027.55 383.731 996.092 398.666 977.343Z" fill="#2B478B"/>
<path d="M458.166 1214.36C460.719 1203.55 463.605 1197.92 466.993 1197.14C467.957 1196.91 468.934 1197.13 469.821 1197.77C472.448 1199.64 474.672 1205.4 476.619 1215.37C478.018 1222.53 478.726 1229.28 478.733 1229.35L476.587 1229.57C476.58 1229.5 475.882 1222.85 474.502 1215.78C472.128 1203.63 469.765 1200.37 468.568 1199.52C468.061 1199.16 467.702 1199.18 467.477 1199.24C462.907 1200.29 458.944 1218.64 457.521 1229.95L455.381 1229.69C455.391 1229.61 456.353 1222.04 458.166 1214.36Z" fill="#233862"/>
<path d="M433.03 1268.87L437.724 1237.73C438.721 1231.11 444.402 1226.22 451.089 1226.22H484.347C487.35 1226.22 489.784 1228.66 489.784 1231.66V1269.68C489.784 1272.68 487.35 1275.11 484.347 1275.11H438.407C435.08 1275.11 432.534 1272.15 433.03 1268.87Z" fill="#233862"/>
<path d="M455.694 1226.22H484.974C487.768 1226.22 490.17 1228.2 490.704 1230.95L497.955 1268.16C498.658 1271.76 495.898 1275.11 492.225 1275.11H460.894C457.982 1275.11 455.515 1272.97 455.112 1270.08L449.913 1232.87C449.421 1229.36 452.148 1226.22 455.694 1226.22Z" fill="#2B478B"/>
<path d="M455.475 1193.76C455.475 1193.76 469.054 1197.32 469.85 1200.13C470.645 1202.94 465.994 1210.92 458.314 1209.06C450.633 1207.2 444.5 1198.05 444.5 1198.05L455.475 1193.76Z" fill="#DA935B"/>
<path d="M409.436 1039.08C409.436 1039.08 389.426 1041.68 379.855 1061.56C370.285 1081.43 388.092 1152.42 390.669 1157.21C393.246 1161.99 423.145 1200.27 448.545 1203.58C448.545 1203.58 459.337 1199.77 458.97 1193.51C458.97 1193.51 417.34 1152.31 414.395 1146.42C411.45 1140.53 415.56 1075.91 415.192 1067.45C414.823 1058.98 409.436 1039.08 409.436 1039.08Z" fill="#B64C41"/>
<path d="M857.535 1228.1C857.939 1217.72 871.959 1212.6 871.959 1212.6C878.787 1208.47 878.389 1160.05 880.894 1131.54C881.503 1124.58 882.211 1118.86 882.998 1115.33C887.003 1097.3 888.218 1033.55 900.232 1023.54C912.246 1013.53 940.151 1009.3 940.151 1009.3C940.151 1009.3 931.167 1057.4 921.364 1107.65C910.716 1162.27 884.787 1214.47 882.54 1216.51C882.533 1216.52 882.524 1216.52 882.517 1216.53C880.207 1221.47 874.043 1228.33 870.745 1230.53C866.701 1233.23 868.858 1238.62 864.005 1239.16C857.569 1239.87 857.324 1233.52 857.535 1228.1Z" fill="#D9935C"/>
<path d="M939.753 1003.47L939.774 1007.41C939.774 1007.41 938.699 1019.75 953.892 1021.55C969.085 1023.36 980.595 1016.74 980.184 1007.22C978.816 999.847 977.313 994.785 977.212 988.685C977.174 986.418 977.329 984.012 977.752 981.297L948.312 980.709L939.64 982.126L939.753 1003.47Z" fill="#D9935C"/>
<path d="M939.641 982.125L939.754 1003.47C942.882 1004.92 946.409 1005.81 950.365 1005.81C963.896 1005.81 972.642 995.886 977.213 988.685C977.175 986.418 977.33 984.012 977.753 981.297L948.313 980.709L939.641 982.125Z" fill="#CB7D45"/>
<path d="M937.923 992.495C937.923 992.495 975.629 1000.11 980.011 976.558C984.393 953.005 992.211 938.124 968.322 932.265C944.432 926.406 938.07 934.521 934.695 942.028C931.32 949.533 928.227 989.907 937.923 992.495Z" fill="#D9935C"/>
<path d="M940.152 1009.3C940.152 1009.3 934.972 1037.02 928.191 1072.36C926.042 1083.57 923.728 1095.55 921.365 1107.65C911.763 1126.47 903.521 1139.27 900.976 1136.86C895.783 1131.96 886.666 1131.35 880.894 1131.54C881.503 1124.58 882.211 1118.86 882.998 1115.33C883.314 1113.9 883.612 1112.19 883.901 1110.25C887.261 1087.57 889.165 1032.76 900.232 1023.54C912.247 1013.53 940.152 1009.3 940.152 1009.3Z" fill="#739AF0"/>
<path d="M900.976 1136.86C895.783 1131.96 886.666 1131.35 880.894 1131.54C881.503 1124.58 882.211 1118.86 882.998 1115.33C883.314 1113.9 883.612 1112.19 883.901 1110.25L912.692 1040.75C912.694 1040.75 903.521 1139.27 900.976 1136.86Z" fill="#4A75CB"/>
<path d="M965.571 1517.66C965.571 1517.66 967.129 1506.39 970.393 1499.86C973.656 1493.33 994.422 1497.49 994.422 1497.49C994.422 1497.49 998.575 1501.05 999.465 1517.66L965.571 1517.66Z" fill="#233862"/>
<path d="M895.022 1517.66C899.901 1514.68 897.074 1493.07 897.074 1493.07C897.074 1493.07 874.338 1474.88 871.212 1488.81C868.086 1502.73 849.612 1508.98 839.097 1510.69C831.838 1511.87 831.365 1515.28 830.669 1517.66H895.022Z" fill="#233862"/>
<path d="M942.064 1356.67C941.138 1361.77 940.551 1365.95 940.395 1368.95C938.281 1410.18 905.691 1504.44 899.862 1506.64C890.843 1510.04 876.639 1502.81 869.208 1500.44C866.129 1499.46 864.051 1496.35 864.736 1493.2C880.875 1419.01 886.807 1312.17 888.965 1248.91C890.055 1217.05 895.524 1195.04 895.524 1195.04C895.524 1195.04 975.011 1173.84 975.482 1200.66C975.901 1224.4 949.153 1317.51 942.064 1356.67Z" fill="#2B478B"/>
<path d="M942.065 1356.67L888.966 1248.91C890.056 1217.05 895.525 1195.04 895.525 1195.04C895.525 1195.04 975.012 1173.84 975.483 1200.66C975.902 1224.4 949.154 1317.51 942.065 1356.67Z" fill="#233862"/>
<path d="M924.38 1200.76L966.4 1505.31C966.4 1505.31 984.853 1509.76 999.205 1506.2C999.205 1506.2 1011.51 1344.22 1010.48 1305.07C1009.46 1265.91 1019.31 1200.29 1008.23 1193.05C997.155 1185.81 924.38 1200.76 924.38 1200.76Z" fill="#2B478B"/>
<path d="M1014.27 1193.05C1014.41 1196.58 1011.62 1199.52 1008.09 1199.57L941.874 1200.58L893.237 1201.32C890.959 1201.36 898.158 1183.14 898.306 1064.33C898.341 1037.82 939.386 1009.29 940.142 1009.29L940.151 1009.3C940.151 1013.12 946.167 1020.17 955.436 1020.77C966.436 1021.49 979.932 1016.02 979.932 1009.68C979.932 1009.61 981.209 1011 983.265 1013.99C988.756 1021.99 999.818 1041.49 1006.88 1075.45C1012.45 1102.27 1010.31 1138.13 1014.32 1184.4C1014.62 1187.74 1014.19 1190.71 1014.27 1193.05Z" fill="#FFA412"/>
<path d="M1011.83 1199.94C1011.83 1199.94 1003.03 1203.88 986.563 1207.29C974.322 1209.83 957.848 1212.09 937.611 1212.21C905.425 1212.42 893.238 1201.32 893.238 1201.32C890.96 1201.36 898.159 1183.14 898.307 1064.33C898.342 1037.82 939.387 1009.29 940.143 1009.29L940.152 1009.3C940.152 1009.3 939.097 1044.6 949.777 1054.99C949.777 1054.99 964.755 1043.42 984.187 1010.49C989.678 1018.49 999.819 1041.49 1006.88 1075.46C1008.31 1082.37 1009.24 1089.87 1009.89 1098C1011.76 1121.44 1011.34 1150.05 1014.32 1184.4C1014.62 1187.74 1014.19 1190.71 1014.27 1193.05C1014.41 1196.57 1015.36 1199.88 1011.83 1199.94Z" fill="#739AF0"/>
<path d="M1011.83 1199.94C1011.83 1199.94 1003.03 1203.88 986.563 1207.29C981.384 1199.4 974.855 1185.14 973.953 1162.67C972.422 1124.68 1008.51 1075.75 1008.51 1075.75L1009.89 1098C1011.76 1121.44 1011.34 1150.05 1014.32 1184.4C1014.62 1187.74 1014.19 1190.71 1014.27 1193.05C1014.41 1196.57 1015.36 1199.88 1011.83 1199.94Z" fill="#4A75CB"/>
<path d="M916.14 1085.75L963.534 1058.39C967.434 1056.13 972.421 1057.47 974.673 1061.37L1015.24 1131.63C1017.49 1135.53 1016.15 1140.52 1012.25 1142.77L964.86 1170.13C960.96 1172.39 955.973 1171.05 953.721 1167.15L913.156 1096.89C910.903 1092.99 912.239 1088 916.14 1085.75Z" fill="#B64C41"/>
<path d="M924.184 1123.51C925.264 1120.55 935.848 1116.69 939.52 1116.69C943.15 1116.69 952.471 1125.38 952.686 1125.58C955.355 1125.46 981.565 1124.2 1001.04 1121.35C1006.16 1120.6 1010.81 1119.74 1014.45 1118.77C1018.91 1117.57 996.741 1061.37 985.554 1028.32C982.884 1020.44 980.842 1013.87 979.933 1009.68C979.933 1009.68 981.887 1010 984.957 1010.61C993.665 1012.32 1011.36 1016.36 1018.89 1022.06C1029.08 1029.76 1054.52 1116.64 1038.92 1150.21C1038.92 1150.21 1026.32 1151.44 1004.78 1149.23C989.349 1147.64 969.318 1144.28 946.049 1137.44C945.467 1137.5 944.931 1137.5 944.486 1137.46C941.246 1137.16 928.718 1134.19 925.694 1133.01C922.672 1131.82 923.104 1126.48 924.184 1123.51Z" fill="#D9935C"/>
<path d="M1038.92 1150.21C1038.92 1150.21 1026.32 1151.44 1004.78 1149.23C1005.97 1143.38 1007.08 1131.95 1001.04 1121.35C1006.16 1120.6 1010.81 1119.74 1014.45 1118.77C1018.91 1117.57 996.74 1061.37 985.553 1028.32C984.658 1017.64 984.188 1010.49 984.188 1010.49L984.958 1010.6C993.666 1012.32 1011.36 1016.36 1018.9 1022.06C1029.09 1029.76 1054.52 1116.63 1038.92 1150.21Z" fill="#739AF0"/>
<path d="M949.774 1054.99C949.774 1054.99 979.738 1041.79 980.182 1040.75C980.628 1039.71 978.698 1031.7 976.621 1029.33C976.621 1029.33 991.009 1030.66 991.899 1028.88C992.789 1027.1 993.085 1012.27 993.085 1012.27C993.085 1012.27 987.449 1006.34 980.032 1005.74C980.032 1005.74 973.539 1021.84 971.132 1026.66C964.756 1039.41 949.774 1054.99 949.774 1054.99Z" fill="#4A75CB"/>
<path d="M942.655 1028.88C942.655 1028.88 944.583 1044.31 949.774 1054.99C949.774 1054.99 934.126 1044.08 932.791 1040.52C931.456 1036.96 936.573 1030.07 936.573 1030.07C936.573 1030.07 927.229 1029.85 927.006 1026.73C926.784 1023.62 929.899 1011.38 929.899 1011.38C929.899 1011.38 937.54 1005.59 939.765 1005.81L942.655 1028.88Z" fill="#4A75CB"/>
<path d="M927.363 924.528C927.363 924.528 937.878 923.719 950.279 918.327C960.345 913.95 973.045 918.77 977.167 920.941C977.057 920.277 976.791 919.37 976.162 918.461C976.162 918.461 978.013 919.773 978.285 921.608C978.476 921.748 978.561 921.845 978.512 921.877C978.512 921.877 980.611 921.493 981.958 922.1C981.958 922.1 981.014 921.965 980.677 922.572C980.641 922.635 980.588 922.69 980.526 922.738C996.228 930.325 997.678 955.14 992.625 960.883C986.546 967.791 979.257 983.348 979.257 983.348C979.257 983.348 976.598 979.673 977.704 973.594C978.809 967.514 973.559 967.514 966.927 964.751C960.295 961.988 965.822 954.251 960.019 949.553C954.216 944.856 932.939 947.619 933.215 944.027C925.317 941.151 927.363 925.337 927.363 924.528Z" fill="#233862"/>
<path d="M964.3 1109.03C966.483 1109.03 968.254 1110.8 968.254 1112.98C968.254 1115.17 966.484 1116.94 964.3 1116.94C962.116 1116.94 960.346 1115.17 960.346 1112.98C960.345 1110.8 962.115 1109.03 964.3 1109.03Z" fill="#ED6058"/>
<path d="M801.232 1503.27C803.475 1508.51 801.043 1514.58 795.802 1516.82C790.56 1519.07 784.493 1516.64 782.25 1511.39C780.007 1506.15 782.438 1500.09 787.68 1497.84C792.921 1495.6 798.988 1498.03 801.232 1503.27Z" fill="#D86713"/>
<path d="M802.172 1503.27C804.415 1508.51 801.984 1514.58 796.743 1516.82C791.501 1519.07 785.435 1516.64 783.192 1511.39C780.949 1506.15 783.379 1500.09 788.621 1497.84C793.862 1495.6 799.929 1498.03 802.172 1503.27Z" fill="#F1A34F"/>
<path d="M884.094 1503.27C886.337 1508.51 883.906 1514.58 878.664 1516.82C873.423 1519.07 867.355 1516.64 865.112 1511.39C862.869 1506.15 865.301 1500.09 870.542 1497.84C875.783 1495.6 881.851 1498.03 884.094 1503.27Z" fill="#D86713"/>
<path d="M885.036 1503.27C887.279 1508.51 884.848 1514.58 879.607 1516.82C874.365 1519.07 868.298 1516.64 866.055 1511.39C863.812 1506.15 866.244 1500.09 871.485 1497.84C876.727 1495.6 882.793 1498.03 885.036 1503.27Z" fill="#F1A34F"/>
<path d="M779.884 1501.94L794.563 1507.22C796.047 1507.75 797.615 1508.01 799.193 1508L882.486 1507.15L891.579 1492.07L779.884 1501.94Z" fill="#D86713"/>
<path d="M835.304 1245.06C835.521 1243.1 838.337 1223.08 862.283 1222.43L879.686 1220.59C880.822 1220.37 888.172 1219.14 893.815 1223.44C897.622 1226.34 899.716 1230.99 900.036 1237.26C900.451 1245.34 890.282 1297.67 885.633 1321.06L916.782 1327.29C916.782 1327.29 929.89 1332.62 927.29 1355.59C925.002 1375.8 914.971 1489.2 914.971 1489.2C914.971 1489.2 912.878 1512.8 862.475 1505.95L871.832 1318.3L881.274 1320.19C887.349 1289.67 895.942 1244.34 895.591 1237.48C895.341 1232.6 893.842 1229.07 891.139 1227C886.801 1223.67 880.561 1224.95 880.505 1224.97L862.66 1226.86L862.483 1226.87C841.436 1227.4 839.785 1244.81 839.726 1245.54L839.717 1245.66L824.863 1327.13L820.484 1326.34L835.304 1245.06Z" fill="#D86713"/>
<path d="M896.753 1349.49L884.664 1476.49C884.172 1481.63 882.35 1486.35 879.55 1490.31C874.368 1497.65 865.838 1502.41 856.273 1502.47L814.585 1502.73L813.554 1502.74L787.445 1502.9C784.818 1502.92 782.282 1502.58 779.88 1501.95C779.316 1501.8 778.762 1501.63 778.215 1501.45C769.177 1498.45 762.223 1491.1 759.647 1482.05C758.551 1478.2 758.244 1474.05 758.908 1469.79L777.84 1348.27C779.862 1335.32 790.412 1325.37 803.467 1324.12L810.83 1323.42L812.586 1323.26L812.589 1323.25L814.065 1323.11L838.679 1320.76L841.7 1320.47L865.453 1318.2C869.181 1317.85 872.786 1318.22 876.143 1319.19C876.363 1319.25 876.583 1319.32 876.802 1319.39L878.175 1319.86C889.893 1324.22 898.033 1336.04 896.753 1349.49Z" fill="#F1A34F"/>
<path opacity="0.4" d="M879.55 1490.31C874.368 1497.65 865.838 1502.41 856.273 1502.47L814.585 1502.73L813.554 1502.74L787.445 1502.9C784.818 1502.92 782.282 1502.58 779.88 1501.94C779.316 1501.8 778.762 1501.63 778.215 1501.45C769.177 1498.45 758.757 1487.51 758.609 1475.9C758.609 1475.9 846.796 1474.75 865.229 1477.6C874.737 1479.06 877.582 1485.71 879.55 1490.31Z" fill="#D86713"/>
<path d="M770.203 1481.04C770.921 1475.92 787.85 1355.7 790.478 1344.99C792.783 1335.6 806.414 1326.24 810.832 1323.42L812.588 1323.26L812.591 1323.25L814.067 1323.11C813.884 1323.23 794.548 1335.01 792.006 1345.36C789.394 1356 771.937 1480 771.763 1481.25C771.75 1481.35 771.27 1493.33 781.206 1502.26L779.882 1501.94C779.318 1501.8 778.764 1501.63 778.217 1501.45C768.882 1492.19 770.138 1481.51 770.203 1481.04Z" fill="#D86713"/>
<path d="M824.482 1345.09C826.436 1332.25 834.339 1324.27 838.68 1320.76L841.701 1320.47C838.916 1322.35 828.302 1330.43 826.036 1345.32C823.38 1362.79 813.001 1489.7 812.897 1490.98L812.89 1491.07L812.862 1491.16C812.842 1491.22 811.361 1498.07 815.632 1502.72L814.585 1502.73L813.554 1502.74C809.465 1497.75 811.083 1491.63 811.335 1490.77C811.658 1486.84 821.847 1362.42 824.482 1345.09Z" fill="#D86713"/>
<path d="M860.544 1344.38C863.024 1328.08 873.843 1320.6 876.145 1319.19C876.365 1319.25 876.585 1319.31 876.804 1319.39L878.176 1319.86C878.094 1319.91 874.078 1322.17 870.617 1326.1C867.158 1330.03 863.395 1336.08 862.1 1344.61C859.444 1362.07 851.215 1488.56 851.131 1489.83L851.127 1489.93L851.097 1490.02C851.077 1490.09 850.715 1497.83 854.985 1502.48L852.358 1502.49C849.094 1498.24 849.296 1490.55 849.568 1489.64C849.832 1485.6 857.908 1361.7 860.544 1344.38Z" fill="#D86713"/>
<path d="M91.4744 1485.99C93.4814 1492.75 102.759 1497.27 104.008 1505.55C104.986 1511.97 108.216 1516.12 111.725 1517.66H136.615C137.205 1516.08 137.957 1512.15 131.614 1510.76C123.585 1509 120.565 1499.27 121.063 1490.25C121.274 1486.46 121.173 1482.15 120.987 1478.41C120.734 1473.24 120.312 1469.19 120.312 1469.19L103.257 1465.17L101.469 1467.47L99.7494 1469.68C99.7494 1469.68 89.4664 1479.21 91.4744 1485.99Z" fill="#233862"/>
<path d="M227.411 1517.66H285.962C285.279 1515.54 283.213 1512.21 277.039 1511.21C268.047 1509.76 252.469 1504.53 248.994 1493.04C248.884 1492.67 248.783 1492.3 248.699 1491.91C245.941 1479.62 225.884 1495.67 225.884 1495.67C225.884 1495.67 225.825 1496.16 225.741 1496.99C225.294 1501.29 224.188 1514.8 227.411 1517.66Z" fill="#233862"/>
<path d="M274.653 1189.33C274.653 1189.33 271.606 1227.34 268.025 1273.04C263.158 1335.11 257.305 1411.35 256.726 1425.8C255.725 1450.88 251.709 1491 251.709 1491C251.709 1491 242.184 1500.53 223.121 1496.51C223.121 1496.51 206.133 1439.24 201.28 1378.64C201.205 1377.65 201.13 1376.65 201.055 1375.65C196.541 1313.96 189.521 1184.06 189.521 1184.06L274.653 1189.33Z" fill="#2B478B"/>
<path d="M274.653 1189.33C274.653 1189.33 271.606 1227.34 268.025 1273.04L201.281 1378.64C201.206 1377.65 201.13 1376.65 201.055 1375.65C196.541 1313.96 189.522 1184.06 189.522 1184.06L274.653 1189.33Z" fill="#233862"/>
<path d="M260.739 1193.84C260.739 1193.84 205.821 1331.51 169.711 1396.21C133.601 1460.91 122.316 1478.96 122.316 1478.96C122.316 1478.96 101.628 1470.69 99.7466 1465.05C99.7466 1465.05 113.556 1340.14 137.739 1309.7C151.404 1292.49 167.455 1240.86 168.207 1222.81C168.959 1204.75 173.097 1169.02 173.097 1169.02L260.739 1193.84Z" fill="#2B478B"/>
<path d="M316.277 1155.83L319.416 1162.09C319.416 1162.09 335.379 1164.32 330.985 1180.96C330.985 1180.96 328.618 1187.81 324.216 1185.64C319.814 1183.48 321.983 1183.66 315.674 1180.74C309.365 1177.83 305.715 1172.23 307.125 1167.09L306.115 1161.64L316.277 1155.83Z" fill="#AB7041"/>
<path d="M232.573 981.333C235.014 966.916 235.089 958.371 235.089 958.371L207.225 935.915C208.26 966.793 188.474 981.641 188.474 981.641C188.474 981.641 225.606 999.918 247.068 993.148C247.068 993.148 241.785 986.395 232.573 981.333Z" fill="#9C5F33"/>
<path d="M241.653 957.861C241.653 957.861 206.206 963.75 202.878 941.618C199.55 919.487 192.734 905.341 215.226 900.646C237.718 895.95 243.395 903.733 246.302 910.849C249.21 917.967 250.789 955.759 241.653 957.861Z" fill="#AB7041"/>
<path d="M203.111 943.145C203.111 943.145 203.826 913.5 236.124 908.741C258.247 905.482 244.85 886.996 242.32 884.068C242.32 884.068 225.408 887.295 208.099 891.094C171.771 899.069 199.272 938.737 203.111 943.145Z" fill="#233862"/>
<path d="M312.557 1164.53C317.295 1159.67 320.814 1153.34 320.814 1153.34C320.814 1153.34 280.539 1103.3 277.265 1098.11C273.991 1092.92 249.531 1009.69 249.531 1009.69L187.675 997.161C187.675 997.161 239.306 1103.68 247.859 1116.67C261.994 1138.12 304.278 1170.06 304.278 1170.06C304.278 1170.06 308.835 1168.35 312.557 1164.53Z" fill="#74ACBE"/>
<path d="M277.022 1192.49C276.376 1193.03 275.626 1193.35 274.766 1193.35C266.707 1193.24 243.207 1197.72 223.322 1195.68C206.559 1194.07 191.721 1189.1 175.787 1181.96C173.672 1181.01 168.801 1178.41 168.911 1176.05C168.982 1173.46 169.24 1169.7 169.562 1164.97C170.69 1148.53 172.656 1120.24 170.739 1087.6C170.394 1081.53 170.214 1075.5 170.191 1069.56C170.027 1025.33 178.714 985.817 196.338 972.65C197.844 971.571 207.168 976.702 215.66 980.89C223.505 984.76 231.351 985.188 238.764 983.687L246.177 990.241C255.204 998.623 265.092 1010.02 269.39 1027.32C273.047 1042.04 275.194 1068.58 276.376 1096.1C276.913 1108.56 277.345 1121.14 277.455 1133.07V1133.49C277.559 1134.68 277.559 1135.97 277.559 1137.15C277.991 1167.78 277.558 1192.06 277.022 1192.49Z" fill="#9ED9F0"/>
<path d="M169.562 1164.97C170.691 1148.53 172.657 1120.24 170.74 1087.6C170.395 1081.53 170.214 1075.5 170.191 1069.56C177.533 1051.75 183.534 1038.84 183.534 1038.84H202.039C202.039 1038.84 215.605 1131.5 169.562 1164.97Z" fill="#74ACBE"/>
<path d="M26.0617 1250.03L40.4287 1203.8C44.7437 1189.92 59.6327 1182.09 73.5157 1186.4L180.186 1219.56C194.069 1223.87 201.897 1238.76 197.582 1252.64L183.215 1298.87C178.901 1312.75 164.012 1320.58 150.129 1316.27L43.4587 1283.11C29.5757 1278.8 21.7477 1263.91 26.0617 1250.03Z" fill="#D86713"/>
<path d="M11.8455 1246.17L26.3785 1199.4C30.7055 1185.46 45.6505 1177.61 59.5845 1181.94L96.2485 1193.33L99.3435 1183.36C100.777 1178.75 105.694 1176.17 110.308 1177.59L112.4 1178.24L131.478 1184.17L142.164 1187.5C144.391 1188.2 146.221 1189.71 147.309 1191.79C148.397 1193.86 148.624 1196.23 147.924 1198.46L144.829 1208.43L166.067 1215.03C166.885 1215.29 167.677 1215.57 168.445 1215.9C168.453 1215.9 168.462 1215.91 168.471 1215.91C168.479 1215.91 168.479 1215.92 168.488 1215.92C168.521 1215.94 168.564 1215.95 168.598 1215.97C180.929 1221.22 187.592 1235.17 183.527 1248.24L168.994 1295.01C165.249 1307.06 153.55 1314.57 141.447 1313.56C141.439 1313.56 141.439 1313.56 141.431 1313.56C139.55 1313.41 137.66 1313.05 135.788 1312.47L135.738 1312.45L29.3055 1279.37C15.3705 1275.05 7.51045 1260.1 11.8455 1246.17ZM139.591 1206.8L142.686 1196.83C143.226 1195.11 142.256 1193.27 140.535 1192.74L130.153 1189.51L112.407 1184L108.679 1182.84C108.358 1182.74 108.029 1182.69 107.709 1182.69C106.317 1182.69 105.019 1183.59 104.588 1184.99L101.484 1194.96L139.591 1206.8Z" fill="#F1A34F"/>
<path d="M133.56 1170.73L130.047 1176.79C130.047 1176.79 136.93 1191.36 120.603 1196.81C120.603 1196.81 113.579 1198.58 112.978 1193.71C112.378 1188.84 113.413 1190.76 112.394 1183.88C111.374 1177.01 114.059 1170.88 119.13 1169.24L123.132 1165.42L133.56 1170.73Z" fill="#AB7041"/>
<path d="M124.247 1172.39C130.911 1173.69 138.134 1173.16 138.134 1173.16C138.134 1173.16 157.917 1112.05 160.463 1106.47C163.01 1100.88 219.224 1034.81 219.224 1034.81L195.805 976.204C195.805 976.204 135.003 1077.77 128.83 1092.04C118.628 1115.62 115.086 1168.49 115.086 1168.49C115.086 1168.49 119.014 1171.37 124.247 1172.39Z" fill="#9ED9F0"/>
<path d="M625.834 1511.13C626.096 1514.03 626.677 1516.55 627.799 1517.66H683.187C682.867 1515.99 681.366 1511.75 674.398 1510.77C665.66 1509.54 650.251 1504.68 647.425 1493.2C644.591 1481.72 626.077 1497.17 626.077 1497.17C626.077 1497.17 625.269 1505.01 625.834 1511.13Z" fill="#D86713"/>
<path d="M576.933 1517.66H634.396C633.409 1515.81 630.963 1512.44 625.835 1511.13C625.262 1510.98 624.655 1510.86 624.014 1510.77C615.267 1509.54 599.866 1504.68 597.032 1493.2C594.198 1481.72 575.684 1497.17 575.684 1497.17C575.684 1497.17 574.014 1513.22 576.933 1517.66Z" fill="#D86713"/>
<path d="M601.889 1207.35C601.889 1207.35 601.933 1209.43 602.014 1213.16C602.533 1237.2 604.588 1330.17 606.537 1382C606.619 1383.89 606.687 1385.72 606.756 1387.49C606.793 1388.43 606.831 1389.37 606.868 1390.3C608.037 1415.36 611.435 1439.9 614.871 1459.52C619.251 1484.54 623.698 1501.59 623.698 1501.59C640.393 1504.97 651.213 1498.62 651.213 1498.62C651.213 1498.62 655.714 1459.78 657.427 1436.27C657.989 1428.64 660.737 1402.62 664.186 1370.96C666.86 1346.48 669.952 1318.62 672.788 1293.29C672.938 1291.94 673.082 1290.59 673.238 1289.26C677.818 1248.3 681.609 1214.94 681.609 1214.94L652.092 1212.13L601.889 1207.35Z" fill="#2B478B"/>
<path d="M614.871 1459.52L664.186 1370.96C666.86 1346.48 669.952 1318.62 672.788 1293.29C672.938 1291.94 673.082 1290.59 673.238 1289.26C677.818 1248.3 681.609 1214.94 681.609 1214.94L652.092 1212.13L602.015 1213.16L614.871 1459.52Z" fill="#233862"/>
<path d="M676.154 1215.16C676.154 1215.16 648.562 1351.56 626.079 1417.39C603.596 1483.22 603.315 1501.5 603.315 1501.5C603.315 1501.5 582.685 1505.98 573.596 1500.78C573.596 1500.78 568.402 1375.99 582.006 1342.85C591.004 1320.93 597.887 1274.27 595.548 1257.47C593.209 1240.66 591.025 1206.96 591.025 1206.96L676.154 1215.16Z" fill="#2B478B"/>
<path d="M642.653 1032.06L611.971 1023.41C611.971 1023.41 617.179 1010.66 618.988 997.366C619.989 989.988 619.948 982.449 617.383 976.825C617.231 976.474 617.058 976.129 616.88 975.794C615.711 973.609 616.423 972.608 617.983 972.364C620.767 971.917 626.249 973.873 628.565 975.804C632.086 978.74 649.045 987.353 649.929 987.805C649.955 987.815 649.965 987.82 649.965 987.82C649.965 987.82 649.991 987.947 650.026 988.186L650.031 988.207C650.127 988.802 650.315 990.056 650.498 991.804C651.357 999.987 652.088 1019.01 642.653 1032.06Z" fill="#D9935C"/>
<path d="M598.366 1222.46C604.888 1227.08 615.164 1228.74 626.484 1228.57C639.703 1228.36 654.333 1225.63 666.028 1222.13C672.318 1220.25 677.754 1218.15 681.677 1216.11C699.15 1206.99 696.67 1194.87 696.252 1149.47C695.827 1103.13 667.312 1043.24 662.177 1033.21C653.037 1015.37 612.035 1021.95 612.035 1021.95C603.039 1026.26 599.84 1040.64 598.966 1059.42C597.992 1080.27 599.884 1106.57 599.884 1130.56C599.884 1150.39 596.141 1167.92 593.418 1182.45C589.888 1201.33 588.07 1215.16 598.366 1222.46Z" fill="#F1A34F"/>
<path opacity="0.4" d="M593.418 1182.45C601.308 1199.08 616.845 1217.79 626.484 1228.57C639.703 1228.36 654.333 1225.63 666.028 1222.13C670.95 1210.35 673.106 1190.68 668.558 1158.21C665.091 1133.46 639.822 1033.9 639.822 1033.9C619.419 1031.23 606.73 1042.35 598.966 1059.42C597.992 1080.27 599.884 1106.57 599.884 1130.56C599.884 1150.39 596.141 1167.92 593.418 1182.45Z" fill="#D86713"/>
<path d="M601.632 1261.58H620.156V1255.82C620.156 1246.27 627.931 1238.49 637.487 1238.49H652.818C662.375 1238.49 670.149 1246.27 670.149 1255.82V1261.58H688.674C694.234 1261.58 698.782 1266.13 698.782 1271.69V1318.86C698.782 1324.42 694.234 1328.97 688.674 1328.97H601.631C596.071 1328.97 591.523 1324.42 591.523 1318.86V1271.69C591.524 1266.13 596.072 1261.58 601.632 1261.58ZM663.279 1255.82C663.279 1250.05 658.587 1245.36 652.818 1245.36H637.487C631.719 1245.36 627.026 1250.05 627.026 1255.82V1261.58H663.279V1255.82Z" fill="#D6716B"/>
<path d="M650.459 1226.89C650.459 1226.89 661.13 1247.47 655.795 1255.47C650.459 1263.48 631.404 1253.19 629.879 1248.61C628.355 1244.04 629.879 1221.93 629.879 1221.93L650.459 1226.89Z" fill="#DA935B"/>
<path d="M604.814 1065.91C604.814 1065.91 608.785 1122.55 608.734 1145.98C608.684 1169.41 627.327 1231.72 627.327 1231.72C627.327 1231.72 639.666 1232.71 644.507 1232.09C650.085 1231.37 653.409 1228.81 653.409 1228.81C653.409 1228.81 649.314 1155.18 657.127 1126.96C664.939 1098.74 665.351 1042.06 665.351 1042.06C665.351 1042.06 661.011 1029.83 635.033 1033.69C604.213 1038.27 604.814 1065.91 604.814 1065.91Z" fill="#F1A34F"/>
<path d="M617.646 995.896C617.646 995.896 610.654 1018 612.034 1021.95C612.034 1021.95 649.961 1027.06 665.35 1042.06C665.35 1042.06 660.349 1020.52 654.193 1015.13C648.039 1009.74 617.646 995.896 617.646 995.896Z" fill="#F1A34F"/>
<path d="M650.965 991.802C650.965 991.802 650.803 991.802 650.497 991.802C647.057 991.776 625.622 991.848 619.601 996.939C619.383 997.122 619.179 997.264 618.986 997.366C619.987 989.988 619.946 982.449 617.381 976.825C617.599 975.103 617.808 973.563 617.981 972.364C620.765 971.917 626.247 973.873 628.563 975.804C632.084 978.74 649.043 987.353 649.927 987.805L650.024 988.185L650.029 988.206L650.965 991.802Z" fill="#CB8757"/>
<path d="M664.306 990.441C664.306 990.441 628.85 997.228 624.963 975.082C621.076 952.937 613.882 938.898 636.356 933.629C658.83 928.36 664.723 936.036 667.818 943.112C670.914 950.188 673.429 988.104 664.306 990.441Z" fill="#D9935C"/>
<path d="M618.578 984.705C618.578 984.705 620.422 983.299 613.244 972.42C606.066 961.54 602.661 964.525 602.572 952.932C602.484 941.338 598.17 934.377 611.624 926.83C625.079 919.283 622.936 912.291 631.008 910.618C639.08 908.945 650.821 915.597 657.747 914.197C664.674 912.796 686.375 941.04 672.475 947.724C672.475 947.724 666.018 948.045 661.483 945.25C656.949 942.454 640.308 939.626 638.362 944.685C636.417 949.744 625.877 980.796 618.578 984.705Z" fill="#233862"/>
<path d="M1158.27 1222.46C1158.27 1222.46 1133.09 1211 1114.03 1221.03C1094.97 1231.06 1106.62 1313.85 1133.87 1321.87C1133.87 1321.87 1192.38 1392.99 1158.27 1222.46Z" fill="#233862"/>
<path d="M1202.88 1232.06C1204.12 1222.37 1201.7 1204.81 1201.7 1204.81C1201.7 1204.81 1210.26 1204.37 1215.05 1215.65C1224.98 1239.02 1220.67 1289.48 1220.07 1296.7C1220.07 1296.7 1223.48 1311.04 1218.41 1335.85C1219.16 1337.61 1220.17 1339.89 1220.77 1340.81C1220.86 1340.91 1220.94 1341.02 1221.02 1341.13C1221.63 1342.06 1221.69 1343.31 1221.06 1344.31L1217.78 1349.51C1217.47 1350 1217.03 1350.36 1216.54 1350.59C1216.37 1350.67 1216.2 1350.73 1216.03 1350.77L1211.97 1351.73L1211.57 1337.88C1211.57 1337.88 1211.6 1337.89 1211.61 1337.89C1210.22 1324.33 1201.74 1240.95 1202.88 1232.06ZM1213.37 1338.89L1213.46 1338.78L1213.29 1338.88C1213.33 1338.89 1213.36 1338.91 1213.37 1338.89Z" fill="#A05F32"/>
<path d="M1130.34 1505.97L1133.58 1517.66H1160.93C1160.93 1517.66 1169.07 1502.72 1130.34 1505.97Z" fill="#AA413E"/>
<path d="M1188.99 1505.97L1192.23 1517.66H1219.58C1219.58 1517.66 1227.72 1502.72 1188.99 1505.97Z" fill="#AA413E"/>
<path d="M1139.63 1134.86C1143.04 1129.58 1147.83 1129.35 1152.44 1124.87C1156.77 1120.66 1164.85 1117.89 1171.28 1117.89C1191.86 1117.89 1209.69 1130.49 1205.62 1151.86C1204.33 1158.65 1205.42 1163.99 1199.92 1171.93C1193.05 1181.83 1184.7 1189.78 1171.29 1189.78C1164.17 1189.78 1157.93 1188.14 1152.44 1182.95C1149.45 1180.13 1145.16 1179.78 1142.53 1176.7C1137.22 1170.49 1137.61 1162.3 1135.66 1153.84C1133.87 1146.09 1136.08 1140.37 1139.63 1134.86Z" fill="#2B478B"/>
<path d="M1185.56 1179.14C1185.56 1179.14 1181.05 1196.59 1190.18 1204.01L1164.52 1217.12L1161.15 1200.16C1161.15 1200.16 1165.99 1186.9 1164.66 1168.44L1185.56 1179.14Z" fill="#A05F32"/>
<path d="M1186.22 1187.93C1186.22 1187.93 1159.97 1191.13 1159.41 1172.63C1158.85 1154.13 1169.79 1142.15 1177.09 1142.29C1191.66 1142.56 1194.06 1148.45 1195.75 1154.58C1197.44 1160.7 1198.31 1186.62 1186.22 1187.93Z" fill="#AF7041"/>
<path d="M1211.27 1327.73L1159.39 1332.01C1159.39 1332.01 1153.29 1423.02 1187.38 1507.38C1187.38 1507.38 1191.68 1509 1202.93 1509C1210.8 1509 1216.46 1506.82 1216.46 1506.82L1211.27 1327.73Z" fill="#233862"/>
<path d="M1130.75 1332.95C1130.75 1332.95 1114.79 1394.97 1127.74 1508.15C1127.74 1508.15 1134.47 1510.34 1144.73 1510.26C1155.84 1510.18 1162.95 1508.16 1162.95 1508.16L1179.84 1361.22C1180.49 1356.87 1188.99 1334.02 1188.99 1334.02L1130.75 1332.95Z" fill="#2B478B"/>
<path d="M1129.58 1240.98L1126.18 1213.11C1126.7 1212.39 1127.11 1211.78 1127.62 1211.16C1133.59 1203.86 1156.52 1200.67 1161.15 1200.16C1161.35 1200.36 1171.94 1209.1 1179.55 1208.07C1186.03 1207.25 1187.14 1203.81 1186.94 1200.11C1200.51 1202.37 1208.18 1206.69 1208.18 1206.69C1222 1211.87 1224.78 1257.81 1224.78 1257.81C1222.95 1257.27 1213.77 1258.87 1209.51 1259.67L1211.22 1327.77C1178.22 1342.17 1130.71 1332.91 1130.71 1332.91L1130.81 1332.5L1134 1278L1131.02 1253.12L1129.58 1240.98Z" fill="white"/>
<path d="M1179.2 1177.27C1179.2 1177.27 1179.77 1179.57 1185.52 1179.15C1185.52 1179.15 1190.35 1178.79 1190.17 1176.25C1190.17 1176.25 1185.47 1174.5 1179.2 1177.27Z" fill="white"/>
<path d="M1150.74 1330.7C1148.49 1333.51 1137.4 1334.99 1130.75 1332.95L1134.02 1278.04L1129.57 1241.02L1133.87 1239.02C1133.87 1239.02 1152.76 1254.18 1150.56 1266.26C1148.35 1278.34 1153.62 1327.09 1150.74 1330.7Z" fill="#9ED9F0"/>
<path d="M1110.14 1243.76C1110.14 1243.76 1126.06 1248.81 1131.73 1253.55C1132.84 1254.48 1132.46 1254.09 1133.1 1254.56L1153.54 1215.38L1157.34 1207.87L1160.84 1200.77L1161.15 1200.16C1161.15 1200.16 1160.84 1200.16 1160.32 1200.26C1158.37 1200.46 1153.54 1201.08 1147.98 1202.32C1144.49 1203.14 1140.68 1204.06 1137.29 1205.4H1137.19C1133.07 1206.94 1129.58 1208.9 1127.62 1211.16C1127.11 1211.78 1126.7 1212.39 1126.18 1213.11C1119.5 1222.68 1110.14 1243.76 1110.14 1243.76Z" fill="white"/>
<path d="M1131.63 1317.49C1131.63 1317.49 1202.69 1241.5 1157.34 1207.87C1154.67 1205.81 1151.58 1203.96 1147.98 1202.32C1144.49 1203.14 1140.68 1204.07 1137.29 1205.4C1140.99 1206.43 1147.98 1209.1 1153.54 1215.38C1164.54 1227.61 1169.68 1253.63 1132.25 1307.82L1131.63 1317.49Z" fill="#2B478B"/>
<path d="M1183.59 1142.46C1183.59 1142.46 1161.15 1142.45 1166.31 1157.85C1169.56 1167.56 1158.76 1169.07 1158.76 1169.07C1158.76 1169.07 1154.07 1157.58 1153.56 1153.51C1153.16 1150.39 1154.28 1143.24 1156.81 1141.38C1162.21 1137.41 1183.59 1142.46 1183.59 1142.46Z" fill="#2B478B"/>
<path d="M1110.53 1243.9C1117.46 1246.04 1128.54 1250.42 1131.73 1253.55C1128.2 1261.66 1125.88 1267.31 1125.88 1267.31C1128.53 1266.13 1142.24 1265.02 1149.34 1264.51C1150.15 1264.45 1156.65 1262.32 1156.65 1262.32C1156.65 1262.32 1156.7 1251.22 1169.39 1250.34C1169.39 1250.34 1174.68 1250.38 1173.6 1253.99C1172.51 1257.59 1172.4 1256.03 1170.98 1261.15C1169.57 1266.28 1165.88 1270.18 1161.96 1270.41C1143.11 1286.26 1117.17 1286.39 1109.34 1286.02C1107.95 1285.96 1106.75 1284.98 1106.44 1283.62C1103.47 1270.75 1105.24 1257.39 1110.53 1243.9Z" fill="#A05F32"/>
</svg>
