<svg width="108" height="108" viewBox="0 0 108 108" fill="none" xmlns="http://www.w3.org/2000/svg">
<path fill-rule="evenodd" clip-rule="evenodd" d="M8.47463 99.5254C16.2933 107.333 28.8586 107.333 54 107.333C79.1413 107.333 91.712 107.333 99.52 99.5201C107.333 91.7174 107.333 79.1414 107.333 54.0001C107.333 28.8587 107.333 16.2881 99.52 8.47475C91.7173 0.666748 79.1413 0.666748 54 0.666748C28.8586 0.666748 16.288 0.666748 8.47463 8.47475C0.666626 16.2934 0.666626 28.8587 0.666626 54.0001C0.666626 79.1414 0.666626 91.7174 8.47463 99.5254ZM90 75.3334C90 76.3943 89.5785 77.4117 88.8284 78.1618C88.0782 78.912 87.0608 79.3334 86 79.3334H22C20.9391 79.3334 19.9217 78.912 19.1715 78.1618C18.4214 77.4117 18 76.3943 18 75.3334C18 74.2726 18.4214 73.2551 19.1715 72.505C19.9217 71.7548 20.9391 71.3334 22 71.3334H86C87.0608 71.3334 88.0782 71.7548 88.8284 72.505C89.5785 73.2551 90 74.2726 90 75.3334ZM86 58.0001C87.0608 58.0001 88.0782 57.5787 88.8284 56.8285C89.5785 56.0784 90 55.0609 90 54.0001C90 52.9392 89.5785 51.9218 88.8284 51.1717C88.0782 50.4215 87.0608 50.0001 86 50.0001H22C20.9391 50.0001 19.9217 50.4215 19.1715 51.1717C18.4214 51.9218 18 52.9392 18 54.0001C18 55.0609 18.4214 56.0784 19.1715 56.8285C19.9217 57.5787 20.9391 58.0001 22 58.0001H86ZM90 32.6667C90 33.7276 89.5785 34.745 88.8284 35.4952C88.0782 36.2453 87.0608 36.6667 86 36.6667H22C20.9391 36.6667 19.9217 36.2453 19.1715 35.4952C18.4214 34.745 18 33.7276 18 32.6667C18 31.6059 18.4214 30.5885 19.1715 29.8383C19.9217 29.0882 20.9391 28.6667 22 28.6667H86C87.0608 28.6667 88.0782 29.0882 88.8284 29.8383C89.5785 30.5885 90 31.6059 90 32.6667Z" fill="#0BAC74"/>
</svg>
