<svg width="192" height="140" viewBox="0 0 192 140" fill="none" xmlns="http://www.w3.org/2000/svg">
<path d="M181.448 110.66H10.26C4.59401 110.66 0 115.254 0 120.92V120.925C0 126.592 4.59401 131.185 10.26 131.185H181.448C187.114 131.185 191.708 126.591 191.708 120.925V120.92C191.708 115.253 187.114 110.66 181.448 110.66Z" fill="#72B100"/>
<path d="M181.448 108.775H10.26C4.59401 108.775 0 113.368 0 119.035V119.04C0 124.706 4.59401 129.3 10.26 129.3H181.448C187.114 129.3 191.708 124.706 191.708 119.04V119.035C191.708 113.368 187.114 108.775 181.448 108.775Z" fill="#A6DE00"/>
<path d="M172.022 119.698H19.686C14.152 119.698 9.66602 124.184 9.66602 129.718C9.66602 135.252 14.152 139.738 19.686 139.738H172.022C177.556 139.738 182.042 135.252 182.042 129.718C182.042 124.184 177.556 119.698 172.022 119.698Z" fill="#646F91"/>
<path d="M172.022 117.858H19.686C14.152 117.858 9.66602 122.344 9.66602 127.878C9.66602 133.412 14.152 137.898 19.686 137.898H172.022C177.556 137.898 182.042 133.412 182.042 127.878C182.042 122.344 177.556 117.858 172.022 117.858Z" fill="#8695C2"/>
<path d="M168.431 133.669H23.277C22.675 133.669 22.187 134.157 22.187 134.759V134.765C22.187 135.367 22.675 135.855 23.277 135.855H168.43C169.032 135.855 169.52 135.367 169.52 134.765V134.759C169.521 134.157 169.033 133.669 168.431 133.669Z" fill="#FFD900"/>
<path d="M116.555 24.54H75.153V32.201H116.555V24.54Z" fill="#9E866D"/>
<path d="M116.555 24.54H75.153V27.2831H116.555V24.54Z" fill="#B5B5B5"/>
<path d="M114.068 26.2791H112.058V28.289H114.068V26.2791Z" fill="#B5B5B5"/>
<path d="M111.167 26.2791H109.157V28.289H111.167V26.2791Z" fill="#B5B5B5"/>
<path d="M108.267 26.2791H106.257V28.289H108.267V26.2791Z" fill="#B5B5B5"/>
<path d="M105.367 26.2791H103.357V28.289H105.367V26.2791Z" fill="#B5B5B5"/>
<path d="M118.389 20.874H73.3199V24.54H118.389V20.874Z" fill="#F13328"/>
<path d="M105.522 14.511H86.187V20.875H105.522V14.511Z" fill="#FFD900"/>
<path d="M92.55 14.511H86.187V20.875H92.55V14.511Z" fill="#FF9D00"/>
<path d="M96.317 2.21899H95.549V14.51H96.317V2.21899Z" fill="#33496D"/>
<path d="M120.372 7.34405C112.353 15.031 104.334 -0.342954 96.3159 7.34405C96.3159 5.63605 96.3159 3.92705 96.3159 2.21905C104.334 -5.46795 112.353 9.90605 120.372 2.21905C120.372 3.92805 120.372 5.63605 120.372 7.34405Z" fill="#FFD900"/>
<path d="M120.372 4.34405C112.353 12.031 104.334 -3.34295 96.3159 4.34405C96.3159 2.63605 96.3159 3.92705 96.3159 2.21905C104.334 -5.46795 112.353 9.90605 120.372 2.21905C120.372 3.92805 120.372 2.63605 120.372 4.34405Z" fill="#F13328"/>
<path d="M142.673 32.201H49.035V125.165H142.673V32.201Z" fill="#9E866D"/>
<path d="M107.627 77.082H84.082V87.731H107.627V77.082Z" fill="#FAF0DC"/>
<path d="M106.627 86.7303V78.0813H85.0807V86.7303H106.627Z" fill="#3596D9"/>
<path opacity="0.6" d="M102.475 78.082H101.233C98.358 80.963 95.487 83.848 92.615 86.731H93.826L102.475 78.082Z" fill="#3596D9"/>
<path opacity="0.6" d="M99.222 86.731H106.627V79.326L99.222 86.731Z" fill="#3596D9"/>
<path opacity="0.6" d="M95.8471 78.082H85.0811V86.731H87.2281C90.1001 83.846 92.9731 80.964 95.8471 78.082Z" fill="#3596D9"/>
<path d="M90.516 86.7309V78.0819H89.916V86.7309H90.516Z" fill="#FAF0DC"/>
<path d="M142.673 118.759H49.035V125.165H142.673V118.759Z" fill="#304466"/>
<path d="M142.678 32.201H49.0381V37.151H142.678V32.201Z" fill="#BD231D"/>
<path d="M142.673 88.7311H49.035V91.2081H142.673V88.7311Z" fill="#B5B5B5"/>
<path d="M142.673 104.407H49.035V106.884H142.673V104.407Z" fill="#B5B5B5"/>
<path d="M142.673 72.5031H49.035V74.98H142.673V72.5031Z" fill="#B5B5B5"/>
<path d="M142.673 56.275H49.035V58.752H142.673V56.275Z" fill="#B5B5B5"/>
<path d="M142.673 87.7311H49.035V90.2081H142.673V87.7311Z" fill="#EBD6C3"/>
<path d="M142.673 103.407H49.035V105.884H142.673V103.407Z" fill="#EBD6C3"/>
<path d="M63.138 77.082H56.17V87.731H63.138V77.082Z" fill="#FAF0DC"/>
<path d="M62.1375 86.7305V78.0815H57.1694V86.7305H62.1375Z" fill="#3596D9"/>
<path d="M59.6161 80.1581H56.3291V80.6551H59.6161V80.1581Z" fill="#FAF0DC"/>
<path d="M59.9025 86.7305V78.0815H59.4055V86.7305H59.9025Z" fill="#FAF0DC"/>
<path d="M63.138 92.7571H56.17V103.406H63.138V92.7571Z" fill="#FAF0DC"/>
<path d="M62.1382 102.406V93.7573H57.1702V102.406H62.1382Z" fill="#3596D9"/>
<path d="M59.6161 95.834H56.3291V96.331H59.6161V95.834Z" fill="#FAF0DC"/>
<path d="M59.9021 102.406V93.7573H59.4051V102.406H59.9021Z" fill="#FAF0DC"/>
<path d="M63.138 108.11H56.17V118.759H63.138V108.11Z" fill="#FAF0DC"/>
<path d="M62.1377 117.759V109.11H57.1697V117.759H62.1377Z" fill="#3596D9"/>
<path d="M59.6161 111.186H56.3291V111.683H59.6161V111.186Z" fill="#FAF0DC"/>
<path d="M59.9027 117.759V109.11H59.4057V117.759H59.9027Z" fill="#FAF0DC"/>
<path d="M73.3201 77.082H66.3521V87.731H73.3201V77.082Z" fill="#FAF0DC"/>
<path d="M72.3191 86.731V78.082H67.3511V86.731H72.3191Z" fill="#3596D9"/>
<path d="M69.798 80.1581H66.511V80.6551H69.798V80.1581Z" fill="#FAF0DC"/>
<path d="M70.084 86.731V78.082H69.587V86.731H70.084Z" fill="#FAF0DC"/>
<path d="M73.3201 92.7571H66.3521V103.406H73.3201V92.7571Z" fill="#FAF0DC"/>
<path d="M72.3198 102.407V93.7577H67.3518V102.407H72.3198Z" fill="#3596D9"/>
<path d="M69.798 95.834H66.511V96.331H69.798V95.834Z" fill="#FAF0DC"/>
<path d="M70.0839 102.407V93.7577H69.5869V102.407H70.0839Z" fill="#FAF0DC"/>
<path d="M73.3201 108.11H66.3521V118.759H73.3201V108.11Z" fill="#FAF0DC"/>
<path d="M72.3195 117.759V109.11H67.3515V117.759H72.3195Z" fill="#3596D9"/>
<path d="M69.798 111.186H66.511V111.683H69.798V111.186Z" fill="#FAF0DC"/>
<path d="M70.0845 117.759V109.11H69.5875V117.759H70.0845Z" fill="#FAF0DC"/>
<path d="M125.356 77.082H118.388V87.731H125.356V77.082Z" fill="#FAF0DC"/>
<path d="M124.356 86.7308V78.0818H119.388V86.7308H124.356Z" fill="#3596D9"/>
<path d="M121.835 80.1581H118.548V80.6551H121.835V80.1581Z" fill="#FAF0DC"/>
<path d="M122.121 86.7308V78.0818H121.624V86.7308H122.121Z" fill="#FAF0DC"/>
<path d="M125.356 92.7571H118.388V103.406H125.356V92.7571Z" fill="#FAF0DC"/>
<path d="M124.357 102.407V93.7576H119.389V102.407H124.357Z" fill="#3596D9"/>
<path d="M121.835 95.834H118.548V96.331H121.835V95.834Z" fill="#FAF0DC"/>
<path d="M122.121 102.407V93.7576H121.624V102.407H122.121Z" fill="#FAF0DC"/>
<path d="M125.356 108.11H118.388V118.759H125.356V108.11Z" fill="#FAF0DC"/>
<path d="M124.357 117.759V109.11H119.389V117.759H124.357Z" fill="#3596D9"/>
<path d="M121.835 111.186H118.548V111.683H121.835V111.186Z" fill="#FAF0DC"/>
<path d="M122.122 117.759V109.11H121.625V117.759H122.122Z" fill="#FAF0DC"/>
<path d="M135.538 77.082H128.57V87.731H135.538V77.082Z" fill="#FAF0DC"/>
<path d="M134.538 86.7311V78.0822H129.57V86.7311H134.538Z" fill="#3596D9"/>
<path d="M132.017 80.1581H128.73V80.6551H132.017V80.1581Z" fill="#FAF0DC"/>
<path d="M132.303 86.7311V78.0822H131.806V86.7311H132.303Z" fill="#FAF0DC"/>
<path d="M107.627 60.854H84.082V71.503H107.627V60.854Z" fill="#FAF0DC"/>
<path d="M106.627 70.5018V61.8528L85.081 61.8528V70.5018H106.627Z" fill="#3596D9"/>
<path opacity="0.6" d="M92.375 61.853H85.082V69.146C87.512 66.715 89.943 64.284 92.375 61.853Z" fill="#3596D9"/>
<path opacity="0.6" d="M106.627 67.274V61.853H97.7701C94.8871 64.736 92.0041 67.619 89.1211 70.502H103.401C104.476 69.426 105.552 68.351 106.627 67.274Z" fill="#3596D9"/>
<path d="M90.5154 70.5024V61.8534H89.9154V70.5024H90.5154Z" fill="#FAF0DC"/>
<path d="M142.673 71.5031H49.035V73.98H142.673V71.5031Z" fill="#EBD6C3"/>
<path d="M63.138 60.854H56.17V71.503H63.138V60.854Z" fill="#FAF0DC"/>
<path d="M62.1378 70.502V61.853H57.1698V70.502H62.1378Z" fill="#3596D9"/>
<path d="M59.6161 63.9291H56.3291V64.4261H59.6161V63.9291Z" fill="#FAF0DC"/>
<path d="M59.9019 70.502V61.853H59.4049V70.502H59.9019Z" fill="#FAF0DC"/>
<path d="M73.3201 60.854H66.3521V71.503H73.3201V60.854Z" fill="#FAF0DC"/>
<path d="M72.3196 70.5024V61.8534H67.3516V70.5024H72.3196Z" fill="#3596D9"/>
<path d="M69.798 63.9291H66.511V64.4261H69.798V63.9291Z" fill="#FAF0DC"/>
<path d="M70.0845 70.5024V61.8534H69.5875V70.5024H70.0845Z" fill="#FAF0DC"/>
<path d="M125.356 60.854H118.388V71.503H125.356V60.854Z" fill="#FAF0DC"/>
<path d="M124.357 70.5023V61.8533H119.389V70.5023H124.357Z" fill="#3596D9"/>
<path d="M121.835 63.9291H118.548V64.4261H121.835V63.9291Z" fill="#FAF0DC"/>
<path d="M122.122 70.5023V61.8533H121.625V70.5023H122.122Z" fill="#FAF0DC"/>
<path d="M135.538 60.854H128.57V71.503H135.538V60.854Z" fill="#FAF0DC"/>
<path d="M134.538 70.5026V61.8536H129.57V70.5026H134.538Z" fill="#3596D9"/>
<path d="M132.017 63.9291H128.73V64.4261H132.017V63.9291Z" fill="#FAF0DC"/>
<path d="M132.302 70.5026V61.8536H131.805V70.5026H132.302Z" fill="#FAF0DC"/>
<path d="M107.627 44.625H84.082V55.274H107.627V44.625Z" fill="#FAF0DC"/>
<path d="M106.627 54.2739V45.6259L85.0812 45.6259V54.2739H106.627Z" fill="#3596D9"/>
<path opacity="0.6" d="M106.627 47.601V45.626H85.0811V54.274H99.9531C102.178 52.05 104.403 49.825 106.627 47.601Z" fill="#3596D9"/>
<path d="M90.5154 54.2735V45.6255H89.9154V54.2735H90.5154Z" fill="#FAF0DC"/>
<path d="M101.631 86.7313V78.0823H101.031V86.7313H101.631Z" fill="#FAF0DC"/>
<path d="M101.631 70.5026V61.8536H101.031V70.5026H101.631Z" fill="#FAF0DC"/>
<path d="M101.631 54.2737V45.6257H101.031V54.2737H101.631Z" fill="#FAF0DC"/>
<path d="M142.673 55.275H49.035V57.752H142.673V55.275Z" fill="#EBD6C3"/>
<path d="M142.673 38.175H49.035V40.652H142.673V38.175Z" fill="#B5B5B5"/>
<path d="M142.673 37.175H49.035V39.652H142.673V37.175Z" fill="#FFBB00"/>
<path d="M142.673 37.175H49.035V38.4041H142.673V37.175Z" fill="#B5B5B5"/>
<path d="M63.138 44.625H56.17V55.274H63.138V44.625Z" fill="#FAF0DC"/>
<path d="M62.1379 54.2741V45.6261H57.1699V54.2741H62.1379Z" fill="#3596D9"/>
<path d="M59.6161 47.701H56.3301V48.1981H59.6161V47.701Z" fill="#FAF0DC"/>
<path d="M59.9019 54.2741V45.6261H59.4049V54.2741H59.9019Z" fill="#FAF0DC"/>
<path d="M73.3201 44.625H66.3521V55.274H73.3201V44.625Z" fill="#FAF0DC"/>
<path d="M72.3196 54.2733V45.6254H67.3516V54.2733H72.3196Z" fill="#3596D9"/>
<path d="M69.797 47.701H66.511V48.1981H69.797V47.701Z" fill="#FAF0DC"/>
<path d="M70.0845 54.2733V45.6254H69.5875V54.2733H70.0845Z" fill="#FAF0DC"/>
<path d="M125.356 44.625H118.388V55.274H125.356V44.625Z" fill="#FAF0DC"/>
<path d="M124.357 54.2733V45.6252H119.389V54.2733H124.357Z" fill="#3596D9"/>
<path d="M121.834 47.701H118.548V48.1981H121.834V47.701Z" fill="#FAF0DC"/>
<path d="M122.122 54.2733V45.6252H121.625V54.2733H122.122Z" fill="#FAF0DC"/>
<path d="M135.538 44.625H128.57V55.274H135.538V44.625Z" fill="#FAF0DC"/>
<path d="M134.538 54.2736V45.6256H129.57V54.2736H134.538Z" fill="#3596D9"/>
<path d="M132.016 47.701H128.73V48.1981H132.016V47.701Z" fill="#FAF0DC"/>
<path d="M132.302 54.2736V45.6256H131.805V54.2736H132.302Z" fill="#FAF0DC"/>
<path d="M135.538 92.7571H128.57V103.406H135.538V92.7571Z" fill="#FAF0DC"/>
<path d="M134.539 102.407V93.7579H129.571V102.407H134.539Z" fill="#3596D9"/>
<path d="M132.017 95.834H128.73V96.331H132.017V95.834Z" fill="#FAF0DC"/>
<path d="M132.302 102.407V93.7579H131.805V102.407H132.302Z" fill="#FAF0DC"/>
<path d="M135.538 108.11H128.57V118.759H135.538V108.11Z" fill="#FAF0DC"/>
<path d="M134.538 117.76V109.111H129.57V117.76H134.538Z" fill="#3596D9"/>
<path d="M132.017 111.186H128.73V111.683H132.017V111.186Z" fill="#FAF0DC"/>
<path d="M132.303 117.76V109.111H131.806V117.76H132.303Z" fill="#FAF0DC"/>
<path opacity="0.5" d="M66.3521 95.1861H70.8911V103.406H73.3201V92.7571H66.3521V95.1861Z" fill="#B5B5B5"/>
<path opacity="0.5" d="M128.57 44.625V47.054H133.109V55.275H135.538V44.625H128.57Z" fill="#B5B5B5"/>
<path opacity="0.5" d="M66.3521 79.511H70.8911V87.731H73.3201V77.082H66.3521V79.511Z" fill="#B5B5B5"/>
<path opacity="0.5" d="M66.3521 63.282H70.8911V71.503H73.3201V60.854H66.3521V63.282Z" fill="#B5B5B5"/>
<path opacity="0.5" d="M56.17 47.054H60.709V55.275H63.138V44.625H56.17V47.054Z" fill="#B5B5B5"/>
<path opacity="0.5" d="M56.17 95.1861H60.709V103.406H63.138V92.7571H56.17V95.1861Z" fill="#B5B5B5"/>
<path opacity="0.5" d="M56.17 63.282H60.709V71.503H63.138V60.854H56.17V63.282Z" fill="#B5B5B5"/>
<path opacity="0.5" d="M66.3521 47.054H70.8911V55.275H73.3201V44.625H66.3521V47.054Z" fill="#B5B5B5"/>
<path opacity="0.5" d="M56.17 110.539H60.709V118.759H63.138V108.11H56.17V110.539Z" fill="#B5B5B5"/>
<path opacity="0.5" d="M56.17 79.511H60.709V87.731H63.138V77.082H56.17V79.511Z" fill="#B5B5B5"/>
<path opacity="0.5" d="M66.3521 110.539H70.8911V118.759H73.3201V108.11H66.3521V110.539Z" fill="#B5B5B5"/>
<path opacity="0.5" d="M128.57 79.511H133.109V87.731H135.538V77.082H128.57V79.511Z" fill="#B5B5B5"/>
<path opacity="0.5" d="M128.57 95.1861H133.109V103.406H135.538V92.7571H128.57V95.1861Z" fill="#B5B5B5"/>
<path opacity="0.5" d="M128.57 63.282H133.109V71.503H135.538V60.854H128.57V63.282Z" fill="#B5B5B5"/>
<path opacity="0.5" d="M128.57 110.539H133.109V118.759H135.538V108.11H128.57V110.539Z" fill="#B5B5B5"/>
<path opacity="0.5" d="M118.388 95.1861H122.928V103.406H125.357V92.7571H118.388V95.1861Z" fill="#B5B5B5"/>
<path opacity="0.5" d="M118.388 79.511H122.928V87.731H125.357V77.082H118.388V79.511Z" fill="#B5B5B5"/>
<path opacity="0.5" d="M118.388 47.054H122.928V55.275H125.357V44.625H118.388V47.054Z" fill="#B5B5B5"/>
<path opacity="0.5" d="M118.388 110.539H122.928V118.759H125.357V108.11H118.388V110.539Z" fill="#B5B5B5"/>
<path opacity="0.5" d="M118.388 63.282H122.928V71.503H125.357V60.854H118.388V63.282Z" fill="#B5B5B5"/>
<path d="M84.082 80.186H104.523V87.731H107.627V77.082H84.082V80.186Z" fill="#B5B5B5"/>
<path d="M84.082 44.625V47.729H104.523V55.275H107.627V44.625H84.082Z" fill="#B5B5B5"/>
<path d="M84.082 63.958H104.523V71.503H107.627V60.854H84.082V63.958Z" fill="#B5B5B5"/>
<path d="M95.854 98.389C93.156 98.389 90.969 100.576 90.969 103.274V112.321H100.74V103.274C100.739 100.577 98.552 98.389 95.854 98.389Z" fill="#ECF0F1"/>
<path d="M91.614 112.321V103.272C91.614 100.936 93.515 99.035 95.851 99.035C98.192 99.035 100.093 100.936 100.093 103.272V112.321H91.614Z" fill="#2980B9"/>
<path d="M99.206 101.986C99.379 101.844 99.56 101.712 99.734 101.572C99.077 100.081 97.586 99.036 95.851 99.036C93.515 99.036 91.614 100.937 91.614 103.273V108.863C94.038 106.445 96.581 104.131 99.206 101.986Z" fill="#3498DB"/>
<path d="M100.74 103.045H90.969V103.679H100.74V103.045Z" fill="#ECF0F1"/>
<path d="M96.195 98.6071H95.514V103.361H96.195V98.6071Z" fill="#ECF0F1"/>
<path d="M92.7288 99.7591L92.2473 100.241L95.6089 103.602L96.0904 103.121L92.7288 99.7591Z" fill="#ECF0F1"/>
<path d="M98.9708 99.7595L95.6093 103.121L96.0908 103.603L99.4524 100.241L98.9708 99.7595Z" fill="#ECF0F1"/>
<path d="M94.809 109.675C94.809 110.214 94.967 110.65 95.161 110.65C95.356 110.65 95.514 110.213 95.514 109.675C95.514 109.136 95.356 108.7 95.161 108.7C94.967 108.7 94.809 109.136 94.809 109.675Z" fill="#F1C40F"/>
<path d="M96.194 109.675C96.194 110.214 96.352 110.65 96.547 110.65C96.742 110.65 96.899 110.213 96.899 109.675C96.899 109.136 96.741 108.7 96.547 108.7C96.353 108.7 96.194 109.136 96.194 109.675Z" fill="#F1C40F"/>
<path d="M101.089 121.962V118.759H98.406V115.556H73.302V118.759H70.619V121.962H67.082V125.165H104.627V121.962H101.089Z" fill="#B5B5B5"/>
<path d="M76.1871 102.312H77.3131V109.266H76.7101V112.321H76.1881V115.524H95.5231V112.321H95.0001V109.266H94.3971V102.312H95.5231V101.049H103.101V92.4341H68.6111V101.049H76.1891V102.312H76.1871ZM91.1931 101.049V102.312H92.3191V109.266H91.7161V112.321H79.9941V109.266H79.3911V102.312H80.5171V101.049H91.1931Z" fill="#B5B5B5"/>
<path d="M114.627 121.962H77.082V125.165H114.627V121.962Z" fill="white"/>
<path d="M111.089 118.759H80.619V121.962H111.089V118.759Z" fill="#FAF2E1"/>
<path d="M108.407 115.556H83.302V118.759H108.407V115.556Z" fill="#EBD6C3"/>
<path d="M105.522 112.321H86.187V115.524H105.522V112.321Z" fill="#FAF2E1"/>
<path d="M89.389 95.8711H87.312V112.322H89.389V95.8711Z" fill="#FAF2E1"/>
<path d="M87.935 95.8711H87.312V112.322H87.935V95.8711Z" fill="#C3BDAF"/>
<path d="M90.516 95.8711H86.187V97.1341H90.516V95.8711Z" fill="#FCFBF9"/>
<path d="M87.486 95.8711H86.187V97.1341H87.486V95.8711Z" fill="#C5C4C2"/>
<path d="M89.993 109.267H86.709V112.322H89.993V109.267Z" fill="#FCFBF9"/>
<path d="M87.694 109.267H86.709V112.322H87.694V109.267Z" fill="#C5C4C2"/>
<path d="M104.395 95.8711H102.318V112.322H104.395V95.8711Z" fill="#FAF2E1"/>
<path d="M102.941 95.8711H102.318V112.322H102.941V95.8711Z" fill="#C3BDAF"/>
<path d="M105.522 95.8711H101.193V97.1341H105.522V95.8711Z" fill="#FCFBF9"/>
<path d="M102.492 95.8711H101.193V97.1341H102.492V95.8711Z" fill="#C5C4C2"/>
<path d="M104.999 109.267H101.715V112.322H104.999V109.267Z" fill="#FCFBF9"/>
<path d="M102.7 109.267H101.715V112.322H102.7V109.267Z" fill="#C5C4C2"/>
<path d="M113.099 92.4341H78.609V95.8701H113.099V92.4341Z" fill="#FFD900"/>
<path d="M159.228 29.2511L158.118 37.1511H157.238V39.6511H155.698V57.7511H157.238V59.9811H155.698V73.9811H157.238V76.2111H155.698V90.2111H157.238V92.4311H155.698V105.881H157.238V108.111H155.698V118.761H157.238V125.161H120.678V118.761H122.678V108.111H120.998V105.881H122.678V92.4311H120.998V90.2111H122.678V76.2111H120.998V73.9811H122.678V59.9811H120.998V57.7511H122.678V39.6511H121.738V37.1511H120.678V32.2011H140.678V29.2511H159.228Z" fill="#B5B5B5"/>
<path d="M142.673 125.166H175.7V29.2475H142.673V125.166Z" fill="#B7A491"/>
<path d="M140.674 125.165H177.242V118.759H140.674V125.165Z" fill="#3C5580"/>
<path d="M163.402 113.434H154.971V125.157H163.402V113.434Z" fill="#ECF0F1"/>
<path d="M162.469 114.333H155.904V125.157H162.469V114.333Z" fill="#2980B9"/>
<path d="M162.469 116.622V114.333H155.904V122.975C157.754 120.673 160.038 118.557 162.469 116.622Z" fill="#3498DB"/>
<path d="M160.352 120.894C160.352 121.762 160.611 122.465 160.931 122.465C161.251 122.465 161.51 121.761 161.51 120.894C161.51 120.027 161.251 119.323 160.931 119.323C160.611 119.323 160.352 120.026 160.352 120.894Z" fill="#F1C40F"/>
<path d="M142.673 109.109H175.7V106.883H142.673V109.109Z" fill="#B5B5B5"/>
<path d="M142.673 93.4343H175.7V91.2073H142.673V93.4343Z" fill="#B5B5B5"/>
<path d="M142.673 77.2061H175.7V74.98H142.673V77.2061Z" fill="#B5B5B5"/>
<path d="M142.673 60.9778L175.7 60.9778V58.7508L142.673 58.7508V60.9778Z" fill="#B5B5B5"/>
<path d="M140.998 108.11H177.242V105.883H140.998V108.11Z" fill="#FAF2E1"/>
<path d="M140.998 92.4343H177.242V90.2073H140.998V92.4343Z" fill="#FAF2E1"/>
<path d="M179.228 29.2511L178.118 37.1511H140.678V29.2511H179.228Z" fill="#F13328"/>
<path d="M152.218 105.884H166.154V95.2349H152.218V105.884Z" fill="#FFF7E6"/>
<path d="M165.155 104.883V96.2343H153.219V104.883H165.155Z" fill="#3BA5F0"/>
<path d="M162.186 104.883V96.2343H161.35V104.883H162.186Z" fill="#FFF7E6"/>
<path d="M157.054 104.883V96.2343H156.218V104.883H157.054Z" fill="#FFF7E6"/>
<path d="M152.218 90.2078H166.154V79.5588H152.218V90.2078Z" fill="#FFF7E6"/>
<path d="M165.155 89.2075V80.5585H153.219V89.2075H165.155Z" fill="#3BA5F0"/>
<path d="M162.187 89.2075V80.5585H161.351V89.2075H162.187Z" fill="#FFF7E6"/>
<path d="M157.055 89.2075V80.5585H156.219V89.2075H157.055Z" fill="#FFF7E6"/>
<path d="M140.998 76.2061H177.242V73.98H140.998V76.2061Z" fill="#FAF2E1"/>
<path d="M152.218 73.9795H166.154V63.3305H152.218V73.9795Z" fill="#FFF7E6"/>
<path d="M165.154 72.9799V64.3309H153.218V72.9799H165.154Z" fill="#3BA5F0"/>
<path d="M162.186 72.9799V64.3309H161.35V72.9799H162.186Z" fill="#FFF7E6"/>
<path d="M157.054 72.98V64.3311H156.218V72.98H157.054Z" fill="#FFF7E6"/>
<path d="M140.998 59.9778L177.242 59.9778V57.7508L140.998 57.7508V59.9778Z" fill="#FAF2E1"/>
<path d="M152.218 57.7522H166.154V47.1032H152.218V57.7522Z" fill="#FFF7E6"/>
<path d="M165.155 56.7516V48.1025H153.219V56.7516H165.155Z" fill="#3BA5F0"/>
<path d="M162.187 56.7516V48.1025H161.351V56.7516H162.187Z" fill="#FFF7E6"/>
<path d="M157.055 56.7515V48.1025H156.219V56.7515H157.055Z" fill="#FFF7E6"/>
<path d="M175.7 38.155H142.673V40.652H175.7V38.155Z" fill="#B5B5B5"/>
<path d="M177.241 37.155H141.738V39.652H177.241V37.155Z" fill="#FFD900"/>
<path opacity="0.4" d="M177.241 37.155H141.738V38.403H177.241V37.155Z" fill="#B59A7D"/>
<path d="M151.873 26.7031H150.812V29.2471H151.873V26.7031Z" fill="#2A3C59"/>
<path d="M160.011 26.7031H158.95V29.2471H160.011V26.7031Z" fill="#2A3C59"/>
<path d="M143.734 26.7031H142.673V29.2471H143.734V26.7031Z" fill="#2A3C59"/>
<path d="M168.15 26.7031H167.089V29.2471H168.15V26.7031Z" fill="#2A3C59"/>
<path d="M176.288 26.7031H175.227V29.2471H176.288V26.7031Z" fill="#2A3C59"/>
<path d="M177.865 25.7051H142.673V26.8531H177.865C178.135 26.8531 178.353 26.6381 178.353 26.3731V26.1851C178.353 25.9201 178.135 25.7051 177.865 25.7051Z" fill="#33496D"/>
<path opacity="0.5" d="M166.155 47.1021V57.751H164.063V49.194H152.219V47.1021H166.155ZM152.219 65.423H164.063V73.98H166.155V63.3311H152.219V65.423ZM152.219 81.651H164.063V90.208H166.155V79.5591H152.219V81.651ZM152.219 97.3271H164.063V105.884H166.155V95.235H152.219V97.3271Z" fill="#B5B5B5"/>
<path d="M49.035 29.2471H16.0081V125.165H49.035V29.2471Z" fill="#B7A491"/>
<path d="M51.035 118.759H14.467V125.165H51.035V118.759Z" fill="#3C5580"/>
<path d="M36.737 113.434H28.306V125.157H36.737V113.434Z" fill="#ECF0F1"/>
<path d="M35.804 114.333H29.239V125.157H35.804V114.333Z" fill="#2980B9"/>
<path d="M35.804 116.622V114.333H29.239V122.975C31.088 120.673 33.373 118.557 35.804 116.622Z" fill="#3498DB"/>
<path d="M34.266 122.465C34.5858 122.465 34.845 121.762 34.845 120.894C34.845 120.026 34.5858 119.323 34.266 119.323C33.9462 119.323 33.687 120.026 33.687 120.894C33.687 121.762 33.9462 122.465 34.266 122.465Z" fill="#F1C40F"/>
<path d="M49.035 91.208H16.0081V93.435H49.035V91.208Z" fill="#B5B5B5"/>
<path d="M49.035 106.884H16.0081V109.11H49.035V106.884Z" fill="#B5B5B5"/>
<path d="M49.035 74.9801H16.0081V77.2061H49.035V74.9801Z" fill="#B5B5B5"/>
<path d="M49.035 58.7521H16.0081V60.9791H49.035V58.7521Z" fill="#B5B5B5"/>
<path d="M50.419 90.208H14.467V92.435H50.419V90.208Z" fill="#FAF2E1"/>
<path d="M50.419 105.884H14.467V108.11H50.419V105.884Z" fill="#FAF2E1"/>
<path d="M51.035 29.2471H12.485L13.586 37.1551H51.035V29.2471Z" fill="#F13328"/>
<path d="M39.489 95.2341H25.553V105.883H39.489V95.2341Z" fill="#FFF7E6"/>
<path d="M38.4894 104.883V96.2343H26.5534V104.883H38.4894Z" fill="#3BA5F0"/>
<path d="M35.5214 104.883V96.2343H34.6864V104.883H35.5214Z" fill="#FFF7E6"/>
<path d="M30.3894 104.883V96.2343H29.5544V104.883H30.3894Z" fill="#FFF7E6"/>
<path d="M39.489 79.5591H25.553V90.2081H39.489V79.5591Z" fill="#FFF7E6"/>
<path d="M38.4896 89.2075V80.5585H26.5536V89.2075H38.4896Z" fill="#3BA5F0"/>
<path d="M35.5216 89.2075V80.5585H34.6866V89.2075H35.5216Z" fill="#FFF7E6"/>
<path d="M30.3895 89.2075V80.5585H29.5545V89.2075H30.3895Z" fill="#FFF7E6"/>
<path d="M50.419 73.9801H14.467V76.2061H50.419V73.9801Z" fill="#FAF2E1"/>
<path d="M39.489 63.3311H25.553V73.98H39.489V63.3311Z" fill="#FFF7E6"/>
<path d="M38.4891 72.9799V64.3309H26.5531V72.9799H38.4891Z" fill="#3BA5F0"/>
<path d="M35.5211 72.9799V64.3309H34.6861V72.9799H35.5211Z" fill="#FFF7E6"/>
<path d="M30.389 72.9799V64.3309H29.554V72.9799H30.389Z" fill="#FFF7E6"/>
<path d="M50.419 57.7521H14.467V59.9791H50.419V57.7521Z" fill="#FAF2E1"/>
<path d="M39.489 47.1021H25.553V57.751H39.489V47.1021Z" fill="#FFF7E6"/>
<path d="M38.4897 56.7514V48.1024H26.5537V56.7514H38.4897Z" fill="#3BA5F0"/>
<path d="M35.5216 56.7516V48.1025H34.6866V56.7516H35.5216Z" fill="#FFF7E6"/>
<path d="M30.3896 56.7515V48.1025H29.5546V56.7515H30.3896Z" fill="#FFF7E6"/>
<path d="M49.035 38.155H16.0081V40.652H49.035V38.155Z" fill="#B5B5B5"/>
<path d="M50.08 37.155H14.467V39.652H50.08V37.155Z" fill="#FFD900"/>
<path opacity="0.4" d="M50.08 37.155H14.467V38.403H50.08V37.155Z" fill="#B59A7D"/>
<path d="M40.8971 26.7031H39.8361V29.2471H40.8971V26.7031Z" fill="#2A3C59"/>
<path d="M32.758 26.7031H31.697V29.2471H32.758V26.7031Z" fill="#2A3C59"/>
<path d="M49.035 26.7031H47.974V29.2471H49.035V26.7031Z" fill="#2A3C59"/>
<path d="M24.6201 26.7031H23.5591V29.2471H24.6201V26.7031Z" fill="#2A3C59"/>
<path d="M16.481 26.7031H15.42V29.2471H16.481V26.7031Z" fill="#2A3C59"/>
<path d="M13.843 25.7051H49.035V26.8531H13.843C13.573 26.8531 13.354 26.6381 13.354 26.3731V26.1851C13.355 25.9201 13.573 25.7051 13.843 25.7051Z" fill="#33496D"/>
<g opacity="0.5">
<path d="M25.553 81.6511H37.397V90.2081H39.49V79.5591H25.553V81.6511Z" fill="#B5B5B5"/>
<path d="M25.553 65.423H37.397V73.98H39.49V63.3311H25.553V65.423Z" fill="#B5B5B5"/>
<path d="M25.553 97.327H37.397V105.884H39.49V95.234H25.553V97.327Z" fill="#B5B5B5"/>
<path d="M25.553 49.195H37.397V57.752H39.49V47.1021H25.553V49.195Z" fill="#B5B5B5"/>
</g>
<path opacity="0.7" d="M19.589 121.329H19.954L20.179 124.708H19.874L19.91 125.143H22.72L22.757 124.708H22.452L22.676 121.329H23.042L23.097 120.668H19.533L19.589 121.329Z" fill="#9898A3"/>
<path d="M24.42 121.329H21.698L21.929 124.796H24.19L24.42 121.329Z" fill="#C0392B"/>
<path d="M22.285 121.638C22.098 121.638 21.957 121.82 21.969 122.04L22.092 124.274C22.101 124.443 22.238 124.578 22.398 124.578C22.558 124.578 22.684 124.443 22.681 124.274L22.633 122.04C22.628 121.819 22.472 121.638 22.285 121.638Z" fill="#912B21"/>
<path d="M24.5009 124.708H21.6179L21.6549 125.143H24.4639L24.5009 124.708Z" fill="#E74C3C"/>
<path d="M24.842 120.668H21.277L21.333 121.329H24.786L24.842 120.668Z" fill="#E74C3C"/>
<path opacity="0.7" d="M146.31 121.329H146.676L146.9 124.708H146.595L146.632 125.143H149.441L149.478 124.708H149.173L149.398 121.329H149.763L149.819 120.668H146.254L146.31 121.329Z" fill="#9898A3"/>
<path d="M151.142 121.329H148.42L148.65 124.796H150.911L151.142 121.329Z" fill="#C0392B"/>
<path d="M149.007 121.638C148.82 121.638 148.679 121.82 148.691 122.04L148.814 124.274C148.823 124.443 148.96 124.578 149.12 124.578C149.28 124.578 149.406 124.443 149.403 124.274L149.355 122.04C149.349 121.819 149.194 121.638 149.007 121.638Z" fill="#912B21"/>
<path d="M151.222 124.708H148.339L148.376 125.143H151.186L151.222 124.708Z" fill="#E74C3C"/>
<path d="M151.563 120.668H147.999L148.054 121.329H151.507L151.563 120.668Z" fill="#E74C3C"/>
<path opacity="0.7" d="M74.333 118.207V117.305H72.147V117.249C72.147 117.023 71.941 116.839 71.687 116.839H71.685C71.431 116.839 71.225 117.023 71.225 117.249V117.305H54.581V117.249C54.581 117.023 54.375 116.839 54.121 116.839H54.119C53.865 116.839 53.659 117.023 53.659 117.249V117.305H51.473V118.207H53.659V118.671H51.473V119.573H53.659V120.037H51.473V120.939H53.659V120.962H51.473V121.355V122.331H53.659V122.688V124.573H53.619C53.379 124.573 53.185 124.746 53.185 124.96V125.171H53.66H54.582H55.057V124.96C55.057 124.746 54.863 124.573 54.623 124.573H54.583V122.688V122.331H71.227V122.688V124.573H71.187C70.947 124.573 70.753 124.746 70.753 124.96V125.171H71.228H72.15H72.625V124.96C72.625 124.746 72.431 124.573 72.191 124.573H72.15V122.688V122.331H74.336V121.355V120.962H72.15V120.939H74.336V120.037H72.15V119.573H74.336V118.671H72.15V118.207H74.333ZM71.225 120.961H54.581V120.938H71.225V120.961ZM71.225 120.036H54.581V119.572H71.225V120.036ZM71.225 118.671H54.581V118.207H71.225V118.671Z" fill="#9898A3"/>
<path d="M56.116 125.17H55.193V116.158C55.193 115.97 55.346 115.817 55.534 115.817H55.775C55.963 115.817 56.116 115.97 56.116 116.158V125.17Z" fill="#5274AD"/>
<path d="M56.116 122.383V116.277C56.116 116.023 55.91 115.817 55.656 115.817H55.654C55.4 115.817 55.194 116.023 55.194 116.277V122.383H56.116Z" fill="#C4B4AC"/>
<path d="M56.59 125.17H54.718V124.995C54.718 124.721 54.94 124.499 55.214 124.499H56.094C56.368 124.499 56.59 124.721 56.59 124.995V125.17Z" fill="#5274AD"/>
<path d="M73.682 125.17H72.76V116.158C72.76 115.97 72.913 115.817 73.101 115.817H73.342C73.53 115.817 73.683 115.97 73.683 116.158V125.17H73.682Z" fill="#5274AD"/>
<path d="M73.682 122.383V116.277C73.682 116.023 73.476 115.817 73.222 115.817H73.22C72.966 115.817 72.76 116.023 72.76 116.277V122.383H73.682Z" fill="#C4B4AC"/>
<path d="M74.157 125.17H72.285V124.995C72.285 124.721 72.507 124.499 72.781 124.499H73.661C73.935 124.499 74.157 124.721 74.157 124.995V125.17Z" fill="#5274AD"/>
<path d="M75.8671 120.445H53.0071V121.983H75.8671V120.445Z" fill="#E74C3C"/>
<path d="M75.8671 120.445H53.0071V120.887H75.8671V120.445Z" fill="#FF7769"/>
<path d="M75.8671 119.206H53.0071V120.618H75.8671V119.206Z" fill="#C0392B"/>
<path d="M75.8671 117.873H53.0071V118.885H75.8671V117.873Z" fill="#C0392B"/>
<path d="M75.8671 116.34H53.0071V117.352H75.8671V116.34Z" fill="#C0392B"/>
<path opacity="0.7" d="M136.91 118.207V117.305H134.724V117.249C134.724 117.023 134.518 116.839 134.264 116.839H134.262C134.008 116.839 133.802 117.023 133.802 117.249V117.305H117.158V117.249C117.158 117.023 116.952 116.839 116.698 116.839H116.696C116.442 116.839 116.236 117.023 116.236 117.249V117.305H114.05V118.207H116.236V118.671H114.05V119.573H116.236V120.037H114.05V120.939H116.236V120.962H114.05V121.355V122.331H116.236V122.688V124.573H116.195C115.955 124.573 115.761 124.746 115.761 124.96V125.171H116.236H117.158H117.633V124.96C117.633 124.746 117.439 124.573 117.199 124.573H117.158V122.688V122.331H133.802V122.688V124.573H133.762C133.522 124.573 133.328 124.746 133.328 124.96V125.171H133.803H134.726H135.201V124.96C135.201 124.746 135.007 124.573 134.767 124.573H134.727V122.688V122.331H136.913V121.355V120.962H134.727V120.939H136.913V120.037H134.727V119.573H136.913V118.671H134.727V118.207H136.91ZM133.801 120.961H117.157V120.938H133.801V120.961ZM133.801 120.036H117.157V119.572H133.801V120.036ZM133.801 118.671H117.157V118.207H133.801V118.671Z" fill="#9898A3"/>
<path d="M118.692 125.17H117.77V116.158C117.77 115.97 117.922 115.817 118.111 115.817H118.352C118.54 115.817 118.693 115.97 118.693 116.158L118.692 125.17Z" fill="#5274AD"/>
<path d="M118.692 122.383V116.277C118.692 116.023 118.486 115.817 118.232 115.817H118.23C117.976 115.817 117.77 116.023 117.77 116.277V122.383H118.692Z" fill="#C4B4AC"/>
<path d="M119.166 125.17H117.294V124.995C117.294 124.721 117.516 124.499 117.79 124.499H118.67C118.944 124.499 119.166 124.721 119.166 124.995V125.17Z" fill="#5274AD"/>
<path d="M136.258 125.17H135.336V116.158C135.336 115.97 135.489 115.817 135.677 115.817H135.918C136.106 115.817 136.259 115.97 136.259 116.158V125.17H136.258Z" fill="#5274AD"/>
<path d="M136.258 122.383V116.277C136.258 116.023 136.052 115.817 135.798 115.817H135.796C135.542 115.817 135.336 116.023 135.336 116.277V122.383H136.258Z" fill="#C4B4AC"/>
<path d="M136.733 125.17H134.861V124.995C134.861 124.721 135.083 124.499 135.357 124.499H136.237C136.511 124.499 136.733 124.721 136.733 124.995V125.17Z" fill="#5274AD"/>
<path d="M138.444 120.445H115.584V121.983H138.444V120.445Z" fill="#E74C3C"/>
<path d="M138.444 120.445H115.584V120.887H138.444V120.445Z" fill="#FF7769"/>
<path d="M138.444 119.206H115.584V120.618H138.444V119.206Z" fill="#C0392B"/>
<path d="M138.444 117.873H115.584V118.885H138.444V117.873Z" fill="#C0392B"/>
<path d="M138.444 116.34H115.584V117.352H138.444V116.34Z" fill="#C0392B"/>
<path d="M14.2609 118.677V115.364C14.2609 114.897 14.6409 114.518 15.1069 114.518H16.9549C17.4219 114.518 17.8009 114.898 17.8009 115.364V118.677C17.8009 119.144 17.4209 119.523 16.9549 119.523H15.1069C14.6409 119.524 14.2609 119.144 14.2609 118.677ZM15.1079 115.295C15.0699 115.295 15.0389 115.327 15.0389 115.364V118.677C15.0389 118.715 15.0709 118.746 15.1079 118.746H16.9559C16.9929 118.746 17.0249 118.714 17.0249 118.677V115.364C17.0249 115.327 16.9929 115.295 16.9559 115.295H15.1079Z" fill="#6D4C41"/>
<path d="M12.4419 118.986V114.64C12.4419 114.131 12.8559 113.717 13.3649 113.717H14.8659C15.3749 113.717 15.7889 114.131 15.7889 114.64V118.986C15.7889 119.495 15.3749 119.909 14.8659 119.909H13.3649C12.8559 119.909 12.4419 119.495 12.4419 118.986ZM13.3649 114.591C13.3389 114.591 13.3169 114.614 13.3169 114.639V118.985C13.3169 119.011 13.3399 119.033 13.3649 119.033H14.8659C14.8919 119.033 14.9139 119.01 14.9139 118.985V114.639C14.9139 114.613 14.8909 114.591 14.8659 114.591H13.3649Z" fill="#4F372F"/>
<path d="M13.6039 125.165C13.9739 124.677 14.1959 124.07 14.1959 123.41H15.9639C15.9639 124.07 16.1859 124.677 16.5559 125.165H13.6039Z" fill="#6D4C41"/>
<path d="M15.9639 108.345H14.1959V123.41H15.9639V108.345Z" fill="#6D4C41"/>
<path d="M15.0379 108.345H14.1959V123.41C14.1959 124.07 13.9739 124.677 13.6039 125.165H15.0379V108.345Z" fill="#4F372F"/>
<path d="M22.8039 108.776C22.8059 103.746 19.9579 95.554 15.0809 95.384C10.2039 95.554 7.35593 103.746 7.35793 108.776C7.26993 113.866 10.8069 118.452 15.0809 118.681C19.3549 118.452 22.8919 113.866 22.8039 108.776Z" fill="#A6DE00"/>
<path d="M15.013 95.39C10.178 95.634 7.35597 103.77 7.35697 108.776C7.26897 113.839 10.769 118.399 15.013 118.673V95.39Z" fill="#72B100"/>
<path d="M11.543 112.707C11.166 112.707 10.86 113.203 10.86 113.815C10.86 114.427 11.166 114.922 11.543 114.922C11.92 114.922 12.226 114.426 12.226 113.815C12.226 113.203 11.92 112.707 11.543 112.707Z" fill="#A6DE00"/>
<path d="M10.4499 111.156C10.2239 111.156 10.0399 111.402 10.0399 111.706C10.0399 112.01 10.2239 112.256 10.4499 112.256C10.6759 112.256 10.8599 112.01 10.8599 111.706C10.8599 111.403 10.6759 111.156 10.4499 111.156Z" fill="#A6DE00"/>
<path d="M11.899 112.257C12.0796 112.257 12.226 112.011 12.226 111.707C12.226 111.403 12.0796 111.157 11.899 111.157C11.7184 111.157 11.572 111.403 11.572 111.707C11.572 112.011 11.7184 112.257 11.899 112.257Z" fill="#A6DE00"/>
<path d="M8.72598 109.1C8.50098 109.1 8.31799 109.43 8.31799 109.838C8.31799 110.246 8.50098 110.576 8.72598 110.576C8.95098 110.576 9.13399 110.246 9.13399 109.838C9.13399 109.43 8.95098 109.1 8.72598 109.1Z" fill="#A6DE00"/>
<path d="M16.837 99.5311C17.1004 99.5311 17.314 99.211 17.314 98.8161C17.314 98.4212 17.1004 98.1011 16.837 98.1011C16.5736 98.1011 16.36 98.4212 16.36 98.8161C16.36 99.211 16.5736 99.5311 16.837 99.5311Z" fill="#72B100"/>
<path d="M18.1559 101.887C18.4479 101.887 18.6839 101.527 18.6839 101.083C18.6839 100.639 18.4469 100.279 18.1559 100.279C17.8639 100.279 17.6279 100.639 17.6279 101.083C17.6279 101.527 17.8639 101.887 18.1559 101.887Z" fill="#72B100"/>
<path d="M16.7779 101.468C16.9189 101.468 17.0339 101.271 17.0339 101.028C17.0339 100.785 16.9199 100.588 16.7779 100.588C16.6369 100.588 16.523 100.785 16.523 101.028C16.522 101.271 16.6369 101.468 16.7779 101.468Z" fill="#72B100"/>
<path d="M18.958 103.5C19.1093 103.5 19.232 103.322 19.232 103.103C19.232 102.884 19.1093 102.706 18.958 102.706C18.8067 102.706 18.684 102.884 18.684 103.103C18.684 103.322 18.8067 103.5 18.958 103.5Z" fill="#72B100"/>
<path opacity="0.7" d="M172.123 122.808C172.123 122.412 171.802 122.092 171.407 122.092C171.385 122.092 171.364 122.097 171.342 122.099C171.424 122.033 171.507 121.968 171.596 121.923C171.545 121.921 171.493 121.922 171.441 121.925C171.444 121.92 171.449 121.918 171.452 121.913C171.548 121.764 171.464 121.484 171.707 121.647C171.483 121.345 171.187 121.514 171.122 121.823C170.868 121.294 170.367 120.909 169.768 120.816C169.772 120.794 169.778 120.775 169.788 120.76C169.668 120.794 169.486 120.524 169.35 120.692C169.375 120.532 169.078 120.502 169.011 120.393C168.988 120.515 168.666 120.558 168.755 120.755C168.623 120.661 168.463 120.914 168.336 120.925C168.388 120.964 168.384 121.069 168.398 121.16C168.075 121.404 167.838 121.752 167.734 122.155C167.599 122.015 167.449 121.939 167.258 121.846C167.292 121.933 167.336 122.014 167.382 122.093C167.378 122.093 167.375 122.092 167.372 122.092C166.906 122.092 166.521 122.428 166.44 122.871H165.876L166.091 123.844C166.155 124.134 166.291 124.392 166.478 124.601C166.54 124.671 166.608 124.735 166.681 124.794C166.972 125.028 167.341 125.165 167.736 125.165H170.9C170.988 125.165 171.075 125.156 171.16 125.143C171.176 125.14 171.192 125.139 171.208 125.136C171.281 125.122 171.351 125.103 171.42 125.08C171.451 125.07 171.481 125.059 171.511 125.048C171.565 125.026 171.618 125.003 171.67 124.976C171.715 124.953 171.758 124.927 171.8 124.9C171.808 124.895 171.815 124.89 171.822 124.885C172.179 124.65 172.448 124.286 172.546 123.845L172.761 122.872H172.116C172.119 122.85 172.123 122.83 172.123 122.808Z" fill="#9898A3"/>
<path d="M171.844 122.808C171.844 122.412 172.165 122.092 172.56 122.092C172.956 122.092 173.276 122.413 173.276 122.808C173.276 123.203 172.955 123.524 172.56 123.524C172.165 123.525 171.844 123.204 171.844 122.808Z" fill="#A6DE00"/>
<path d="M168.829 122.605C168.829 121.604 169.641 120.792 170.642 120.792C171.643 120.792 172.455 121.603 172.455 122.605C172.455 123.607 171.644 124.418 170.642 124.418C169.64 124.418 168.829 123.606 168.829 122.605Z" fill="#A6DE00"/>
<path d="M168.525 123.99C169.049 123.99 169.474 123.565 169.474 123.041C169.474 122.517 169.049 122.092 168.525 122.092C168.001 122.092 167.576 122.517 167.576 123.041C167.576 123.565 168.001 123.99 168.525 123.99Z" fill="#A6DE00"/>
<path d="M168.411 121.846C168.492 122.054 168.613 122.239 168.746 122.401H169.07C169.058 122.378 169.047 122.355 169.03 122.337C168.856 122.065 168.671 121.973 168.411 121.846Z" fill="#A6DE00"/>
<path d="M172.75 121.923C172.439 121.909 172.103 121.988 171.773 122.322C172.147 122.554 172.408 122.094 172.75 121.923Z" fill="#A6DE00"/>
<path d="M169.269 122.154C169.462 122.405 169.565 122.647 170.11 122.552C170.087 122.029 169.664 122.235 169.269 122.154Z" fill="#A6DE00"/>
<path d="M172.86 121.648C172.617 121.485 172.701 121.765 172.605 121.914C172.509 122.063 172.343 122.072 172.274 122.081C172.184 121.629 172.579 121.268 172.86 121.648Z" fill="#A6DE00"/>
<path d="M170.659 121.735C170.299 121.631 170.526 121.952 170.481 122.182C170.436 122.413 170.245 122.494 170.168 122.535C169.854 121.998 170.155 121.37 170.659 121.735Z" fill="#A6DE00"/>
<path d="M167.03 122.87H173.916L173.701 123.843C173.53 124.615 172.846 125.165 172.055 125.165H168.891C168.1 125.165 167.416 124.615 167.245 123.843L167.03 122.87Z" fill="#FFE282"/>
<path d="M168.382 122.87C168.385 123.786 168.976 124.7 170.155 124.7H173.209C172.904 124.988 172.499 125.164 172.056 125.164H168.892C168.101 125.164 167.417 124.614 167.246 123.842L167.031 122.869H168.382V122.87Z" fill="#FFD74D"/>
<path d="M170.46 120.76C170.598 120.456 170.808 120.798 170.941 120.76C170.864 120.884 171.011 121.229 170.745 121.203C170.478 121.178 170.46 120.76 170.46 120.76Z" fill="#E91E63"/>
<path d="M169.949 120.824C169.738 120.565 170.138 120.529 170.163 120.393C170.239 120.517 170.614 120.539 170.473 120.766C170.332 120.993 169.949 120.824 169.949 120.824Z" fill="#E91E63"/>
<path d="M169.779 121.308C169.454 121.381 169.599 121.008 169.489 120.925C169.634 120.912 169.821 120.586 169.961 120.814C170.101 121.042 169.779 121.308 169.779 121.308Z" fill="#E91E63"/>
<path d="M170.137 121.677C170.058 122.001 169.788 121.704 169.665 121.766C169.718 121.63 169.509 121.318 169.776 121.294C170.042 121.27 170.137 121.677 170.137 121.677Z" fill="#E91E63"/>
<path d="M170.627 121.521C170.882 121.736 170.496 121.845 170.496 121.983C170.398 121.875 170.025 121.923 170.123 121.673C170.22 121.425 170.627 121.521 170.627 121.521Z" fill="#E91E63"/>
<path d="M169.767 121.204C169.767 121.474 169.986 121.693 170.256 121.693C170.526 121.693 170.745 121.474 170.745 121.204C170.745 120.934 170.526 120.715 170.256 120.715C169.986 120.715 169.767 120.934 169.767 121.204Z" fill="#E91E63"/>
<path d="M170.705 121.013C171.011 120.881 170.937 121.275 171.061 121.337C170.921 121.376 170.797 121.732 170.618 121.533C170.437 121.334 170.705 121.013 170.705 121.013Z" fill="#E91E63"/>
<path d="M169.935 121.204C169.935 121.381 170.078 121.524 170.255 121.524C170.432 121.524 170.576 121.381 170.576 121.204C170.576 121.027 170.432 120.884 170.255 120.884C170.079 120.883 169.935 121.027 169.935 121.204Z" fill="#FDD835"/>
<path d="M169.682 122.346C169.82 122.042 170.03 122.384 170.163 122.346C170.086 122.47 170.233 122.815 169.967 122.79C169.7 122.764 169.682 122.346 169.682 122.346Z" fill="#E91E63"/>
<path d="M169.171 122.409C168.96 122.151 169.36 122.114 169.385 121.979C169.461 122.103 169.836 122.125 169.695 122.352C169.554 122.579 169.171 122.409 169.171 122.409Z" fill="#E91E63"/>
<path d="M169.001 122.894C168.676 122.967 168.821 122.594 168.711 122.51C168.856 122.497 169.043 122.171 169.183 122.399C169.323 122.627 169.001 122.894 169.001 122.894Z" fill="#E91E63"/>
<path d="M169.359 123.263C169.28 123.587 169.01 123.29 168.886 123.352C168.939 123.216 168.73 122.904 168.997 122.88C169.264 122.856 169.359 123.263 169.359 123.263Z" fill="#E91E63"/>
<path d="M169.849 123.107C170.104 123.322 169.718 123.431 169.718 123.569C169.62 123.461 169.247 123.509 169.345 123.26C169.442 123.011 169.849 123.107 169.849 123.107Z" fill="#E91E63"/>
<path d="M168.989 122.79C168.989 123.06 169.208 123.279 169.478 123.279C169.748 123.279 169.967 123.06 169.967 122.79C169.967 122.52 169.748 122.301 169.478 122.301C169.208 122.301 168.989 122.519 168.989 122.79Z" fill="#E91E63"/>
<path d="M169.927 122.599C170.233 122.467 170.159 122.861 170.283 122.922C170.143 122.961 170.019 123.317 169.84 123.118C169.659 122.92 169.927 122.599 169.927 122.599Z" fill="#E91E63"/>
<path d="M169.157 122.79C169.157 122.967 169.3 123.11 169.477 123.11C169.654 123.11 169.797 122.967 169.797 122.79C169.797 122.613 169.654 122.47 169.477 122.47C169.3 122.47 169.157 122.613 169.157 122.79Z" fill="#FDD835"/>
<path d="M171.822 122.033C171.96 121.729 172.17 122.071 172.303 122.033C172.226 122.157 172.373 122.502 172.107 122.477C171.841 122.451 171.822 122.033 171.822 122.033Z" fill="#E91E63"/>
<path d="M171.312 122.097C171.101 121.839 171.501 121.802 171.526 121.667C171.602 121.791 171.977 121.813 171.836 122.04C171.694 122.266 171.312 122.097 171.312 122.097Z" fill="#E91E63"/>
<path d="M171.142 122.582C170.817 122.655 170.962 122.282 170.852 122.198C170.997 122.185 171.184 121.859 171.324 122.087C171.464 122.315 171.142 122.582 171.142 122.582Z" fill="#E91E63"/>
<path d="M171.5 122.95C171.421 123.274 171.151 122.977 171.027 123.039C171.08 122.903 170.871 122.591 171.138 122.567C171.404 122.543 171.5 122.95 171.5 122.95Z" fill="#E91E63"/>
<path d="M171.989 122.794C172.244 123.009 171.858 123.118 171.858 123.256C171.76 123.148 171.387 123.196 171.485 122.946C171.582 122.698 171.989 122.794 171.989 122.794Z" fill="#E91E63"/>
<path d="M171.13 122.477C171.13 122.747 171.349 122.966 171.619 122.966C171.889 122.966 172.108 122.747 172.108 122.477C172.108 122.207 171.889 121.988 171.619 121.988C171.348 121.988 171.13 122.207 171.13 122.477Z" fill="#E91E63"/>
<path d="M172.068 122.286C172.374 122.154 172.3 122.548 172.424 122.61C172.284 122.649 172.16 123.005 171.981 122.806C171.8 122.608 172.068 122.286 172.068 122.286Z" fill="#E91E63"/>
<path d="M171.298 122.477C171.298 122.654 171.441 122.797 171.618 122.797C171.795 122.797 171.938 122.654 171.938 122.477C171.938 122.3 171.795 122.157 171.618 122.157C171.441 122.157 171.298 122.3 171.298 122.477Z" fill="#FDD835"/>
</svg>
