<svg width="142" height="144" viewBox="0 0 142 144" fill="none" xmlns="http://www.w3.org/2000/svg">
<path fill-rule="evenodd" clip-rule="evenodd" d="M77.4712 142.116C78.1582 141.781 80.7602 141.659 81.6432 141.212C77.3842 141.531 77.3822 141.365 77.4712 142.116Z" fill="url(#paint0_radial_2959_13851)"/>
<path fill-rule="evenodd" clip-rule="evenodd" d="M1.6178 67.5571C1.0838 70.2091 1.39579 72.1531 1.57779 73.8031C1.37679 71.9691 1.9278 69.2391 1.6178 67.5571Z" fill="url(#paint1_radial_2959_13851)"/>
<path fill-rule="evenodd" clip-rule="evenodd" d="M69.5229 142.047C69.6709 142.149 69.9759 142.218 70.2879 142.202C70.5989 142.183 70.99 142.159 71.373 142.136C70.999 142.064 70.7639 142.019 70.5389 141.976C70.0049 141.916 69.5369 141.913 69.5229 142.047Z" fill="url(#paint2_radial_2959_13851)"/>
<path fill-rule="evenodd" clip-rule="evenodd" d="M73.7729 142.034C73.6219 142.095 73.5379 142.129 73.3789 142.193C73.6159 142.222 73.9929 142.268 74.2299 142.297C74.2319 142.23 74.6209 142.17 74.4649 142.116C74.3869 142.081 74.0019 142.056 73.7729 142.034Z" fill="url(#paint3_radial_2959_13851)"/>
<path fill-rule="evenodd" clip-rule="evenodd" d="M80.6321 1.22312C83.0321 1.75512 85.7551 2.35812 88.0891 2.87612C88.9801 3.14512 89.9551 3.43912 90.9291 3.73312C93.0021 4.02712 95.0201 5.36511 96.9131 5.90311L96.7771 5.78011C97.7841 6.23311 98.6401 6.61811 99.6461 7.07111C100.542 7.35811 101.605 8.08812 102.485 8.41912C104.036 9.30512 105.648 10.0821 106.997 10.9931C107.772 11.5181 108.334 11.9031 108.846 12.0711C110.048 12.8921 111.178 13.6641 112.453 14.5351C112.932 14.7491 113.695 15.4571 114.093 15.6371C114.466 15.8621 114.756 16.0521 115.006 16.1651C114.485 15.4371 113.565 14.7821 112.73 14.1741L108.461 11.2551C107.197 10.3501 106.011 9.48412 104.743 9.11312C103.76 8.59012 102.854 8.10712 101.941 7.62112C100.435 7.00612 98.6151 5.87412 97.0901 5.50112C96.4631 5.23412 95.8361 4.96612 95.2811 4.72912C94.1801 4.28112 93.1091 3.72812 92.2151 3.67712C91.8071 3.54512 91.3991 3.41312 91.0741 3.30912C90.7601 3.17312 90.4341 3.06912 90.0931 3.01412C89.7631 2.92312 89.5181 2.85612 89.1891 2.76612C86.3571 1.79612 83.5311 1.09211 80.6461 0.67411C79.8821 0.56511 79.4441 0.591122 79.4171 0.749122C79.3901 0.909122 79.8781 1.09012 80.6321 1.22312ZM107.452 11.0781C107.471 11.0901 107.497 11.1071 107.518 11.1211C107.77 11.2091 108.073 11.4611 108.447 11.7361C108.061 11.4801 107.734 11.2651 107.518 11.1211C107.493 11.1131 107.467 11.0971 107.443 11.0921L107.452 11.0781Z" fill="url(#paint4_radial_2959_13851)"/>
<path fill-rule="evenodd" clip-rule="evenodd" d="M131.068 113.493C131.058 113.509 131.047 113.525 131.037 113.541C130.999 113.597 130.976 113.661 130.938 113.716L131.068 113.493Z" fill="url(#paint5_radial_2959_13851)"/>
<path fill-rule="evenodd" clip-rule="evenodd" d="M140.674 83.558C140.673 83.518 140.675 83.475 140.675 83.434C140.979 81.597 141.242 79.738 141.105 77.752C141.037 77.896 140.992 78.055 140.941 78.212C140.96 77.812 140.97 77.401 140.917 77.053L140.862 76.797L140.892 76.458C140.91 74.922 140.928 73.385 140.947 71.762C140.9 71.51 140.853 71.257 140.774 70.834C140.352 66.423 139.579 61.826 138.391 57.524C138.267 57.199 138.119 56.81 138.027 56.567C136.938 52.859 135.727 49.474 134.228 45.75C134.083 45.54 133.842 45.189 133.699 44.98C133.541 44.593 133.415 44.285 133.289 43.976C133.195 43.383 132.881 42.791 132.437 42.17C131.217 39.893 130.213 37.379 128.677 35.783C126.558 33.177 124.196 29.796 121.658 27.275C120.416 25.959 119.698 24.597 118.429 23.4C117.195 22.296 116.985 22.732 115.22 21.273C113.32 19.84 111.485 18.204 109.432 16.726L109.311 16.888C109.284 16.786 109.199 16.634 109.432 16.726L108.632 16.165L108.514 16.329C107.644 15.727 106.842 15.172 106.034 14.613C105.806 14.521 105.421 14.365 105.115 14.241L104.82 14.102L104.639 13.939C103.933 13.376 102.914 13.037 102.54 12.559C103.012 12.556 104.551 13.465 104.692 13.242C101.847 11.477 100.069 10.797 98.8641 10.864C98.3051 10.543 97.5121 10.136 97.5701 10.015C98.0301 9.638 96.7791 9.213 95.1581 8.666C93.8381 8.239 93.4471 8.352 93.4911 8.681C93.1191 8.525 92.8991 8.432 92.6031 8.308C92.2491 8.105 91.8701 7.96601 91.6321 7.92101L91.7591 8.028C91.3961 7.851 91.1011 7.72101 90.7981 7.61501C89.6621 7.21101 87.8541 6.76 88.4611 6.464C88.9461 6.263 88.2031 5.929 86.8761 5.522C85.7771 5.208 84.7171 4.725 83.5191 4.845C84.8461 5.261 86.3921 6.028 85.8921 6.306C85.3231 6.204 84.6641 6.03201 83.9941 5.87601C83.6131 5.51701 83.3161 5.168 82.6991 4.8C82.5561 4.614 82.4011 4.45301 81.7551 4.29001C81.6711 3.84601 81.3581 3.39701 80.6531 2.97501C81.2831 3.01801 81.9631 3.08401 82.6381 3.15001C84.6891 3.50401 86.7661 4.124 88.4931 4.998C89.6081 5.576 91.0281 5.997 92.3581 6.205C94.1861 6.98 95.9291 7.72 97.7571 8.495C102.26 10.562 106.497 12.967 110.447 15.367L110.367 15.331C112.652 16.75 114.637 18.832 116.853 20.491C117.713 21.041 118.732 22.049 119.725 23.078C120.031 23.37 120.4 23.721 120.763 24.067C121.465 24.688 122.188 25.51 122.872 26.252C124.993 28.865 127.021 31.14 128.799 33.619C128.702 33.383 128.701 33.382 128.637 33.227C128.637 33.227 128.637 33.227 128.726 33.366L128.798 33.619C129.374 34.466 130.021 35.552 130.563 36.019L130.865 36.437L131.11 36.877C131.978 38.445 132.709 40.252 133.64 41.404C133.863 41.77 133.925 41.838 134.116 42.219C134.595 43.301 135.112 44.376 135.572 45.197C135.67 45.44 135.685 45.434 135.732 45.414C135.811 45.476 135.81 45.382 135.759 45.119C135.165 42.506 133.978 39.888 132.16 37.076C131.698 36.348 131.053 35.334 130.549 34.54C127.414 28.801 123.413 24.691 119.027 21.153C118.429 20.556 117.935 20.088 117.461 19.845C116.874 19.354 116.273 18.878 115.85 18.715C115.258 18.235 114.8 17.863 114.342 17.492C113.507 16.776 112.738 16.116 111.902 15.399C108.374 12.334 104.271 10.027 100.054 8.14101C98.1531 7.24601 96.0511 6.612 94.0441 5.554C92.5631 4.723 90.6011 3.932 91.2441 4.914C91.3401 5.13 90.0591 4.75301 89.2581 4.50301C87.7361 4.06901 86.0001 3.449 84.3581 3.108C84.1931 3.098 83.8671 3.028 83.7091 2.952C83.4001 2.809 83.0721 2.73901 82.5701 2.71201C82.3931 2.71801 82.1501 2.66701 81.8311 2.55901C80.4151 2.10001 78.9751 1.702 77.5091 1.388C77.0471 1.238 76.4481 1.103 75.6331 0.992004C75.5431 0.814004 75.2761 0.666996 74.5031 0.576996C74.1471 0.497996 73.8881 0.459998 73.4521 0.419998L73.1961 0.462997C73.1081 0.469997 73.1081 0.470001 73.1081 0.470001C73.1971 0.457001 73.2841 0.445005 73.4521 0.421005C73.2771 0.264005 72.9261 0.169 72.0491 0.166L71.9581 0.139008L71.9591 0.156006C71.8721 0.0440059 71.5201 0.011 70.9001 0C70.7331 0.046 70.2961 0.0810096 70.2021 0.0380096C68.5761 0.16201 66.9451 0.395008 65.3231 0.680008C64.4261 0.605008 63.4301 0.654002 62.5241 0.761002C58.5751 0.993002 54.8471 1.569 50.9071 2.431L50.9151 2.464L50.9221 2.49701L50.9071 2.431C49.1791 2.407 46.9881 3.377 45.0241 3.825C44.1481 3.857 43.0251 4.233 42.0831 4.597C41.4891 4.683 40.6811 4.946 39.8141 5.274C38.7791 5.652 39.1961 5.77601 38.5921 6.07401C38.1331 6.29601 37.7081 6.57101 37.5931 6.73601C37.3221 6.95101 36.0211 7.531 36.3531 7.655C36.5001 7.768 36.7841 7.789 37.4391 7.629C37.7151 7.825 38.4861 7.726 39.6101 7.418L39.8211 7.28801L39.8281 7.304C39.7501 7.335 39.6711 7.36701 39.6111 7.41901C40.3691 7.54901 41.2131 7.69301 41.9711 7.82201C42.0731 8.08801 42.3931 8.25101 43.4151 8.04001C42.8611 8.38201 42.3201 8.733 41.8121 9.106C40.3191 9.963 38.3131 10.657 37.4781 11.773C35.4561 13.245 33.0661 14.664 31.4621 16.374L31.5931 16.27C30.6461 17.282 29.0781 18.208 28.4151 19.149L28.4041 19.136C27.9881 19.579 27.2331 20.139 26.8221 20.699L26.6801 20.918L26.4191 21.136C25.5091 22.024 24.5921 22.921 23.6471 23.844C22.4261 24.817 21.2001 25.849 20.2501 27.251C18.9831 28.971 16.5281 31.665 15.1421 33.834C13.7371 36.144 11.5781 38.365 10.8231 40.794L10.9381 40.692C10.8821 40.827 10.8671 40.819 10.8671 40.819L10.8231 40.794C9.38712 43.268 8.10413 45.857 6.99213 48.529C6.20713 50.084 5.57614 51.821 5.07514 53.782C4.93114 54.241 4.78614 54.699 4.65314 55.162C3.40014 58.693 2.38813 62.476 2.02713 66.385C1.78113 68.416 1.54913 70.228 1.90613 71.899C1.95413 72.201 1.93714 72.355 1.86814 72.5C1.70514 72.954 1.65912 73.559 1.65012 74.318C1.22612 76.145 1.67913 78.103 1.78513 79.991L1.84012 80.059C1.84412 80.06 1.85211 80.063 1.85211 80.063L1.84412 80.064L1.84113 80.06C1.82813 80.058 1.80513 80.05 1.78613 79.992C1.62213 80.774 1.73613 81.989 1.95413 83.032L1.97113 83.029C1.86013 83.739 2.24312 85.059 2.28412 85.987C2.36012 86.203 2.38612 86.428 2.36612 86.592C2.27312 87.002 2.37012 87.679 2.55112 88.504C2.69112 89.723 3.00514 90.996 3.55414 91.871L3.55713 91.87C3.74013 92.762 3.97013 93.599 4.36313 94.317C4.68813 95.382 4.98813 96.364 5.29013 97.353C5.92013 98.852 6.40714 100.94 7.22214 102.282C7.47614 102.914 7.73114 103.547 7.95514 104.107C8.41714 105.202 8.78312 106.351 9.37912 107.018C9.57412 107.4 9.77011 107.781 9.92511 108.085C10.0511 108.403 10.2081 108.707 10.4111 108.987C10.5801 109.285 10.7061 109.505 10.8751 109.802C12.1911 112.49 13.6921 114.986 15.4371 117.322C15.9001 117.94 16.2291 118.231 16.3591 118.138C16.4901 118.045 16.2721 117.571 15.8341 116.944C14.5131 114.87 13.0151 112.519 11.7301 110.503C11.2901 109.683 10.8091 108.786 10.3281 107.889C9.07013 106.215 8.59014 103.842 7.63114 102.124L7.64014 102.307C7.24914 101.275 6.91614 100.397 6.52414 99.365C6.09414 98.529 5.85812 97.26 5.47012 96.404C5.34312 95.937 5.20713 95.474 5.07013 95.014C5.11413 95.095 5.15011 95.181 5.20111 95.258L5.18512 95.263C5.29612 95.462 5.37014 95.592 5.48514 95.798C5.43914 95.58 5.40913 95.435 5.36713 95.231C5.36413 95.244 5.36612 95.263 5.36212 95.275L5.36112 95.202C5.36312 95.213 5.36513 95.22 5.36713 95.231C5.40213 95.044 5.32114 94.712 5.30414 94.422C5.35514 94.006 5.17414 93.282 4.98514 92.552L4.94513 92.564L4.92914 92.569L4.98514 92.552C4.99714 92.386 4.97612 92.17 4.93912 91.931C5.49512 94.105 6.19912 96.24 6.99512 98.324C7.70612 100.301 8.74513 102.235 9.41513 104.402C9.87513 106.037 10.7031 107.984 10.9421 106.834C11.0271 106.614 11.6661 107.786 12.0551 108.529C12.8251 109.912 13.6131 111.578 14.5341 112.98C14.6441 113.103 14.8251 113.384 14.8831 113.549C15.0001 113.869 15.1831 114.15 15.5191 114.524C15.6491 114.645 15.7841 114.852 15.9331 115.154C17.9511 119.111 20.4471 122.866 24.2321 125.85C24.7321 126.298 25.3171 126.9 25.6831 127.361C26.2761 128.317 27.3211 129.296 28.3131 130.08C31.2691 132.708 34.3131 134.936 37.7081 137.113L37.7261 137.084L37.7441 137.056L37.7081 137.113C38.9131 138.351 41.1481 139.215 42.8541 140.287C43.4961 140.884 44.5561 141.412 45.4801 141.82C45.9611 142.179 46.7191 142.565 47.5641 142.946C48.5631 143.41 48.3561 143.028 48.9941 143.244C49.4761 143.411 49.9711 143.518 50.1691 143.482C50.5131 143.522 51.8431 144.032 51.6951 143.709C51.6711 143.525 51.4851 143.309 50.9081 142.959C50.8521 142.625 50.2361 142.15 49.2241 141.573L48.9831 141.516L48.9891 141.5C49.0671 141.533 49.1441 141.566 49.2241 141.573C48.7801 140.946 48.2851 140.247 47.8401 139.62C47.9781 139.311 47.8091 138.892 46.4161 138.105C46.2851 137.829 46.0011 137.5 45.8801 137.194C46.8881 137.662 47.9991 138.106 48.9741 138.448C50.0221 138.808 50.6371 138.774 50.7161 138.579C50.9701 138.357 49.7941 137.93 49.0941 137.571C48.2531 137.153 47.6071 136.685 47.5591 136.434C47.4641 136.098 48.6771 136.611 49.2921 136.747C51.4161 137.27 54.1011 138.644 56.5121 138.97C57.6321 139.224 59.0471 139.892 60.0301 139.758L59.9621 139.708L60.0381 139.725L60.0301 139.758C61.6791 140.095 63.3711 140.616 64.7751 140.592C64.6261 140.535 64.4841 140.488 64.4141 140.438C64.4911 140.454 64.4911 140.454 64.4911 140.454L64.7751 140.592C66.2761 140.827 68.0941 141.16 69.3391 140.981L69.1881 140.929L69.3431 140.948L69.3391 140.981C71.7581 141.087 74.2631 141.755 76.9391 141.242C79.0511 140.922 82.6921 140.753 85.2061 140.199C87.8321 139.559 90.9301 139.515 93.1821 138.332L93.0291 138.323C93.1651 138.267 93.1691 138.283 93.1691 138.283L93.1821 138.332C98.1811 137.005 103.1 135.082 107.704 132.535C110.684 131.116 113.656 129.401 116.389 127.303C116.393 127.301 116.396 127.3 116.4 127.299C116.508 127.417 116.793 127.357 117.34 126.951L117.613 126.62L117.625 126.632C117.625 126.632 117.457 126.82 117.34 126.951C117.594 126.954 117.898 126.903 118.282 126.755C117.595 127.292 116.842 127.998 116.164 128.332L116.225 128.283C115.481 128.697 114.458 129.494 113.74 129.787C112.096 130.34 110.407 131.924 108.604 132.755C108.199 132.954 107.648 133.224 107.103 133.49C106.089 133.823 104.832 134.716 103.731 135.027C103.174 135.255 102.752 135.428 102.33 135.6C100.496 136.47 98.6981 137.313 96.7691 137.721L96.4901 137.839L96.2721 137.894C90.5681 139.284 86.4121 140.793 82.0121 141.819C90.3761 140.951 98.4971 138.436 105.978 134.801C106.524 134.525 107.007 134.281 107.622 133.97C108.999 133.627 110.495 132.667 111.892 131.712C112.672 131.222 113.387 130.773 114.174 130.278C114.936 129.897 115.848 129.196 116.586 128.76C116.888 128.518 117.076 128.388 117.276 128.271C118.014 127.958 118.828 127.233 119.661 126.551C119.907 126.363 120.216 126.127 120.406 125.983C120.729 125.775 121.158 125.553 121.402 125.361C121.763 125.007 122.11 124.666 122.457 124.325C122.677 124.249 122.974 124.038 123.463 123.552L123.547 123.507L123.534 123.496C123.675 123.514 123.947 123.289 124.394 122.857C124.479 122.706 124.764 122.372 124.861 122.336C127.185 119.627 129.191 116.562 131.049 113.541C131.768 112.478 132.405 111.297 132.937 110.216C133.471 109.513 133.943 108.746 134.23 108.001C134.46 107.682 134.694 107.379 134.943 107.091C136.38 103.349 137.966 99.489 138.524 95.848C138.974 94.186 139.902 92.277 139.703 90.897C140.092 88.427 140.779 85.733 140.704 83.39L140.674 83.558ZM127.227 30.791L127.186 30.82C127.186 30.82 127.207 30.805 127.184 30.726L127.227 30.791ZM39.6901 6.32901C39.6701 6.28201 39.5651 6.252 39.7951 6.133C39.8621 6.07 40.0261 6.04101 40.0961 5.98601C39.8931 6.14701 39.6671 6.27501 39.6901 6.32901ZM48.3841 142.283C48.3651 142.33 48.4181 142.426 48.1711 142.348C48.0791 142.345 47.9421 142.25 47.8541 142.239C48.1121 142.268 48.3621 142.337 48.3841 142.283ZM136.339 70.908L136.305 70.909L136.304 70.754L136.339 70.908ZM135.899 80.396C135.99 78.885 136.12 77.366 135.88 76.007C136.172 77.214 136.006 78.804 135.899 80.396ZM136.016 51.753C135.944 51.687 135.792 51.297 135.706 51.245C135.666 51.078 135.609 50.839 135.569 50.673C135.729 51.058 135.922 51.524 136.016 51.753ZM135.442 60.476L135.476 60.47C135.458 60.557 135.428 60.805 135.366 60.658C135.365 60.658 135.416 60.565 135.442 60.476ZM134.088 74.782H134.105L134.087 74.861L134.088 74.782ZM132.502 69.385C132.52 69.686 132.617 69.836 132.577 70.062C132.535 70.668 132.428 70 132.335 69.696C132.41 69.692 132.486 69.689 132.502 69.385ZM131.561 80.031L131.612 80.036L131.579 80.187C131.555 80.253 131.561 80.031 131.561 80.031ZM117.147 117.223C117.26 117.014 117.38 116.797 117.497 116.585C117.567 115.551 118.881 113.729 119.869 111.625C119.47 113.144 118.432 114.894 117.497 116.585C117.491 116.673 117.435 116.794 117.449 116.87C117.398 116.93 117.301 117.044 117.147 117.223ZM28.4051 116.179C28.3281 116.134 28.2201 116.014 28.1501 115.985L28.1381 115.996L28.0951 115.944C27.9341 115.787 27.9871 115.839 27.9341 115.787L27.9411 115.782C27.9411 115.782 28.0011 115.829 28.0961 115.945C28.1511 115.986 28.1511 115.986 28.1511 115.986L28.2841 116.069C28.3261 116.112 28.3641 116.138 28.4051 116.179ZM16.2681 112.578C16.2211 112.519 16.1791 112.464 16.1791 112.464C16.3091 112.547 16.3621 112.506 16.3271 112.351C16.3171 112.33 16.3001 112.308 16.2891 112.287C16.3091 112.304 16.3231 112.326 16.3441 112.343C15.7001 111.111 15.1491 109.475 15.6991 109.632C16.3441 110.56 17.0391 111.917 17.8381 112.844C18.2001 113.373 18.6081 113.971 19.0161 114.569C19.6461 116.104 19.7651 116.404 19.4481 116.868C19.0631 116.193 18.4941 115.523 17.9021 114.697C17.6391 113.947 16.9501 113.173 16.3271 112.351C16.3621 112.505 16.3221 112.536 16.2681 112.578ZM18.1861 90.112L18.2431 90.097L18.2411 90.244L18.1861 90.112ZM17.2741 94.251C17.1541 94.137 17.0771 94.116 17.0051 94.104C16.9341 94.516 16.8281 94.858 16.6571 95.054C16.7371 94.658 16.7191 94.056 17.0051 94.104C17.0481 93.851 17.0921 93.598 17.0901 93.259C17.2101 93.673 17.1281 93.844 17.2741 94.251ZM15.0581 106.442C15.0581 106.442 15.0211 106.37 14.9871 106.305C15.1781 106.655 15.4861 107.118 15.7081 107.358L15.6561 107.385C15.4861 107.117 15.3161 106.848 15.0581 106.442ZM13.9741 99.906C13.8151 99.638 13.7371 99.506 13.6961 99.437C13.6471 99.295 13.5941 99.145 13.5691 99.07C13.6731 99.284 13.8391 99.627 13.9741 99.906ZM11.8151 90.94C11.7581 90.954 11.6581 90.817 11.5561 90.608C11.5561 90.608 11.5561 90.608 11.5251 90.454C11.6071 90.676 11.7371 90.959 11.8151 90.94ZM5.53412 85.199C5.48712 85.133 5.43012 84.924 5.43012 84.924L5.44711 84.921C5.48711 85.133 5.50412 85.13 5.53412 85.199ZM7.33612 91.821C7.20712 91.861 7.28012 92.288 7.43012 92.855C7.27912 92.522 7.11112 92.193 7.06912 91.748C7.08912 91.517 7.23012 91.699 7.33612 91.821ZM10.6441 87.964C10.4891 87.679 10.3191 87.315 10.1831 86.557C10.3431 87.158 10.4921 87.599 10.6441 87.964ZM11.1481 91.655C11.1031 91.185 11.0511 90.807 11.2161 90.769C11.0841 90.799 11.1031 91.184 11.1481 91.655ZM4.60611 69.936L4.59912 70.077L4.56513 70.075V70.009C4.57213 69.935 4.57211 69.935 4.57211 69.935L4.60611 69.936ZM4.18811 72.751V72.818C4.18111 72.842 4.17711 72.87 4.17111 72.895C4.12611 73.271 4.08813 73.581 4.04913 73.91C4.04313 74.006 4.03713 74.1 4.03113 74.205C4.03113 74.056 4.03113 74.056 4.03113 74.056C4.03713 74.006 4.04313 73.959 4.04913 73.91C4.07413 73.508 4.10211 73.177 4.17111 72.895C4.17611 72.847 4.18211 72.803 4.18811 72.751ZM3.02912 83.753C3.08912 83.76 3.14813 83.736 3.20413 83.669C3.22713 83.898 3.24112 84.043 3.26312 84.264C3.19812 84.071 3.11612 83.906 3.02912 83.753C2.84712 83.731 2.64912 83.418 2.45612 83.102C2.65512 83.227 2.85712 83.453 3.02912 83.753ZM12.0051 102.578C12.1571 102.952 12.2481 103.173 12.3691 103.47C12.4761 103.864 12.6451 104.231 12.7821 104.43L12.7681 104.265C12.9001 104.647 13.0161 104.947 13.1561 105.237C13.6731 106.326 14.6331 107.923 13.9951 107.703C13.8181 107.629 13.7461 107.687 13.7561 107.848C13.5611 107.464 13.3701 107.087 13.1951 106.74L13.1811 106.749C13.1841 106.229 12.4571 105.306 12.1171 104.495C12.0111 103.887 11.8151 103.225 11.4841 102.461C11.7211 102.72 11.8891 102.729 12.0051 102.578ZM29.6371 24.997C29.6431 24.987 29.6521 24.976 29.6581 24.966C29.6601 24.965 29.6611 24.965 29.6631 24.964C29.6551 24.975 29.6451 24.986 29.6371 24.997ZM76.4961 10.545L76.4821 10.637C76.4711 10.712 76.1081 10.655 76.1011 10.705C76.1121 10.63 76.4831 10.629 76.4961 10.545ZM71.9131 9.922C71.7631 9.907 71.9141 9.91301 71.8381 9.90601C71.7631 9.90501 71.4691 9.903 71.4691 9.903L71.6211 9.884C71.9191 9.828 72.4351 9.811 72.8811 9.823C72.6561 9.885 72.0691 9.844 71.9131 9.922ZM72.8861 10.604L72.8851 10.613C72.8851 10.613 72.8091 10.622 72.6611 10.607C72.5931 10.617 72.5931 10.617 72.5931 10.617L72.4401 10.652C72.3791 10.651 72.3341 10.659 72.2751 10.66C72.3611 10.638 72.5221 10.646 72.5931 10.617L72.5941 10.601L72.6611 10.607C72.8851 10.603 72.8111 10.605 72.8861 10.604ZM122.233 99.297C122.26 99.151 122.388 98.981 122.439 98.926L122.477 98.943C122.406 99.069 122.212 99.517 122.233 99.297ZM122.392 99.78L122.333 99.888L122.348 99.756C122.326 99.778 122.306 99.807 122.285 99.83C122.285 99.815 122.289 99.8 122.289 99.785C122.307 99.794 122.34 99.754 122.374 99.707C122.365 99.724 122.357 99.739 122.348 99.756L122.392 99.78ZM129.493 79.527C129.465 79.741 129.455 79.814 129.417 80.1C129.413 79.809 129.372 79.805 129.354 79.729C129.409 79.519 129.452 79.597 129.493 79.527ZM128.142 44.714C128.157 44.747 128.153 44.736 128.183 44.8L128.147 44.729C128.143 44.722 128.145 44.722 128.142 44.714C128.107 44.64 128.074 44.57 128.05 44.52C128.009 44.364 127.999 44.289 127.999 44.289C128.008 44.361 128.052 44.516 128.142 44.714ZM127.835 37.925C127.865 37.972 127.868 37.978 127.868 37.978C127.857 37.959 127.846 37.942 127.835 37.925C127.832 37.92 127.832 37.921 127.828 37.915L127.784 37.845C127.784 37.845 127.808 37.882 127.835 37.925ZM126.875 37.067L126.846 37.084C126.846 37.084 126.846 37.084 126.802 37.015C126.86 37.075 126.875 37.067 126.875 37.067ZM106.106 18.721C105.569 18.408 105.152 18.202 104.785 18.052C105.096 18.143 105.473 18.281 106.106 18.721ZM101.953 16.76C102.029 16.761 102.131 16.779 102.271 16.827C102.271 16.827 102.271 16.827 102.402 16.914C102.251 16.844 102.067 16.774 101.953 16.76ZM102.398 16.473C102.469 16.358 102.183 16.099 101.819 15.799C102.184 16.099 102.487 16.329 102.398 16.473ZM94.5141 12.098C94.6491 12.164 94.7921 12.233 94.8631 12.267C94.6381 12.189 94.2781 12.064 93.9861 11.963C94.2891 12.04 94.4371 12.078 94.5141 12.098ZM87.5091 7.86301C87.8191 7.93301 88.1291 8.002 88.5991 8.108C88.5991 8.108 88.6761 8.13301 88.7461 8.15401C88.3641 8.04201 87.8181 7.93201 87.4921 7.91901L87.5091 7.86301ZM74.3751 0.598007C74.3081 0.615007 74.2681 0.637004 74.1481 0.660004L74.1471 0.63501L74.3751 0.598007ZM62.6201 0.987C62.6201 0.987 62.6201 0.987008 62.7841 0.999008C62.6211 1.00601 62.2891 1.022 62.1171 1.03L62.6201 0.987ZM15.3131 35.179C15.3101 35.244 15.3061 35.35 15.3031 35.441C15.3021 35.444 15.3001 35.446 15.2991 35.448C15.2821 35.382 15.2781 35.3 15.3131 35.179ZM15.2171 35.586C15.2131 35.593 15.2091 35.6 15.2051 35.607C15.1221 35.642 15.0261 35.696 14.9371 35.734C15.0441 35.669 15.1301 35.635 15.2171 35.586ZM2.19614 78.111C2.16514 78.207 2.13813 78.305 2.06513 78.224C2.06513 78.224 2.06513 78.224 2.05213 78.07C2.12813 78.233 2.16414 78.185 2.19614 78.111ZM3.82312 90.989C3.82712 90.996 3.83013 91.002 3.83313 91.009L3.82712 91.01C3.82612 91.004 3.82412 90.996 3.82312 90.989ZM11.0561 105.131C10.8681 104.667 10.6861 104.217 10.5021 103.761C10.5791 103.868 10.6531 103.979 10.7321 104.084C10.7871 104.429 11.0261 104.942 11.2431 105.407C11.1791 105.317 11.1201 105.22 11.0561 105.131ZM15.7681 114.164C14.5681 112.463 13.5381 110.557 12.9351 108.717C12.8641 108.492 12.7701 108.261 12.6771 108.03C12.8901 108.373 13.0831 108.71 13.2011 109.016C13.3561 109.537 13.8901 110.267 14.2821 110.898C14.3761 111.019 14.5061 111.104 14.6151 111.214C16.0871 113.2 17.3931 115.291 19.2861 117.082C19.2431 117.134 19.2041 117.182 19.1541 117.242C18.6111 117.645 17.1501 115.85 15.7681 114.164ZM19.8831 100.817C20.2561 100.8 20.3491 100.3 20.1821 99.392C20.1831 99.393 20.1831 99.395 20.1841 99.396C20.2961 99.956 20.4061 100.511 20.5041 100.999C20.7501 101.979 20.2141 101.215 19.8831 100.817ZM20.6981 113.23C20.7771 113.273 20.6041 112.919 20.8171 113.149C21.0301 113.379 20.8631 113.31 20.9631 113.521C20.9091 113.462 20.8061 113.349 20.6981 113.23ZM25.3401 113.276L25.4141 113.221C25.4751 113.176 25.6911 113.472 25.7321 113.442C25.6711 113.487 25.4081 113.226 25.3401 113.276ZM27.3861 116.342C27.5891 116.458 27.9741 116.902 28.1401 116.957C28.2351 117.074 28.1331 116.963 28.1821 117.021C28.2351 117.075 28.4411 117.284 28.4411 117.284L28.3201 117.19C28.0701 117.019 27.6931 116.666 27.3861 116.342ZM28.3931 129.846C28.3931 129.846 28.3931 129.846 28.2861 129.722C28.4071 129.832 28.6531 130.056 28.7801 130.172L28.3931 129.846ZM31.1531 128.66C31.1611 128.642 31.1301 128.604 31.1361 128.584C30.6681 128.064 30.3941 127.624 29.9451 127.116L29.8031 127.029C29.8031 127.029 29.8831 127.063 29.8201 127.01C29.8831 127.063 29.8831 127.063 29.9451 127.116C31.0491 127.997 31.1991 128.343 31.1361 128.584C31.2271 128.685 31.2771 128.769 31.3901 128.879C31.2741 128.773 31.2741 128.773 31.1531 128.66ZM36.1071 120.358C36.3821 120.463 36.4551 120.49 36.6611 120.569C36.5571 120.581 36.6871 120.744 36.7081 120.828C36.4961 120.65 36.2981 120.561 36.1071 120.358ZM39.7031 128.453L39.7221 128.425L39.7711 128.489C39.7071 128.446 39.7031 128.453 39.7031 128.453ZM47.0851 129.024C47.4111 129.165 47.5001 129.136 47.7131 129.195C47.4991 129.137 47.4511 129.225 47.0851 129.024ZM50.6931 130.933C50.7591 130.962 50.7631 130.954 50.7631 130.954L50.7601 130.962L50.6931 130.933C50.6451 130.921 50.6141 130.927 50.5671 130.917C50.2741 131.059 49.7011 130.925 49.0511 130.688C48.7751 130.619 48.4771 130.51 48.1231 130.312C48.0821 130.289 48.0631 130.301 48.0211 130.276C47.7631 130.157 47.7621 130.157 47.5701 130.069C47.7491 130.15 47.9371 130.231 48.1231 130.312C48.4371 130.45 48.7521 130.579 49.0511 130.688C49.5741 130.82 50.0111 130.801 50.5671 130.917C50.5841 130.908 50.6181 130.917 50.6331 130.907C50.6671 130.906 50.6171 130.88 50.6421 130.877C50.4331 130.643 50.2761 130.469 50.0621 130.23C50.0291 130.209 50.0041 130.191 49.9721 130.17C50.0311 130.196 50.0311 130.196 50.0311 130.196C50.0001 130.152 49.9131 130.086 49.8721 130.037C49.1701 129.58 48.5091 129.104 48.0061 128.646L47.9901 128.676C47.2821 128.234 46.4531 127.717 46.4531 127.717C46.4531 127.717 47.2261 128.186 47.8181 128.544C47.9431 128.612 47.9431 128.612 48.0061 128.647C48.9851 129.17 49.5541 129.656 49.8721 130.037C49.9811 130.108 50.0491 130.185 50.1621 130.254C50.1621 130.254 50.1621 130.253 50.0311 130.196C50.0431 130.209 50.0501 130.219 50.0621 130.232C50.5371 130.533 50.9941 130.825 50.6421 130.879C50.6601 130.897 50.6731 130.911 50.6931 130.933ZM52.4801 131.236L51.7091 130.904C51.9721 130.999 52.2811 131.17 52.6241 131.262C52.6241 131.262 52.5521 131.249 52.4801 131.236ZM56.4491 136.401L56.4571 136.377L56.4601 136.369L56.4491 136.401ZM60.2371 134.606C60.3221 134.571 60.0531 134.486 60.0661 134.437C60.1231 134.499 60.2461 134.573 60.4441 134.671C60.3061 134.628 60.3061 134.628 60.2371 134.606ZM65.4711 135.829L65.4751 135.804L65.6121 135.859L65.4711 135.829ZM68.9061 136.319C68.5701 136.143 68.1711 135.96 67.7631 135.808C68.0451 135.824 68.6071 135.856 69.1051 135.883C69.3691 136.034 69.5641 136.193 68.9061 136.319ZM74.3631 131.991C74.4281 132.043 74.6211 132.08 74.8881 132.136C74.8881 132.136 74.9471 132.188 75.0811 132.207L75.0801 132.224C74.9471 132.187 74.8881 132.136 74.8881 132.136C74.5621 132.07 74.4281 132.044 74.2351 132.005C74.3621 132.008 74.3631 131.991 74.3631 131.991ZM75.0621 133.043C75.1301 133.044 75.1301 133.044 75.1301 133.044C75.0611 133.093 74.8621 133.14 74.6561 133.186C74.8611 133.14 74.9241 133.091 75.0621 133.043ZM86.2841 138.876C86.2741 138.885 86.2581 138.9 86.2461 138.911C86.2141 138.978 86.1481 139.05 86.0221 139.119C86.0781 139.068 86.1741 138.978 86.2461 138.911C86.2661 138.869 86.2761 138.828 86.2711 138.792C86.2851 138.884 86.5151 138.929 86.6801 138.994C86.5191 138.954 86.4321 138.893 86.2841 138.876ZM92.1641 132.008C91.8931 132.094 91.5421 132.245 91.5041 132.105C91.3781 132.141 91.4911 132.056 91.2941 132.095C91.3071 132.084 91.3121 132.074 91.3201 132.064C91.3721 132.043 91.4251 132.026 91.4771 132.005L91.5031 132.104L91.9141 132.057C91.9961 132.041 92.0771 132.026 92.1641 132.008C92.2101 131.993 92.2671 131.971 92.3061 131.963L92.3111 131.979C92.2871 131.983 92.2151 131.998 92.1641 132.008ZM105.758 125.774C104.843 126.211 104.029 126.543 103.715 126.374C103.265 126.239 104.195 125.713 104.968 125.21C105.302 124.988 105.728 124.673 105.474 124.629C104.933 124.743 104.191 125.306 103.789 125.259C104.469 124.728 105.357 124.431 106.075 123.853C105.903 123.896 105.794 123.911 105.742 123.879C105.713 123.888 105.684 123.898 105.654 123.908C105.71 123.871 105.71 123.871 105.71 123.871C105.715 123.879 105.734 123.874 105.742 123.879C105.898 123.828 106.038 123.792 106.075 123.853C106.174 123.758 106.336 123.651 106.522 123.58C107.465 123.222 108.439 122.317 109.43 121.893C110.796 121.212 111.864 120.199 112.993 119.097L113.05 119.061L113.149 118.969C113.097 119.011 113.097 119.011 113.097 119.011C113.924 117.859 112.826 118.797 112.147 119.306L111.846 119.55L111.669 119.651C111.116 119.792 110.163 120.685 109.608 120.803C111.937 118.943 114.34 117.061 116.38 114.878C116.519 114.737 116.674 114.589 116.831 114.439C116.81 114.475 116.792 114.509 116.789 114.525C116.648 114.795 116.893 114.611 117.073 114.373C117.216 114.204 117.333 114.014 117.333 114.014C117.322 114.005 117.307 113.997 117.294 113.988C117.678 113.601 117.991 113.226 118.001 112.94C118.049 112.573 118.249 112.171 118.53 111.739C119.071 111.477 119.871 110.688 120.226 110.765C119.912 111.276 119.777 111.557 119.803 111.757C118.656 113.338 118.342 114.135 117.707 115.284C117.087 116.353 116.894 117.1 115.859 118.428C115.298 119.058 114.787 119.679 114.298 120.293C114.162 120.39 114.028 120.491 113.891 120.586C111.334 122.501 108.559 124.173 105.758 125.774ZM108.763 125.222C108.824 125.186 109.06 125.047 109.06 125.047C109.151 125.022 109.243 124.97 109.334 124.919C109.468 124.841 109.592 124.773 109.685 124.755C109.568 124.787 109.451 124.854 109.334 124.919C109.153 125.024 108.952 125.15 108.763 125.222Z" fill="url(#paint6_radial_2959_13851)"/>
<path fill-rule="evenodd" clip-rule="evenodd" d="M19.2402 27.0139C18.9912 27.7359 17.2372 29.6629 16.9302 30.6029C19.7162 27.3669 19.8352 27.4829 19.2402 27.0139Z" fill="url(#paint7_radial_2959_13851)"/>
<path fill-rule="evenodd" clip-rule="evenodd" d="M1.62801 64.192C1.86101 63.373 2.02101 62.086 2.32201 61.371C3.09301 59.818 3.16703 57.503 3.85503 55.64C4.00103 55.213 4.20001 54.632 4.39601 54.059C4.87701 53.106 5.13501 51.587 5.69301 50.588C5.92601 50.033 6.10201 49.612 6.27901 49.192C6.96101 47.28 7.63602 45.412 8.71202 43.76L8.826 43.48L8.94102 43.287C10.723 40.357 12.1 37.777 13.415 35.369L14.54 33.689C14.891 33.097 15.168 32.559 15.065 32.486C15.061 32.467 15.05 32.465 15.042 32.457C15.436 31.773 15.834 31.096 16.249 30.427C11.515 36.258 7.85402 42.883 5.18602 49.831C5.13302 49.59 4.89102 50.048 4.70802 50.606C4.27402 51.97 3.73002 53.356 3.39302 54.693C2.85802 55.847 2.53201 57.291 2.26601 58.701C2.06101 59.6 1.87303 60.422 1.66603 61.328C1.39603 62.136 1.247 63.277 1.033 64.107C0.991004 64.492 0.949006 64.717 0.891006 64.94C0.590006 65.683 0.527028 66.771 0.420028 67.843C0.379028 68.15 0.327028 68.535 0.295028 68.771C0.214028 69.146 0.0670204 69.607 0.0310204 69.915C0.0200204 71.082 0.0100145 72.162 1.45194e-05 73.329C-0.000985481 73.409 0.0500023 73.559 0.0500023 73.559C0.100002 73.638 0.134012 73.638 0.185012 73.408C0.271012 73.17 0.356018 72.941 0.410018 72.476H0.39302C0.54802 71.942 0.522003 71.098 0.632003 70.409C0.637003 70.173 0.633012 69.945 0.672012 69.719C0.900012 69.189 0.96603 68.581 1.04103 67.744C0.97103 68.017 0.903015 68.235 0.832015 68.426C0.802015 68.523 0.774012 68.614 0.741012 68.722C0.741012 68.722 0.741031 68.722 0.748031 68.644C0.778031 68.582 0.804008 68.5 0.831008 68.427C0.905008 68.185 0.974023 67.959 1.04002 67.745C1.37402 66.856 1.28102 65.149 1.63402 64.113L1.62801 64.192Z" fill="url(#paint8_radial_2959_13851)"/>
<path fill-rule="evenodd" clip-rule="evenodd" d="M125.598 26.099C124.1 23.847 122.505 22.692 121.21 21.655C122.649 22.809 124.189 25.129 125.598 26.099Z" fill="url(#paint9_radial_2959_13851)"/>
<path fill-rule="evenodd" clip-rule="evenodd" d="M133.266 37.0479C133.716 37.8979 134.246 38.8969 134.734 39.8179C134.999 40.2629 135.276 40.8129 135.453 41.0149C135.877 41.4859 135.713 40.8929 135.398 40.2689C134.437 38.4119 133.617 36.3469 132.371 34.9529C132.229 34.7359 132.086 34.5189 131.895 34.2279C131.494 33.6549 131.071 33.0869 130.928 33.1769C130.723 33.1069 131.097 33.6909 131.377 34.1349C132.032 35.1539 132.657 36.2959 133.266 37.0479Z" fill="url(#paint10_radial_2959_13851)"/>
<path fill-rule="evenodd" clip-rule="evenodd" d="M24.9091 21.4429C24.7321 21.4749 24.4681 21.6419 24.2591 21.8739C24.0531 22.1069 23.7931 22.4009 23.5391 22.6879C23.8541 22.4749 24.0521 22.3399 24.2421 22.2109C24.6611 21.8759 24.9941 21.5479 24.9091 21.4429Z" fill="url(#paint11_radial_2959_13851)"/>
<path fill-rule="evenodd" clip-rule="evenodd" d="M21.9129 24.4579C21.9769 24.3089 22.0119 24.2249 22.0789 24.0669C21.8909 24.2139 21.5919 24.4479 21.4039 24.5949C21.4499 24.6439 21.2169 24.9609 21.3659 24.8889C21.4449 24.8579 21.7359 24.6029 21.9129 24.4579Z" fill="url(#paint12_radial_2959_13851)"/>
<path fill-rule="evenodd" clip-rule="evenodd" d="M135.269 106.872C135.109 107.081 135.07 106.674 134.785 107.507C134.731 107.679 134.725 107.866 134.763 107.886C134.889 107.76 135.084 107.468 135.284 107.167C135.433 106.852 135.479 106.587 135.269 106.872Z" fill="url(#paint13_radial_2959_13851)"/>
<path fill-rule="evenodd" clip-rule="evenodd" d="M140.888 60.406C141.103 60.548 140.896 59.622 140.814 59.106L140.193 56.051C139.938 55.493 139.791 55.532 139.808 56.143L140.409 59.185C140.579 59.851 140.763 60.428 140.888 60.406Z" fill="url(#paint14_radial_2959_13851)"/>
<path fill-rule="evenodd" clip-rule="evenodd" d="M108.331 15.8811L108.632 16.1641L108.486 15.9381L108.331 15.8811Z" fill="url(#paint15_radial_2959_13851)"/>
<path d="M85.4518 108.972H55.6918C42.4848 108.972 31.7378 98.2261 31.7378 85.0171V58.7931C31.7378 45.5851 42.4838 34.8401 55.6918 34.8401H85.4518C98.6588 34.8401 109.405 45.5851 109.405 58.7931V85.0171C109.404 98.2261 98.6578 108.972 85.4518 108.972ZM55.6918 40.1641C45.4188 40.1641 37.0618 48.5211 37.0618 58.7941V85.0181C37.0618 95.2911 45.4188 103.648 55.6918 103.648H85.4518C95.7238 103.648 104.081 95.2911 104.081 85.0181V58.7941C104.081 48.5211 95.7238 40.1641 85.4518 40.1641H55.6918Z" fill="white"/>
<path d="M70.572 93.228C58.814 93.228 49.25 83.663 49.25 71.906C49.25 60.147 58.814 50.584 70.572 50.584C82.329 50.584 91.894 60.147 91.894 71.906C91.893 83.664 82.329 93.228 70.572 93.228ZM70.572 55.906C61.75 55.906 54.572 63.083 54.572 71.906C54.572 80.727 61.749 87.905 70.572 87.905C79.393 87.905 86.57 80.728 86.57 71.906C86.57 63.084 79.393 55.906 70.572 55.906Z" fill="white"/>
<path d="M95.9906 51.2402C95.9906 53.6822 94.0106 55.6632 91.5676 55.6632C89.1236 55.6632 87.1426 53.6822 87.1426 51.2402C87.1426 48.7962 89.1236 46.8152 91.5676 46.8152C94.0106 46.8152 95.9906 48.7962 95.9906 51.2402Z" fill="white"/>
<defs>
<radialGradient id="paint0_radial_2959_13851" cx="0" cy="0" r="1" gradientUnits="userSpaceOnUse" gradientTransform="translate(3.52985 131.908) scale(238.48 238.478)">
<stop stop-color="#F9ED32"/>
<stop offset="0.0615" stop-color="#F8D939"/>
<stop offset="0.1874" stop-color="#F5A54D"/>
<stop offset="0.365" stop-color="#F0536C"/>
<stop offset="0.4486" stop-color="#EE2A7B"/>
<stop offset="0.5994" stop-color="#9E2AA7"/>
<stop offset="0.7418" stop-color="#5B2ACD"/>
<stop offset="0.86" stop-color="#2A2AE8"/>
<stop offset="0.9496" stop-color="#0B2AF9"/>
<stop offset="1" stop-color="#002AFF"/>
</radialGradient>
<radialGradient id="paint1_radial_2959_13851" cx="0" cy="0" r="1" gradientUnits="userSpaceOnUse" gradientTransform="translate(3.52905 131.908) scale(238.485 238.484)">
<stop stop-color="#F9ED32"/>
<stop offset="0.0615" stop-color="#F8D939"/>
<stop offset="0.1874" stop-color="#F5A54D"/>
<stop offset="0.365" stop-color="#F0536C"/>
<stop offset="0.4486" stop-color="#EE2A7B"/>
<stop offset="0.5994" stop-color="#9E2AA7"/>
<stop offset="0.7418" stop-color="#5B2ACD"/>
<stop offset="0.86" stop-color="#2A2AE8"/>
<stop offset="0.9496" stop-color="#0B2AF9"/>
<stop offset="1" stop-color="#002AFF"/>
</radialGradient>
<radialGradient id="paint2_radial_2959_13851" cx="0" cy="0" r="1" gradientUnits="userSpaceOnUse" gradientTransform="translate(3.52778 131.909) scale(238.486 238.475)">
<stop stop-color="#F9ED32"/>
<stop offset="0.0615" stop-color="#F8D939"/>
<stop offset="0.1874" stop-color="#F5A54D"/>
<stop offset="0.365" stop-color="#F0536C"/>
<stop offset="0.4486" stop-color="#EE2A7B"/>
<stop offset="0.5994" stop-color="#9E2AA7"/>
<stop offset="0.7418" stop-color="#5B2ACD"/>
<stop offset="0.86" stop-color="#2A2AE8"/>
<stop offset="0.9496" stop-color="#0B2AF9"/>
<stop offset="1" stop-color="#002AFF"/>
</radialGradient>
<radialGradient id="paint3_radial_2959_13851" cx="0" cy="0" r="1" gradientUnits="userSpaceOnUse" gradientTransform="translate(3.53354 131.911) scale(238.465 238.466)">
<stop stop-color="#F9ED32"/>
<stop offset="0.0615" stop-color="#F8D939"/>
<stop offset="0.1874" stop-color="#F5A54D"/>
<stop offset="0.365" stop-color="#F0536C"/>
<stop offset="0.4486" stop-color="#EE2A7B"/>
<stop offset="0.5994" stop-color="#9E2AA7"/>
<stop offset="0.7418" stop-color="#5B2ACD"/>
<stop offset="0.86" stop-color="#2A2AE8"/>
<stop offset="0.9496" stop-color="#0B2AF9"/>
<stop offset="1" stop-color="#002AFF"/>
</radialGradient>
<radialGradient id="paint4_radial_2959_13851" cx="0" cy="0" r="1" gradientUnits="userSpaceOnUse" gradientTransform="translate(3.52914 131.908) scale(238.482 238.482)">
<stop stop-color="#F9ED32"/>
<stop offset="0.0615" stop-color="#F8D939"/>
<stop offset="0.1874" stop-color="#F5A54D"/>
<stop offset="0.365" stop-color="#F0536C"/>
<stop offset="0.4486" stop-color="#EE2A7B"/>
<stop offset="0.5994" stop-color="#9E2AA7"/>
<stop offset="0.7418" stop-color="#5B2ACD"/>
<stop offset="0.86" stop-color="#2A2AE8"/>
<stop offset="0.9496" stop-color="#0B2AF9"/>
<stop offset="1" stop-color="#002AFF"/>
</radialGradient>
<radialGradient id="paint5_radial_2959_13851" cx="0" cy="0" r="1" gradientUnits="userSpaceOnUse" gradientTransform="translate(3.47605 131.903) scale(238.578 238.561)">
<stop stop-color="#F9ED32"/>
<stop offset="0.0615" stop-color="#F8D939"/>
<stop offset="0.1874" stop-color="#F5A54D"/>
<stop offset="0.365" stop-color="#F0536C"/>
<stop offset="0.4486" stop-color="#EE2A7B"/>
<stop offset="0.5994" stop-color="#9E2AA7"/>
<stop offset="0.7418" stop-color="#5B2ACD"/>
<stop offset="0.86" stop-color="#2A2AE8"/>
<stop offset="0.9496" stop-color="#0B2AF9"/>
<stop offset="1" stop-color="#002AFF"/>
</radialGradient>
<radialGradient id="paint6_radial_2959_13851" cx="0" cy="0" r="1" gradientUnits="userSpaceOnUse" gradientTransform="translate(3.52927 131.908) scale(238.482 238.482)">
<stop stop-color="#F9ED32"/>
<stop offset="0.0615" stop-color="#F8D939"/>
<stop offset="0.1874" stop-color="#F5A54D"/>
<stop offset="0.365" stop-color="#F0536C"/>
<stop offset="0.4486" stop-color="#EE2A7B"/>
<stop offset="0.5994" stop-color="#9E2AA7"/>
<stop offset="0.7418" stop-color="#5B2ACD"/>
<stop offset="0.86" stop-color="#2A2AE8"/>
<stop offset="0.9496" stop-color="#0B2AF9"/>
<stop offset="1" stop-color="#002AFF"/>
</radialGradient>
<radialGradient id="paint7_radial_2959_13851" cx="0" cy="0" r="1" gradientUnits="userSpaceOnUse" gradientTransform="translate(3.52941 131.907) scale(238.481 238.481)">
<stop stop-color="#F9ED32"/>
<stop offset="0.0615" stop-color="#F8D939"/>
<stop offset="0.1874" stop-color="#F5A54D"/>
<stop offset="0.365" stop-color="#F0536C"/>
<stop offset="0.4486" stop-color="#EE2A7B"/>
<stop offset="0.5994" stop-color="#9E2AA7"/>
<stop offset="0.7418" stop-color="#5B2ACD"/>
<stop offset="0.86" stop-color="#2A2AE8"/>
<stop offset="0.9496" stop-color="#0B2AF9"/>
<stop offset="1" stop-color="#002AFF"/>
</radialGradient>
<radialGradient id="paint8_radial_2959_13851" cx="0" cy="0" r="1" gradientUnits="userSpaceOnUse" gradientTransform="translate(3.52915 131.907) scale(238.481 238.481)">
<stop stop-color="#F9ED32"/>
<stop offset="0.0615" stop-color="#F8D939"/>
<stop offset="0.1874" stop-color="#F5A54D"/>
<stop offset="0.365" stop-color="#F0536C"/>
<stop offset="0.4486" stop-color="#EE2A7B"/>
<stop offset="0.5994" stop-color="#9E2AA7"/>
<stop offset="0.7418" stop-color="#5B2ACD"/>
<stop offset="0.86" stop-color="#2A2AE8"/>
<stop offset="0.9496" stop-color="#0B2AF9"/>
<stop offset="1" stop-color="#002AFF"/>
</radialGradient>
<radialGradient id="paint9_radial_2959_13851" cx="0" cy="0" r="1" gradientUnits="userSpaceOnUse" gradientTransform="translate(3.52819 131.906) scale(238.482 238.482)">
<stop stop-color="#F9ED32"/>
<stop offset="0.0615" stop-color="#F8D939"/>
<stop offset="0.1874" stop-color="#F5A54D"/>
<stop offset="0.365" stop-color="#F0536C"/>
<stop offset="0.4486" stop-color="#EE2A7B"/>
<stop offset="0.5994" stop-color="#9E2AA7"/>
<stop offset="0.7418" stop-color="#5B2ACD"/>
<stop offset="0.86" stop-color="#2A2AE8"/>
<stop offset="0.9496" stop-color="#0B2AF9"/>
<stop offset="1" stop-color="#002AFF"/>
</radialGradient>
<radialGradient id="paint10_radial_2959_13851" cx="0" cy="0" r="1" gradientUnits="userSpaceOnUse" gradientTransform="translate(3.52955 131.908) scale(238.483 238.482)">
<stop stop-color="#F9ED32"/>
<stop offset="0.0615" stop-color="#F8D939"/>
<stop offset="0.1874" stop-color="#F5A54D"/>
<stop offset="0.365" stop-color="#F0536C"/>
<stop offset="0.4486" stop-color="#EE2A7B"/>
<stop offset="0.5994" stop-color="#9E2AA7"/>
<stop offset="0.7418" stop-color="#5B2ACD"/>
<stop offset="0.86" stop-color="#2A2AE8"/>
<stop offset="0.9496" stop-color="#0B2AF9"/>
<stop offset="1" stop-color="#002AFF"/>
</radialGradient>
<radialGradient id="paint11_radial_2959_13851" cx="0" cy="0" r="1" gradientUnits="userSpaceOnUse" gradientTransform="translate(3.52968 131.902) scale(238.471 238.471)">
<stop stop-color="#F9ED32"/>
<stop offset="0.0615" stop-color="#F8D939"/>
<stop offset="0.1874" stop-color="#F5A54D"/>
<stop offset="0.365" stop-color="#F0536C"/>
<stop offset="0.4486" stop-color="#EE2A7B"/>
<stop offset="0.5994" stop-color="#9E2AA7"/>
<stop offset="0.7418" stop-color="#5B2ACD"/>
<stop offset="0.86" stop-color="#2A2AE8"/>
<stop offset="0.9496" stop-color="#0B2AF9"/>
<stop offset="1" stop-color="#002AFF"/>
</radialGradient>
<radialGradient id="paint12_radial_2959_13851" cx="0" cy="0" r="1" gradientUnits="userSpaceOnUse" gradientTransform="translate(3.52922 131.909) scale(238.491 238.484)">
<stop stop-color="#F9ED32"/>
<stop offset="0.0615" stop-color="#F8D939"/>
<stop offset="0.1874" stop-color="#F5A54D"/>
<stop offset="0.365" stop-color="#F0536C"/>
<stop offset="0.4486" stop-color="#EE2A7B"/>
<stop offset="0.5994" stop-color="#9E2AA7"/>
<stop offset="0.7418" stop-color="#5B2ACD"/>
<stop offset="0.86" stop-color="#2A2AE8"/>
<stop offset="0.9496" stop-color="#0B2AF9"/>
<stop offset="1" stop-color="#002AFF"/>
</radialGradient>
<radialGradient id="paint13_radial_2959_13851" cx="0" cy="0" r="1" gradientUnits="userSpaceOnUse" gradientTransform="translate(3.52666 131.907) scale(238.486 238.489)">
<stop stop-color="#F9ED32"/>
<stop offset="0.0615" stop-color="#F8D939"/>
<stop offset="0.1874" stop-color="#F5A54D"/>
<stop offset="0.365" stop-color="#F0536C"/>
<stop offset="0.4486" stop-color="#EE2A7B"/>
<stop offset="0.5994" stop-color="#9E2AA7"/>
<stop offset="0.7418" stop-color="#5B2ACD"/>
<stop offset="0.86" stop-color="#2A2AE8"/>
<stop offset="0.9496" stop-color="#0B2AF9"/>
<stop offset="1" stop-color="#002AFF"/>
</radialGradient>
<radialGradient id="paint14_radial_2959_13851" cx="0" cy="0" r="1" gradientUnits="userSpaceOnUse" gradientTransform="translate(3.52474 131.908) scale(238.489 238.484)">
<stop stop-color="#F9ED32"/>
<stop offset="0.0615" stop-color="#F8D939"/>
<stop offset="0.1874" stop-color="#F5A54D"/>
<stop offset="0.365" stop-color="#F0536C"/>
<stop offset="0.4486" stop-color="#EE2A7B"/>
<stop offset="0.5994" stop-color="#9E2AA7"/>
<stop offset="0.7418" stop-color="#5B2ACD"/>
<stop offset="0.86" stop-color="#2A2AE8"/>
<stop offset="0.9496" stop-color="#0B2AF9"/>
<stop offset="1" stop-color="#002AFF"/>
</radialGradient>
<radialGradient id="paint15_radial_2959_13851" cx="0" cy="0" r="1" gradientUnits="userSpaceOnUse" gradientTransform="translate(3.50723 131.901) scale(238.506 238.49)">
<stop stop-color="#F9ED32"/>
<stop offset="0.0615" stop-color="#F8D939"/>
<stop offset="0.1874" stop-color="#F5A54D"/>
<stop offset="0.365" stop-color="#F0536C"/>
<stop offset="0.4486" stop-color="#EE2A7B"/>
<stop offset="0.5994" stop-color="#9E2AA7"/>
<stop offset="0.7418" stop-color="#5B2ACD"/>
<stop offset="0.86" stop-color="#2A2AE8"/>
<stop offset="0.9496" stop-color="#0B2AF9"/>
<stop offset="1" stop-color="#002AFF"/>
</radialGradient>
</defs>
</svg>
