<svg width="142" height="144" viewBox="0 0 142 144" fill="none" xmlns="http://www.w3.org/2000/svg">
<path fill-rule="evenodd" clip-rule="evenodd" d="M77.471 142.116C78.158 141.781 80.76 141.659 81.643 141.212C77.384 141.531 77.381 141.365 77.471 142.116Z" fill="#395398"/>
<path fill-rule="evenodd" clip-rule="evenodd" d="M1.61682 67.5571C1.08282 70.2091 1.39482 72.1531 1.57682 73.8031C1.37582 71.9691 1.92682 69.2391 1.61682 67.5571Z" fill="#395398"/>
<path fill-rule="evenodd" clip-rule="evenodd" d="M69.5229 142.047C69.6709 142.149 69.9749 142.218 70.2879 142.202C70.5989 142.183 70.99 142.159 71.373 142.136C70.999 142.064 70.764 142.019 70.539 141.976C70.005 141.916 69.5369 141.913 69.5229 142.047Z" fill="#395398"/>
<path fill-rule="evenodd" clip-rule="evenodd" d="M73.7729 142.034C73.6219 142.095 73.5379 142.129 73.3789 142.193C73.6159 142.222 73.9929 142.268 74.2299 142.297C74.2319 142.23 74.6209 142.17 74.4649 142.116C74.3869 142.081 74.0009 142.056 73.7729 142.034Z" fill="#395398"/>
<path fill-rule="evenodd" clip-rule="evenodd" d="M80.6311 1.22312C83.0311 1.75512 85.7541 2.35812 88.0881 2.87612C88.9791 3.14512 89.9541 3.43912 90.9281 3.73312C93.0011 4.02712 95.0191 5.36511 96.9121 5.90311L96.7761 5.78011C97.7831 6.23311 98.639 6.61811 99.645 7.07111C100.541 7.35811 101.604 8.08812 102.484 8.41912C104.035 9.30512 105.647 10.0821 106.996 10.9931C107.771 11.5181 108.333 11.9031 108.845 12.0711C110.047 12.8921 111.177 13.6641 112.452 14.5351C112.93 14.7491 113.694 15.4571 114.092 15.6371C114.465 15.8621 114.755 16.0521 115.005 16.1651C114.484 15.4371 113.564 14.7821 112.729 14.1741L108.46 11.2551C107.196 10.3501 106.01 9.48412 104.742 9.11312C103.759 8.59012 102.853 8.10712 101.94 7.62112C100.434 7.00612 98.6141 5.87412 97.0881 5.50112C96.4611 5.23412 95.834 4.96612 95.279 4.72912C94.178 4.28112 93.1071 3.72812 92.2131 3.67712C91.8051 3.54512 91.397 3.41312 91.072 3.30912C90.758 3.17312 90.4321 3.06912 90.0911 3.01412C89.7611 2.92312 89.5161 2.85612 89.1871 2.76612C86.3551 1.79612 83.5291 1.09211 80.6441 0.67411C79.8801 0.56511 79.4421 0.591122 79.4151 0.749122C79.3891 0.909122 79.8781 1.09012 80.6311 1.22312ZM107.451 11.0781C107.47 11.0901 107.496 11.1071 107.517 11.1211C107.769 11.2091 108.072 11.4611 108.446 11.7361C108.059 11.4801 107.733 11.2651 107.517 11.1211C107.492 11.1131 107.466 11.0971 107.442 11.0921L107.451 11.0781Z" fill="#395398"/>
<path fill-rule="evenodd" clip-rule="evenodd" d="M131.067 113.493C131.057 113.509 131.046 113.525 131.036 113.541C130.998 113.597 130.975 113.661 130.937 113.716L131.067 113.493Z" fill="#395398"/>
<path fill-rule="evenodd" clip-rule="evenodd" d="M140.673 83.558C140.672 83.518 140.674 83.475 140.674 83.434C140.978 81.597 141.241 79.738 141.104 77.752C141.036 77.896 140.991 78.055 140.94 78.212C140.96 77.812 140.969 77.401 140.916 77.053L140.861 76.797L140.891 76.458C140.909 74.922 140.927 73.385 140.946 71.762C140.899 71.51 140.852 71.257 140.773 70.834C140.352 66.423 139.578 61.826 138.391 57.524C138.267 57.199 138.119 56.81 138.027 56.567C136.938 52.859 135.727 49.474 134.228 45.75C134.083 45.54 133.842 45.189 133.699 44.98C133.541 44.593 133.415 44.285 133.289 43.976C133.195 43.383 132.881 42.791 132.437 42.17C131.218 39.893 130.213 37.379 128.677 35.783C126.558 33.177 124.196 29.796 121.658 27.275C120.416 25.959 119.698 24.597 118.429 23.4C117.195 22.296 116.985 22.732 115.22 21.273C113.32 19.84 111.485 18.204 109.432 16.726L109.311 16.888C109.284 16.786 109.199 16.634 109.432 16.726L108.632 16.165L108.514 16.329C107.644 15.727 106.842 15.172 106.033 14.613C105.805 14.521 105.42 14.365 105.114 14.241L104.819 14.102L104.638 13.939C103.932 13.376 102.913 13.037 102.539 12.559C103.011 12.556 104.55 13.465 104.691 13.242C101.846 11.477 100.068 10.797 98.8622 10.864C98.3032 10.543 97.5102 10.136 97.5682 10.015C98.0282 9.638 96.7772 9.213 95.1562 8.666C93.8362 8.239 93.4452 8.352 93.4892 8.681C93.1172 8.525 92.8972 8.432 92.6012 8.308C92.2472 8.105 91.8682 7.96601 91.6302 7.92101L91.7572 8.028C91.3942 7.851 91.0992 7.72101 90.7962 7.61501C89.6602 7.21101 87.8522 6.76 88.4592 6.464C88.9432 6.263 88.2012 5.929 86.8742 5.522C85.7752 5.208 84.7152 4.725 83.5172 4.845C84.8442 5.261 86.3902 6.028 85.8912 6.306C85.3212 6.204 84.6632 6.03201 83.9932 5.87601C83.6122 5.51701 83.3152 5.168 82.6982 4.8C82.5552 4.614 82.4002 4.45301 81.7542 4.29001C81.6702 3.84601 81.3572 3.39701 80.6522 2.97501C81.2822 3.01801 81.9622 3.08401 82.6372 3.15001C84.6882 3.50401 86.7652 4.124 88.4922 4.998C89.6072 5.576 91.0272 5.997 92.3572 6.205C94.1852 6.98 95.9282 7.72 97.7562 8.495C102.259 10.562 106.496 12.967 110.446 15.367L110.366 15.331C112.651 16.75 114.636 18.832 116.852 20.491C117.712 21.041 118.731 22.049 119.724 23.078C120.03 23.37 120.399 23.721 120.762 24.067C121.464 24.688 122.187 25.51 122.871 26.252C124.993 28.865 127.02 31.14 128.798 33.619C128.701 33.383 128.7 33.382 128.636 33.227C128.636 33.227 128.636 33.227 128.725 33.366L128.798 33.619C129.374 34.466 130.02 35.552 130.561 36.019L130.863 36.437L131.108 36.877C131.976 38.445 132.707 40.252 133.637 41.404C133.86 41.77 133.922 41.838 134.113 42.219C134.592 43.301 135.109 44.376 135.569 45.197C135.667 45.44 135.682 45.434 135.73 45.414C135.809 45.476 135.808 45.382 135.757 45.119C135.163 42.506 133.976 39.888 132.158 37.076C131.695 36.348 131.051 35.334 130.547 34.54C127.412 28.801 123.41 24.691 119.025 21.153C118.426 20.556 117.933 20.088 117.459 19.845C116.873 19.354 116.271 18.878 115.848 18.715C115.256 18.235 114.798 17.863 114.34 17.492C113.505 16.776 112.736 16.116 111.9 15.399C108.372 12.334 104.269 10.027 100.052 8.14101C98.1522 7.24601 96.0492 6.612 94.0432 5.554C92.5622 4.723 90.6002 3.932 91.2432 4.914C91.3392 5.13 90.0572 4.75301 89.2572 4.50301C87.7352 4.06901 85.9992 3.449 84.3572 3.108C84.1922 3.098 83.8662 3.028 83.7082 2.952C83.3992 2.809 83.0712 2.73901 82.5692 2.71201C82.3922 2.71801 82.1492 2.66701 81.8302 2.55901C80.4142 2.10001 78.9742 1.702 77.5082 1.388C77.0462 1.238 76.4472 1.103 75.6322 0.992004C75.5422 0.814004 75.2752 0.666996 74.5022 0.576996C74.1462 0.497996 73.8872 0.459998 73.4512 0.419998L73.1952 0.462997C73.1062 0.469997 73.1062 0.470001 73.1062 0.470001C73.1952 0.457001 73.2822 0.445005 73.4512 0.421005C73.2762 0.264005 72.9252 0.169 72.0482 0.166L71.9572 0.139008L71.9582 0.156006C71.8712 0.0440059 71.5192 0.011 70.8992 0C70.7322 0.046 70.2952 0.0810096 70.2012 0.0380096C68.5752 0.16201 66.9442 0.395008 65.3222 0.680008C64.4252 0.605008 63.4292 0.654002 62.5232 0.761002C58.5742 0.993002 54.8462 1.569 50.9062 2.431L50.9142 2.464L50.9212 2.49701L50.9062 2.431C49.1782 2.407 46.9872 3.377 45.0232 3.825C44.1472 3.857 43.0242 4.233 42.0822 4.597C41.4882 4.683 40.6802 4.946 39.8132 5.274C38.7792 5.652 39.1952 5.77601 38.5912 6.07401C38.1322 6.29601 37.7072 6.57101 37.5922 6.73601C37.3212 6.95101 36.0202 7.531 36.3522 7.655C36.4992 7.768 36.7832 7.789 37.4392 7.629C37.7152 7.825 38.4862 7.726 39.6102 7.418L39.8212 7.28801L39.8282 7.304C39.7502 7.335 39.6712 7.36701 39.6112 7.41901C40.3682 7.54901 41.2132 7.69301 41.9712 7.82201C42.0732 8.08801 42.3932 8.25101 43.4142 8.04001C42.8602 8.38201 42.3192 8.733 41.8112 9.106C40.3182 9.963 38.3112 10.657 37.4772 11.773C35.4552 13.245 33.0652 14.664 31.4612 16.374L31.5922 16.27C30.6452 17.282 29.0782 18.208 28.4142 19.149L28.4032 19.136C27.9872 19.579 27.2322 20.139 26.8212 20.699L26.6792 20.918L26.4182 21.136C25.5092 22.024 24.5912 22.921 23.6462 23.844C22.4252 24.817 21.1992 25.849 20.2492 27.251C18.9822 28.971 16.5272 31.665 15.1412 33.834C13.7362 36.144 11.5772 38.365 10.8222 40.794L10.9372 40.692C10.8812 40.827 10.8662 40.819 10.8662 40.819L10.8222 40.794C9.38618 43.268 8.10317 45.857 6.99117 48.529C6.20617 50.084 5.57517 51.821 5.07417 53.782C4.93017 54.241 4.78517 54.699 4.65217 55.162C3.39917 58.693 2.38717 62.476 2.02617 66.385C1.77917 68.416 1.54817 70.228 1.90517 71.899C1.95317 72.201 1.93617 72.355 1.86717 72.5C1.70417 72.954 1.65917 73.559 1.64917 74.318C1.22517 76.145 1.67817 78.103 1.78317 79.991L1.83817 80.059C1.84217 80.06 1.85017 80.063 1.85017 80.063L1.84217 80.064L1.83917 80.06C1.82617 80.058 1.80317 80.05 1.78417 79.992C1.62017 80.774 1.73417 81.989 1.95217 83.032L1.96817 83.029C1.85717 83.739 2.24018 85.059 2.28118 85.987C2.35718 86.203 2.38317 86.428 2.36317 86.592C2.27017 87.002 2.36717 87.679 2.54817 88.504C2.68817 89.723 3.00117 90.996 3.55117 91.871L3.55417 91.87C3.73717 92.762 3.96717 93.599 4.36017 94.317C4.68517 95.382 4.98517 96.364 5.28717 97.353C5.91717 98.852 6.40417 100.94 7.21917 102.282C7.47317 102.914 7.72817 103.547 7.95217 104.107C8.41417 105.202 8.78018 106.351 9.37618 107.018C9.57118 107.4 9.76717 107.781 9.92217 108.085C10.0482 108.403 10.2052 108.707 10.4082 108.987C10.5772 109.285 10.7032 109.505 10.8722 109.802C12.1882 112.49 13.6892 114.986 15.4342 117.322C15.8972 117.94 16.2262 118.231 16.3562 118.138C16.4872 118.045 16.2692 117.571 15.8312 116.944C14.5102 114.87 13.0112 112.519 11.7272 110.503C11.2872 109.683 10.8062 108.786 10.3252 107.889C9.06717 106.215 8.58718 103.842 7.62818 102.124L7.63717 102.307C7.24617 101.275 6.91217 100.397 6.52117 99.365C6.09117 98.529 5.85517 97.26 5.46717 96.404C5.34017 95.937 5.20417 95.474 5.06717 95.014C5.11217 95.095 5.14718 95.181 5.19818 95.258L5.18218 95.263C5.29318 95.462 5.36717 95.592 5.48217 95.798C5.43617 95.58 5.40618 95.435 5.36418 95.231C5.36118 95.244 5.36317 95.263 5.35917 95.275L5.35817 95.202C5.36017 95.213 5.36218 95.22 5.36418 95.231C5.39918 95.044 5.31817 94.712 5.30117 94.422C5.35217 94.006 5.17117 93.282 4.98217 92.552L4.94217 92.564L4.92617 92.569L4.98217 92.552C4.99517 92.386 4.97317 92.17 4.93617 91.931C5.49217 94.105 6.19617 96.24 6.99217 98.324C7.70317 100.301 8.74217 102.235 9.41217 104.402C9.87217 106.037 10.7002 107.984 10.9392 106.834C11.0242 106.614 11.6642 107.786 12.0522 108.529C12.8222 109.912 13.6102 111.578 14.5312 112.98C14.6412 113.103 14.8222 113.384 14.8802 113.549C14.9972 113.869 15.1802 114.15 15.5162 114.524C15.6462 114.645 15.7812 114.852 15.9302 115.154C17.9482 119.111 20.4442 122.866 24.2292 125.85C24.7292 126.298 25.3142 126.9 25.6802 127.361C26.2732 128.317 27.3182 129.296 28.3102 130.08C31.2662 132.708 34.3102 134.936 37.7052 137.113L37.7232 137.084L37.7412 137.056L37.7052 137.113C38.9102 138.351 41.1452 139.215 42.8512 140.287C43.4932 140.884 44.5532 141.412 45.4772 141.82C45.9582 142.179 46.7162 142.565 47.5612 142.946C48.5602 143.41 48.3532 143.028 48.9912 143.244C49.4732 143.411 49.9682 143.518 50.1662 143.482C50.5102 143.522 51.8402 144.032 51.6922 143.709C51.6682 143.525 51.4822 143.309 50.9052 142.959C50.8492 142.625 50.2332 142.15 49.2212 141.573L48.9802 141.516L48.9862 141.5C49.0642 141.533 49.1412 141.566 49.2212 141.573C48.7772 140.946 48.2822 140.247 47.8372 139.62C47.9752 139.311 47.8062 138.892 46.4132 138.105C46.2822 137.829 45.9982 137.5 45.8772 137.194C46.8852 137.662 47.9962 138.106 48.9712 138.448C50.0192 138.808 50.6342 138.774 50.7132 138.579C50.9672 138.357 49.7912 137.93 49.0912 137.571C48.2502 137.153 47.6042 136.685 47.5562 136.434C47.4612 136.098 48.6742 136.611 49.2892 136.747C51.4122 137.27 54.0982 138.644 56.5092 138.97C57.6292 139.224 59.0442 139.892 60.0272 139.758L59.9592 139.708L60.0352 139.725L60.0272 139.758C61.6762 140.095 63.3682 140.616 64.7722 140.592C64.6232 140.535 64.4812 140.488 64.4112 140.438C64.4882 140.454 64.4882 140.454 64.4882 140.454L64.7722 140.592C66.2732 140.827 68.0912 141.16 69.3352 140.981L69.1842 140.929L69.3392 140.948L69.3352 140.981C71.7542 141.087 74.2592 141.755 76.9352 141.242C79.0472 140.922 82.6882 140.753 85.2022 140.199C87.8282 139.559 90.9262 139.515 93.1782 138.332L93.0252 138.323C93.1612 138.267 93.1652 138.283 93.1652 138.283L93.1782 138.332C98.1772 137.005 103.096 135.082 107.7 132.535C110.681 131.116 113.652 129.401 116.385 127.303C116.389 127.301 116.392 127.3 116.396 127.299C116.504 127.417 116.789 127.357 117.337 126.951L117.61 126.62L117.622 126.632C117.622 126.632 117.454 126.82 117.337 126.951C117.591 126.954 117.895 126.903 118.279 126.755C117.592 127.292 116.839 127.998 116.161 128.332L116.222 128.283C115.478 128.697 114.455 129.494 113.737 129.787C112.093 130.34 110.404 131.924 108.6 132.755C108.195 132.954 107.644 133.224 107.099 133.49C106.085 133.823 104.828 134.716 103.727 135.027C103.17 135.255 102.748 135.428 102.326 135.6C100.492 136.47 98.6942 137.313 96.7652 137.721L96.4872 137.839L96.2692 137.894C90.5652 139.284 86.4092 140.793 82.0092 141.819C90.3732 140.951 98.4942 138.436 105.975 134.801C106.521 134.525 107.004 134.281 107.619 133.97C108.996 133.627 110.492 132.667 111.889 131.712C112.669 131.222 113.383 130.773 114.171 130.278C114.933 129.897 115.845 129.196 116.583 128.76C116.885 128.518 117.073 128.388 117.273 128.271C118.011 127.958 118.825 127.233 119.658 126.551C119.904 126.363 120.213 126.127 120.403 125.983C120.726 125.775 121.155 125.553 121.399 125.361C121.76 125.007 122.107 124.666 122.454 124.325C122.674 124.249 122.971 124.038 123.461 123.552L123.545 123.507L123.532 123.496C123.673 123.514 123.945 123.289 124.392 122.857C124.477 122.706 124.762 122.372 124.859 122.336C127.184 119.627 129.189 116.562 131.047 113.541C131.766 112.478 132.403 111.297 132.935 110.216C133.469 109.513 133.941 108.746 134.229 108.001C134.459 107.682 134.693 107.379 134.942 107.091C136.379 103.349 137.965 99.489 138.523 95.848C138.973 94.186 139.901 92.277 139.702 90.897C140.091 88.427 140.778 85.733 140.703 83.39L140.673 83.558ZM127.226 30.791L127.185 30.82C127.185 30.82 127.205 30.805 127.183 30.726L127.226 30.791ZM39.6892 6.32901C39.6692 6.28201 39.5642 6.252 39.7932 6.133C39.8602 6.07 40.0242 6.04101 40.0942 5.98601C39.8922 6.14701 39.6672 6.27501 39.6892 6.32901ZM48.3842 142.283C48.3652 142.33 48.4182 142.426 48.1712 142.348C48.0792 142.345 47.9422 142.25 47.8542 142.239C48.1122 142.268 48.3612 142.337 48.3842 142.283ZM136.338 70.908L136.304 70.909L136.303 70.754L136.338 70.908ZM135.899 80.396C135.99 78.885 136.12 77.366 135.879 76.007C136.172 77.214 136.006 78.804 135.899 80.396ZM136.016 51.753C135.944 51.687 135.792 51.297 135.706 51.245C135.666 51.078 135.609 50.839 135.569 50.673C135.728 51.058 135.921 51.524 136.016 51.753ZM135.441 60.476L135.475 60.47C135.457 60.557 135.427 60.805 135.364 60.658C135.364 60.658 135.415 60.565 135.441 60.476ZM134.087 74.782H134.104L134.086 74.861L134.087 74.782ZM132.501 69.385C132.519 69.686 132.616 69.836 132.576 70.062C132.534 70.668 132.427 70 132.334 69.696C132.41 69.692 132.485 69.689 132.501 69.385ZM131.561 80.031L131.612 80.036L131.579 80.187C131.554 80.253 131.561 80.031 131.561 80.031ZM117.147 117.223C117.26 117.014 117.38 116.797 117.497 116.585C117.567 115.551 118.881 113.729 119.869 111.625C119.47 113.144 118.432 114.894 117.497 116.585C117.491 116.673 117.435 116.794 117.449 116.87C117.397 116.93 117.3 117.044 117.147 117.223ZM28.4052 116.179C28.3282 116.134 28.2202 116.014 28.1502 115.985L28.1382 115.996L28.0952 115.944C27.9342 115.787 27.9872 115.839 27.9342 115.787L27.9412 115.782C27.9412 115.782 28.0012 115.829 28.0952 115.945C28.1502 115.986 28.1502 115.985 28.1502 115.985L28.2832 116.069C28.3252 116.112 28.3632 116.138 28.4052 116.179ZM16.2682 112.578C16.2212 112.519 16.1792 112.464 16.1792 112.464C16.3082 112.547 16.3622 112.506 16.3262 112.351C16.3162 112.33 16.2992 112.308 16.2882 112.287C16.3082 112.304 16.3222 112.326 16.3432 112.343C15.6992 111.111 15.1482 109.475 15.6982 109.632C16.3432 110.56 17.0382 111.917 17.8372 112.844C18.1992 113.373 18.6072 113.971 19.0152 114.569C19.6452 116.104 19.7642 116.404 19.4472 116.868C19.0622 116.193 18.4932 115.523 17.9012 114.697C17.6382 113.947 16.9492 113.173 16.3262 112.351C16.3612 112.505 16.3212 112.536 16.2682 112.578ZM18.1852 90.112L18.2422 90.097L18.2402 90.244L18.1852 90.112ZM17.2732 94.251C17.1532 94.137 17.0762 94.116 17.0042 94.104C16.9332 94.516 16.8272 94.858 16.6562 95.054C16.7362 94.658 16.7182 94.056 17.0042 94.104C17.0472 93.851 17.0902 93.598 17.0892 93.259C17.2092 93.673 17.1272 93.844 17.2732 94.251ZM15.0582 106.442C15.0582 106.442 15.0212 106.37 14.9872 106.305C15.1782 106.655 15.4862 107.118 15.7082 107.358L15.6562 107.385C15.4852 107.117 15.3152 106.848 15.0582 106.442ZM13.9742 99.906C13.8152 99.638 13.7372 99.506 13.6962 99.437C13.6472 99.295 13.5952 99.145 13.5692 99.07C13.6732 99.284 13.8392 99.627 13.9742 99.906ZM11.8142 90.94C11.7572 90.954 11.6572 90.817 11.5552 90.608C11.5552 90.608 11.5552 90.608 11.5242 90.454C11.6072 90.676 11.7372 90.959 11.8142 90.94ZM5.53417 85.199C5.48717 85.133 5.43017 84.924 5.43017 84.924L5.44718 84.921C5.48618 85.133 5.50317 85.13 5.53417 85.199ZM7.33618 91.821C7.20718 91.861 7.28017 92.288 7.43017 92.855C7.27917 92.522 7.11117 92.193 7.06917 91.748C7.08817 91.517 7.23018 91.699 7.33618 91.821ZM10.6442 87.964C10.4892 87.679 10.3192 87.315 10.1832 86.557C10.3422 87.158 10.4912 87.599 10.6442 87.964ZM11.1472 91.655C11.1022 91.185 11.0502 90.807 11.2152 90.769C11.0842 90.799 11.1032 91.184 11.1472 91.655ZM4.60517 69.936L4.59818 70.077L4.56417 70.075L4.56517 70.009C4.57217 69.935 4.57218 69.935 4.57218 69.935L4.60517 69.936ZM4.18717 72.751L4.18617 72.818C4.17917 72.842 4.17518 72.87 4.16918 72.895C4.12418 73.271 4.08617 73.581 4.04717 73.91C4.04117 74.006 4.03518 74.1 4.02918 74.205C4.02918 74.056 4.02918 74.056 4.02918 74.056C4.03518 74.006 4.04117 73.959 4.04717 73.91C4.07117 73.508 4.10018 73.177 4.16918 72.895C4.17618 72.847 4.18117 72.803 4.18717 72.751ZM3.02817 83.753C3.08817 83.76 3.14717 83.736 3.20317 83.669C3.22617 83.898 3.24017 84.043 3.26317 84.264C3.19717 84.071 3.11617 83.906 3.02817 83.753C2.84617 83.731 2.64818 83.418 2.45518 83.102C2.65418 83.227 2.85617 83.453 3.02817 83.753ZM12.0042 102.578C12.1562 102.952 12.2472 103.173 12.3682 103.47C12.4752 103.864 12.6442 104.231 12.7822 104.43L12.7682 104.265C12.9002 104.647 13.0162 104.947 13.1562 105.237C13.6732 106.326 14.6332 107.923 13.9952 107.703C13.8182 107.629 13.7462 107.687 13.7562 107.848C13.5612 107.464 13.3702 107.087 13.1942 106.74L13.1802 106.749C13.1832 106.229 12.4562 105.306 12.1162 104.495C12.0102 103.887 11.8142 103.225 11.4832 102.461C11.7202 102.72 11.8892 102.729 12.0042 102.578ZM29.6372 24.997C29.6432 24.987 29.6522 24.976 29.6582 24.966C29.6602 24.965 29.6612 24.965 29.6632 24.964C29.6552 24.975 29.6442 24.986 29.6372 24.997ZM76.4952 10.545L76.4812 10.637C76.4702 10.712 76.1072 10.655 76.1002 10.705C76.1122 10.63 76.4832 10.629 76.4952 10.545ZM71.9122 9.922C71.7622 9.907 71.9132 9.91301 71.8372 9.90601C71.7622 9.90501 71.4682 9.903 71.4682 9.903L71.6202 9.884C71.9182 9.828 72.4342 9.811 72.8802 9.823C72.6552 9.885 72.0692 9.844 71.9122 9.922ZM72.8862 10.604L72.8852 10.613C72.8852 10.613 72.8092 10.622 72.6612 10.607C72.5932 10.617 72.5932 10.617 72.5932 10.617L72.4402 10.652C72.3792 10.651 72.3342 10.659 72.2752 10.66C72.3612 10.638 72.5222 10.646 72.5922 10.617L72.5932 10.601L72.6602 10.608C72.8852 10.604 72.8112 10.605 72.8862 10.604ZM122.233 99.297C122.26 99.151 122.388 98.981 122.439 98.926L122.477 98.943C122.405 99.069 122.211 99.517 122.233 99.297ZM122.392 99.78L122.333 99.888L122.347 99.756C122.325 99.778 122.305 99.807 122.284 99.83C122.284 99.815 122.288 99.8 122.289 99.785C122.307 99.794 122.34 99.754 122.374 99.707C122.365 99.724 122.357 99.74 122.348 99.757L122.392 99.78ZM129.493 79.527C129.465 79.741 129.455 79.814 129.417 80.1C129.414 79.809 129.372 79.805 129.354 79.729C129.409 79.519 129.452 79.597 129.493 79.527ZM128.141 44.714C128.156 44.747 128.152 44.736 128.182 44.8L128.146 44.729C128.143 44.722 128.144 44.722 128.141 44.714C128.106 44.64 128.073 44.57 128.049 44.52C128.008 44.364 127.998 44.289 127.998 44.289C128.008 44.361 128.052 44.516 128.141 44.714ZM127.834 37.925C127.864 37.972 127.868 37.978 127.868 37.978C127.856 37.959 127.846 37.942 127.834 37.925C127.831 37.92 127.831 37.921 127.828 37.915L127.784 37.845C127.784 37.845 127.807 37.882 127.834 37.925ZM126.874 37.067L126.845 37.084C126.845 37.084 126.845 37.084 126.801 37.015C126.86 37.075 126.874 37.067 126.874 37.067ZM106.105 18.721C105.568 18.408 105.151 18.202 104.784 18.052C105.095 18.143 105.473 18.281 106.105 18.721ZM101.953 16.76C102.029 16.761 102.131 16.779 102.271 16.827C102.271 16.827 102.271 16.827 102.402 16.914C102.251 16.844 102.066 16.774 101.953 16.76ZM102.398 16.473C102.469 16.358 102.183 16.099 101.819 15.799C102.183 16.099 102.487 16.329 102.398 16.473ZM94.5142 12.098C94.6492 12.164 94.7922 12.233 94.8632 12.267C94.6382 12.189 94.2782 12.064 93.9862 11.963C94.2882 12.04 94.4372 12.078 94.5142 12.098ZM87.5082 7.86301C87.8182 7.93301 88.1282 8.002 88.5982 8.108C88.5982 8.108 88.6752 8.13301 88.7452 8.15401C88.3632 8.04201 87.8172 7.93201 87.4912 7.91901L87.5082 7.86301ZM74.3752 0.598007C74.3082 0.615007 74.2682 0.637004 74.1482 0.660004L74.1472 0.63501L74.3752 0.598007ZM62.6202 0.987C62.6202 0.987 62.6202 0.987008 62.7842 0.999008C62.6212 1.00601 62.2882 1.022 62.1162 1.03L62.6202 0.987ZM15.3132 35.179C15.3102 35.244 15.3062 35.35 15.3032 35.441C15.3022 35.444 15.3002 35.446 15.2992 35.448C15.2822 35.382 15.2782 35.3 15.3132 35.179ZM15.2162 35.586C15.2122 35.593 15.2082 35.6 15.2042 35.607C15.1212 35.642 15.0252 35.696 14.9362 35.734C15.0432 35.669 15.1302 35.635 15.2162 35.586ZM2.19517 78.111C2.16417 78.207 2.13717 78.305 2.06417 78.224C2.06417 78.224 2.06417 78.224 2.05117 78.07C2.12717 78.233 2.16317 78.185 2.19517 78.111ZM3.82218 90.989C3.82518 90.996 3.82917 91.002 3.83217 91.009L3.82617 91.01C3.82517 91.004 3.82418 90.996 3.82218 90.989ZM11.0552 105.131C10.8672 104.667 10.6862 104.217 10.5012 103.761C10.5782 103.868 10.6522 103.979 10.7312 104.084C10.7862 104.429 11.0252 104.942 11.2422 105.407C11.1792 105.317 11.1202 105.22 11.0552 105.131ZM15.7682 114.164C14.5682 112.463 13.5382 110.557 12.9352 108.717C12.8642 108.492 12.7702 108.261 12.6772 108.03C12.8902 108.373 13.0832 108.71 13.2012 109.016C13.3562 109.537 13.8892 110.267 14.2822 110.898C14.3762 111.019 14.5062 111.104 14.6152 111.214C16.0872 113.2 17.3932 115.291 19.2862 117.082C19.2432 117.134 19.2042 117.182 19.1542 117.242C18.6102 117.645 17.1502 115.85 15.7682 114.164ZM19.8822 100.817C20.2552 100.8 20.3482 100.3 20.1812 99.392C20.1822 99.393 20.1822 99.395 20.1832 99.396C20.2952 99.956 20.4052 100.511 20.5032 100.999C20.7492 101.979 20.2142 101.215 19.8822 100.817ZM20.6982 113.23C20.7772 113.273 20.6042 112.919 20.8172 113.149C21.0302 113.379 20.8632 113.31 20.9632 113.521C20.9082 113.462 20.8062 113.349 20.6982 113.23ZM25.3402 113.276L25.4142 113.221C25.4752 113.176 25.6912 113.472 25.7322 113.442C25.6712 113.487 25.4072 113.226 25.3402 113.276ZM27.3852 116.342C27.5882 116.458 27.9732 116.902 28.1392 116.957C28.2342 117.074 28.1322 116.963 28.1812 117.021C28.2342 117.075 28.4402 117.284 28.4402 117.284L28.3192 117.19C28.0692 117.019 27.6922 116.666 27.3852 116.342ZM28.3932 129.846C28.3932 129.846 28.3932 129.846 28.2862 129.722C28.4072 129.832 28.6532 130.056 28.7802 130.172L28.3932 129.846ZM31.1532 128.66C31.1612 128.642 31.1302 128.604 31.1362 128.584C30.6682 128.064 30.3932 127.624 29.9452 127.116L29.8032 127.029C29.8032 127.029 29.8832 127.063 29.8202 127.01C29.8832 127.063 29.8832 127.063 29.9452 127.116C31.0492 127.997 31.1992 128.343 31.1362 128.584C31.2272 128.685 31.2772 128.769 31.3902 128.879C31.2742 128.773 31.2742 128.773 31.1532 128.66ZM36.1072 120.358C36.3822 120.463 36.4552 120.49 36.6612 120.569C36.5572 120.581 36.6872 120.744 36.7082 120.828C36.4952 120.65 36.2972 120.561 36.1072 120.358ZM39.7022 128.453L39.7212 128.425L39.7702 128.489C39.7072 128.446 39.7022 128.453 39.7022 128.453ZM47.0842 129.024C47.4102 129.165 47.4992 129.136 47.7122 129.195C47.4992 129.137 47.4512 129.225 47.0842 129.024ZM50.6922 130.933C50.7582 130.962 50.7622 130.954 50.7622 130.954L50.7592 130.962L50.6922 130.933C50.6442 130.921 50.6132 130.927 50.5662 130.917C50.2732 131.059 49.7002 130.925 49.0502 130.688C48.7742 130.619 48.4762 130.51 48.1212 130.312C48.0802 130.289 48.0612 130.301 48.0192 130.276C47.7612 130.157 47.7602 130.157 47.5682 130.069C47.7462 130.15 47.9352 130.231 48.1212 130.312C48.4352 130.45 48.7502 130.579 49.0502 130.688C49.5732 130.82 50.0102 130.801 50.5662 130.917C50.5832 130.908 50.6172 130.917 50.6322 130.907C50.6662 130.906 50.6162 130.88 50.6412 130.877C50.4322 130.643 50.2752 130.469 50.0612 130.23C50.0282 130.209 50.0032 130.191 49.9712 130.17C50.0302 130.196 50.0302 130.196 50.0302 130.196C49.9992 130.152 49.9122 130.086 49.8712 130.037C49.1692 129.58 48.5082 129.104 48.0052 128.646L47.9892 128.676C47.2812 128.234 46.4522 127.717 46.4522 127.717C46.4522 127.717 47.2252 128.186 47.8172 128.544C47.9422 128.612 47.9422 128.612 48.0052 128.647C48.9842 129.17 49.5532 129.656 49.8712 130.037C49.9802 130.108 50.0482 130.185 50.1612 130.254C50.1612 130.254 50.1612 130.253 50.0302 130.196C50.0422 130.209 50.0492 130.219 50.0612 130.232C50.5362 130.533 50.9932 130.825 50.6412 130.879C50.6602 130.897 50.6732 130.911 50.6922 130.933ZM52.4792 131.236L51.7082 130.904C51.9712 130.999 52.2802 131.17 52.6232 131.262C52.6242 131.262 52.5512 131.249 52.4792 131.236ZM56.4492 136.401L56.4572 136.377L56.4602 136.369L56.4492 136.401ZM60.2362 134.606C60.3212 134.571 60.0522 134.486 60.0652 134.437C60.1222 134.499 60.2452 134.573 60.4432 134.671C60.3052 134.628 60.3052 134.628 60.2362 134.606ZM65.4702 135.829L65.4742 135.804L65.6112 135.859L65.4702 135.829ZM68.9062 136.319C68.5702 136.143 68.1712 135.96 67.7632 135.808C68.0452 135.824 68.6072 135.856 69.1052 135.883C69.3682 136.034 69.5632 136.193 68.9062 136.319ZM74.3632 131.991C74.4282 132.043 74.6212 132.08 74.8882 132.136C74.8882 132.136 74.9472 132.188 75.0812 132.207L75.0802 132.224C74.9472 132.187 74.8882 132.136 74.8882 132.136C74.5622 132.07 74.4282 132.044 74.2352 132.005C74.3622 132.008 74.3632 131.991 74.3632 131.991ZM75.0612 133.043C75.1292 133.044 75.1292 133.044 75.1292 133.044C75.0602 133.093 74.8612 133.14 74.6552 133.186C74.8612 133.14 74.9242 133.091 75.0612 133.043ZM86.2832 138.876C86.2732 138.885 86.2572 138.9 86.2452 138.911C86.2132 138.978 86.1472 139.05 86.0212 139.119C86.0772 139.068 86.1732 138.978 86.2452 138.911C86.2652 138.869 86.2752 138.828 86.2702 138.792C86.2842 138.884 86.5142 138.929 86.6792 138.994C86.5192 138.954 86.4322 138.893 86.2832 138.876ZM92.1642 132.008C91.8932 132.094 91.5422 132.245 91.5042 132.105C91.3782 132.141 91.4912 132.056 91.2942 132.095C91.3072 132.084 91.3122 132.074 91.3212 132.064C91.3732 132.043 91.4262 132.026 91.4782 132.005L91.5042 132.104L91.9152 132.057C91.9962 132.041 92.0772 132.026 92.1642 132.008C92.2102 131.993 92.2672 131.971 92.3062 131.963L92.3112 131.979C92.2872 131.983 92.2142 131.998 92.1642 132.008ZM105.757 125.774C104.842 126.211 104.027 126.543 103.713 126.374C103.263 126.239 104.193 125.713 104.966 125.21C105.3 124.988 105.726 124.673 105.472 124.629C104.931 124.743 104.189 125.306 103.787 125.259C104.467 124.728 105.355 124.431 106.073 123.853C105.901 123.896 105.792 123.911 105.74 123.879C105.711 123.888 105.682 123.898 105.653 123.908C105.709 123.871 105.709 123.871 105.709 123.871C105.714 123.879 105.733 123.874 105.741 123.879C105.897 123.828 106.036 123.792 106.073 123.853C106.172 123.758 106.335 123.651 106.52 123.58C107.463 123.222 108.437 122.317 109.428 121.893C110.794 121.212 111.862 120.199 112.992 119.097L113.049 119.061L113.148 118.969C113.096 119.011 113.096 119.011 113.096 119.011C113.923 117.859 112.825 118.797 112.146 119.306L111.845 119.55L111.668 119.651C111.115 119.792 110.162 120.685 109.607 120.803C111.936 118.943 114.339 117.061 116.379 114.878C116.518 114.737 116.673 114.589 116.83 114.439C116.809 114.475 116.791 114.509 116.788 114.525C116.647 114.795 116.892 114.611 117.072 114.373C117.215 114.204 117.332 114.014 117.332 114.014C117.321 114.005 117.306 113.997 117.293 113.988C117.676 113.601 117.99 113.226 118 112.94C118.048 112.573 118.248 112.171 118.528 111.739C119.069 111.477 119.87 110.688 120.224 110.765C119.91 111.276 119.775 111.557 119.801 111.757C118.654 113.338 118.34 114.135 117.705 115.284C117.085 116.353 116.892 117.1 115.857 118.428C115.296 119.058 114.785 119.679 114.296 120.293C114.16 120.39 114.026 120.491 113.889 120.586C111.333 122.501 108.558 124.173 105.757 125.774ZM108.763 125.222C108.824 125.186 109.06 125.047 109.06 125.047C109.151 125.022 109.242 124.97 109.334 124.919C109.468 124.841 109.592 124.773 109.685 124.755C109.568 124.787 109.451 124.854 109.334 124.919C109.153 125.024 108.952 125.15 108.763 125.222Z" fill="#395398"/>
<path fill-rule="evenodd" clip-rule="evenodd" d="M19.2392 27.0139C18.9902 27.7359 17.2362 29.6629 16.9292 30.6029C19.7152 27.3669 19.8342 27.4829 19.2392 27.0139Z" fill="#395398"/>
<path fill-rule="evenodd" clip-rule="evenodd" d="M1.627 64.192C1.86 63.373 2.02 62.086 2.321 61.371C3.092 59.818 3.166 57.503 3.854 55.64C4 55.213 4.199 54.632 4.395 54.059C4.876 53.106 5.134 51.587 5.692 50.588C5.925 50.033 6.101 49.612 6.278 49.192C6.96 47.28 7.635 45.412 8.711 43.76L8.825 43.48L8.94 43.287C10.722 40.357 12.099 37.777 13.414 35.369L14.539 33.689C14.89 33.097 15.167 32.559 15.064 32.486C15.06 32.467 15.049 32.465 15.041 32.457C15.435 31.773 15.833 31.096 16.248 30.427C11.514 36.258 7.853 42.883 5.185 49.831C5.132 49.59 4.89 50.048 4.707 50.606C4.273 51.97 3.729 53.356 3.392 54.693C2.857 55.847 2.531 57.291 2.265 58.701C2.06 59.6 1.872 60.422 1.665 61.328C1.395 62.136 1.246 63.277 1.033 64.107C0.991001 64.492 0.948999 64.717 0.890999 64.94C0.589999 65.683 0.527002 66.771 0.420002 67.843C0.378002 68.15 0.327002 68.535 0.295002 68.771C0.214002 69.146 0.067002 69.607 0.031002 69.915C0.020002 71.082 0.01 72.162 0 73.329C0 73.409 0.0499992 73.559 0.0499992 73.559C0.0999992 73.638 0.134001 73.638 0.185001 73.408C0.271001 73.17 0.356 72.941 0.41 72.476H0.393002C0.548002 71.942 0.522 71.098 0.632 70.409C0.637 70.173 0.633001 69.945 0.672001 69.719C0.900001 69.189 0.966 68.581 1.041 67.744C0.971 68.017 0.903001 68.235 0.832001 68.426C0.802001 68.523 0.774001 68.614 0.741001 68.722C0.741001 68.722 0.741001 68.722 0.748001 68.644C0.778001 68.582 0.804001 68.5 0.831001 68.427C0.905001 68.185 0.974001 67.959 1.04 67.745C1.374 66.856 1.281 65.149 1.634 64.113L1.627 64.192Z" fill="#395398"/>
<path fill-rule="evenodd" clip-rule="evenodd" d="M125.597 26.099C124.099 23.847 122.504 22.692 121.209 21.655C122.648 22.809 124.189 25.129 125.597 26.099Z" fill="#395398"/>
<path fill-rule="evenodd" clip-rule="evenodd" d="M133.265 37.0479C133.715 37.8979 134.245 38.8969 134.733 39.8179C134.998 40.2629 135.275 40.8129 135.452 41.0149C135.876 41.4859 135.712 40.8929 135.397 40.2689C134.436 38.4119 133.616 36.3469 132.37 34.9529C132.227 34.7359 132.085 34.5189 131.894 34.2279C131.493 33.6549 131.07 33.0869 130.927 33.1769C130.722 33.1069 131.096 33.6909 131.377 34.1349C132.032 35.1539 132.657 36.2959 133.265 37.0479Z" fill="#395398"/>
<path fill-rule="evenodd" clip-rule="evenodd" d="M24.9081 21.4429C24.7311 21.4749 24.4671 21.6419 24.2581 21.8739C24.0521 22.1069 23.7921 22.4009 23.5381 22.6879C23.8531 22.4749 24.0511 22.3399 24.2411 22.2109C24.6601 21.8759 24.9931 21.5479 24.9081 21.4429Z" fill="#395398"/>
<path fill-rule="evenodd" clip-rule="evenodd" d="M21.9129 24.4579C21.9769 24.3089 22.0119 24.2249 22.0789 24.0669C21.8909 24.2139 21.5919 24.4479 21.4039 24.5949C21.4499 24.6439 21.2169 24.9609 21.3659 24.8889C21.4449 24.8579 21.7359 24.6029 21.9129 24.4579Z" fill="#395398"/>
<path fill-rule="evenodd" clip-rule="evenodd" d="M135.269 106.872C135.109 107.081 135.07 106.674 134.785 107.507C134.731 107.679 134.725 107.866 134.763 107.886C134.889 107.76 135.084 107.468 135.284 107.167C135.432 106.852 135.479 106.587 135.269 106.872Z" fill="#395398"/>
<path fill-rule="evenodd" clip-rule="evenodd" d="M140.887 60.406C141.102 60.548 140.895 59.622 140.813 59.106L140.192 56.051C139.937 55.493 139.79 55.532 139.807 56.143L140.408 59.185C140.578 59.851 140.763 60.428 140.887 60.406Z" fill="#395398"/>
<path fill-rule="evenodd" clip-rule="evenodd" d="M108.33 15.8811L108.631 16.1641L108.485 15.9381L108.33 15.8811Z" fill="#395398"/>
<path d="M77.7131 118.026V75.9521H91.8361L93.9511 59.5551H77.7131V49.0861C77.7131 44.3381 79.0301 41.1041 85.8391 41.1041L94.5221 41.1001V26.4331C93.0191 26.2351 87.8661 25.7881 81.8681 25.7881C69.3511 25.7881 60.7791 33.4281 60.7791 47.4631V59.5551H46.6211V75.9521H60.7791V118.026H77.7131Z" fill="white"/>
</svg>
