<svg width="186" height="186" viewBox="0 0 186 186" fill="none" xmlns="http://www.w3.org/2000/svg">
<path d="M185.839 93.2714C185.839 42.1477 144.395 0.703857 93.2711 0.703857C42.1475 0.703857 0.703613 42.1477 0.703613 93.2714C0.703613 144.395 42.1475 185.839 93.2711 185.839C144.395 185.839 185.839 144.395 185.839 93.2714Z" fill="#4DAEA9"/>
<mask id="mask0_2938_350" style="mask-type:luminance" maskUnits="userSpaceOnUse" x="0" y="0" width="186" height="186">
<path d="M93.2721 185.839C144.396 185.839 185.84 144.395 185.84 93.2716C185.84 42.148 144.396 0.704102 93.2721 0.704102C42.1485 0.704102 0.70459 42.148 0.70459 93.2716C0.70459 144.395 42.1485 185.839 93.2721 185.839Z" fill="white"/>
</mask>
<g mask="url(#mask0_2938_350)">
<path d="M144.595 132.473C144.595 127.914 142.059 123.948 138.321 121.909C139.835 119.509 140.713 116.667 140.713 113.62C140.713 109.917 139.418 106.517 137.261 103.843C136.047 105.31 134.213 106.245 132.161 106.245C132.009 106.245 131.859 106.231 131.71 106.222C129.168 123.948 116.155 132.71 99.606 134.497V138.335C103.949 138.995 108.075 140.304 111.898 142.142C111.998 142.191 112.097 142.236 112.196 142.285C112.597 142.482 112.996 142.689 113.392 142.9C113.529 142.972 113.666 143.043 113.803 143.117C114.177 143.32 114.546 143.531 114.915 143.746C115.065 143.834 115.217 143.922 115.367 144.012C115.722 144.225 116.075 144.442 116.426 144.664C116.579 144.764 116.734 144.863 116.885 144.963C117.229 145.19 117.57 145.416 117.908 145.651C118.057 145.755 118.204 145.862 118.352 145.967C118.688 146.207 119.024 146.451 119.352 146.699C119.487 146.801 119.618 146.906 119.751 147.01C120.089 147.274 120.425 147.535 120.756 147.809C120.847 147.883 120.935 147.961 121.024 148.038C122.168 148.997 123.263 150.015 124.304 151.085C124.394 151.177 124.488 151.269 124.576 151.362C124.842 151.637 125.096 151.921 125.351 152.204C125.5 152.368 125.652 152.53 125.798 152.698C126.031 152.964 126.257 153.235 126.483 153.505C126.645 153.698 126.807 153.892 126.965 154.087C127.178 154.349 127.385 154.614 127.592 154.884C127.754 155.097 127.918 155.31 128.078 155.523C128.272 155.787 128.466 156.054 128.655 156.322C128.815 156.551 128.975 156.779 129.132 157.011C129.313 157.275 129.489 157.54 129.662 157.808C129.821 158.052 129.975 158.3 130.129 158.548C130.293 158.812 130.456 159.077 130.614 159.345C130.769 159.607 130.919 159.874 131.069 160.142C131.215 160.402 131.362 160.659 131.505 160.923C131.662 161.22 131.813 161.519 131.964 161.819C132.087 162.059 132.214 162.299 132.332 162.544C132.559 163.015 132.776 163.491 132.986 163.972C133.087 164.202 133.183 164.437 133.281 164.669C133.448 165.066 133.615 165.466 133.769 165.872C133.858 166.104 133.939 166.341 134.025 166.575C134.151 166.921 134.277 167.267 134.395 167.616C134.479 167.866 134.557 168.12 134.635 168.374C134.742 168.712 134.849 169.052 134.947 169.395C135.022 169.655 135.092 169.918 135.162 170.18C135.254 170.522 135.343 170.866 135.426 171.209C135.491 171.475 135.551 171.742 135.611 172.008C135.636 172.113 135.662 172.217 135.683 172.322C138.813 168.681 140.709 163.951 140.709 158.771C140.709 153.207 138.518 148.156 134.958 144.423C134.977 144.364 134.998 144.308 135.017 144.249C140.487 143.117 144.595 138.276 144.595 132.473Z" fill="#DAA461"/>
<path d="M50.5458 171.206C50.6278 170.862 50.7168 170.52 50.8088 170.179C50.8788 169.915 50.9498 169.652 51.0248 169.392C51.1238 169.05 51.2298 168.712 51.3368 168.372C51.4148 168.12 51.4938 167.862 51.5788 167.612C51.6948 167.262 51.8198 166.921 51.9448 166.577C52.0318 166.341 52.1138 166.1 52.2028 165.866C52.3568 165.468 52.5198 165.073 52.6848 164.68C52.7888 164.43 52.8938 164.178 53.0028 163.93C53.2088 163.463 53.4188 162.998 53.6398 162.541C53.7598 162.291 53.8898 162.047 54.0148 161.801C54.1638 161.506 54.3108 161.211 54.4658 160.92C54.6088 160.654 54.7608 160.391 54.9088 160.127C55.0548 159.865 55.2018 159.602 55.3558 159.344C55.5148 159.072 55.6808 158.805 55.8468 158.537C55.9978 158.293 56.1508 158.049 56.3058 157.808C56.4808 157.537 56.6608 157.267 56.8428 156.999C56.9978 156.772 57.1548 156.546 57.3138 156.319C57.5058 156.048 57.6988 155.78 57.8978 155.512C58.0538 155.301 58.2148 155.092 58.3748 154.883C58.5838 154.611 58.7938 154.342 59.0088 154.074C59.1638 153.885 59.3238 153.695 59.4828 153.504C59.7118 153.233 59.9408 152.957 60.1758 152.69C60.3198 152.526 60.4688 152.368 60.6128 152.206C60.8718 151.921 61.1318 151.634 61.3968 151.354C61.4798 151.266 61.5688 151.182 61.6528 151.094C62.7018 150.016 63.8048 148.99 64.9598 148.022C65.0458 147.95 65.1298 147.875 65.2158 147.803C65.5478 147.53 65.8888 147.266 66.2288 147C66.3588 146.898 66.4888 146.795 66.6208 146.695C66.9508 146.443 67.2878 146.201 67.6258 145.959C67.7718 145.854 67.9188 145.748 68.0658 145.644C68.4038 145.41 68.7448 145.181 69.0888 144.956C69.2418 144.856 69.3938 144.757 69.5488 144.657C69.8978 144.436 70.2508 144.218 70.6058 144.003C70.7568 143.915 70.9078 143.827 71.0588 143.739C71.4268 143.524 71.7958 143.313 72.1708 143.11C72.3088 143.036 72.4458 142.964 72.5828 142.891C72.9768 142.682 73.3748 142.475 73.7758 142.278C73.8778 142.229 73.9798 142.182 74.0808 142.133C77.9028 140.295 82.0268 138.988 86.3668 138.328V134.494C69.8058 132.715 56.7778 123.951 54.2328 106.217C54.0928 106.225 53.9548 106.238 53.8108 106.238C52.1258 106.238 50.5948 105.603 49.4268 104.566C47.2058 107.259 45.8708 110.711 45.8708 114.474C45.8708 117.521 46.7488 120.361 48.2618 122.763C44.5248 124.802 41.9888 128.769 41.9888 133.327C41.9888 139.128 46.0968 143.972 51.5648 145.102C51.5828 145.161 51.6038 145.217 51.6228 145.276C48.0618 149.008 45.8718 154.059 45.8718 159.626C45.8718 164.444 47.5158 168.878 50.2658 172.403C50.2938 172.268 50.3288 172.135 50.3578 171.999C50.4198 171.739 50.4818 171.472 50.5458 171.206Z" fill="#DAA461"/>
<path d="M49.9888 173.86C50.0378 173.592 50.0888 173.323 50.1418 173.057C50.0888 173.322 50.0378 173.592 49.9888 173.86Z" fill="#F0D9DE"/>
<path d="M136.406 176.885C136.433 177.137 136.463 177.387 136.485 177.637C136.463 177.387 136.434 177.137 136.406 176.885Z" fill="#F0D9DE"/>
<path d="M49.4907 177.639C49.5117 177.387 49.5417 177.137 49.5677 176.885C49.5407 177.137 49.5107 177.387 49.4907 177.639Z" fill="#F0D9DE"/>
<path d="M49.3618 179.563C49.3718 179.348 49.3878 179.135 49.4008 178.922C49.3878 179.135 49.3708 179.348 49.3618 179.563Z" fill="#F0D9DE"/>
<path d="M49.6987 175.736C49.7347 175.472 49.7747 175.209 49.8137 174.945C49.7757 175.208 49.7357 175.472 49.6987 175.736Z" fill="#F0D9DE"/>
<path d="M136.574 178.924C136.587 179.137 136.605 179.348 136.614 179.563C136.605 179.348 136.586 179.137 136.574 178.924Z" fill="#F0D9DE"/>
<path d="M136.16 174.945C136.199 175.209 136.24 175.472 136.274 175.736C136.241 175.472 136.199 175.208 136.16 174.945Z" fill="#F0D9DE"/>
<path d="M130.131 158.545C130.295 158.809 130.458 159.074 130.616 159.342C130.458 159.075 130.295 158.809 130.131 158.545Z" fill="#F0D9DE"/>
<path d="M127.594 154.881C127.387 154.611 127.18 154.346 126.967 154.084C127.18 154.346 127.387 154.614 127.594 154.881Z" fill="#F0D9DE"/>
<path d="M132.988 163.969C133.089 164.199 133.185 164.434 133.283 164.666C133.186 164.434 133.089 164.2 132.988 163.969Z" fill="#F0D9DE"/>
<path d="M133.772 165.868C133.861 166.1 133.942 166.337 134.028 166.571C133.942 166.337 133.861 166.101 133.772 165.868Z" fill="#F0D9DE"/>
<path d="M131.072 160.139C131.218 160.399 131.365 160.656 131.508 160.92C131.364 160.657 131.217 160.399 131.072 160.139Z" fill="#F0D9DE"/>
<path d="M118.352 145.965C118.688 146.205 119.024 146.449 119.352 146.697C119.024 146.45 118.688 146.205 118.352 145.965Z" fill="#F0D9DE"/>
<path d="M115.367 144.01C115.722 144.223 116.075 144.442 116.426 144.662C116.075 144.44 115.723 144.223 115.367 144.01Z" fill="#F0D9DE"/>
<path d="M124.576 151.359C124.842 151.634 125.096 151.918 125.351 152.201C125.096 151.917 124.842 151.634 124.576 151.359Z" fill="#F0D9DE"/>
<path d="M113.803 143.114C114.177 143.317 114.546 143.528 114.915 143.743C114.546 143.529 114.177 143.318 113.803 143.114Z" fill="#F0D9DE"/>
<path d="M125.799 152.695C126.032 152.961 126.258 153.232 126.484 153.502C126.258 153.232 126.032 152.96 125.799 152.695Z" fill="#F0D9DE"/>
<path d="M112.196 142.283C112.597 142.48 112.996 142.687 113.392 142.898C112.995 142.687 112.597 142.48 112.196 142.283Z" fill="#F0D9DE"/>
<path d="M54.2346 106.223C56.7796 123.957 69.8066 132.721 86.3686 134.5V138.334C82.0286 138.994 77.9046 140.301 74.0826 142.139C76.0866 141.176 78.1716 140.358 80.3286 139.705L92.9876 161.631L105.647 139.705C107.807 140.357 109.893 141.178 111.898 142.141C108.075 140.303 103.949 138.994 99.6056 138.334V134.496C116.155 132.709 129.168 123.947 131.71 106.221C131.859 106.231 132.009 106.244 132.161 106.244C134.213 106.244 136.047 105.309 137.261 103.842C138.206 102.699 138.776 101.233 138.776 99.6306C138.776 97.7186 137.958 95.9996 136.659 94.7936C135.882 94.0696 134.933 93.5346 133.878 93.2516C133.853 93.2946 133.827 93.3216 133.799 93.3216C98.8546 93.3216 93.4946 73.4896 92.9046 64.1846C91.9986 73.4896 86.0906 93.3216 52.1796 93.3216C52.1526 93.3216 52.1266 93.2946 52.1016 93.2516C51.0446 93.5346 50.0956 94.0686 49.3186 94.7936C48.0196 96.0006 47.2026 97.7186 47.2026 99.6306C47.2026 101.6 48.0666 103.361 49.4316 104.572C50.5996 105.609 52.1306 106.244 53.8156 106.244C53.9556 106.244 54.0946 106.231 54.2346 106.223ZM82.7516 120.446H103.221C93.2326 127.559 82.7516 120.446 82.7516 120.446Z" fill="#F0D9DE"/>
<path d="M52.2018 165.866C52.1128 166.1 52.0308 166.341 51.9438 166.577C52.0318 166.341 52.1128 166.101 52.2018 165.866Z" fill="#F0D9DE"/>
<path d="M57.8989 155.516C57.6999 155.784 57.5069 156.051 57.3149 156.323C57.5069 156.051 57.6989 155.784 57.8989 155.516Z" fill="#F0D9DE"/>
<path d="M55.8479 158.538C55.6819 158.806 55.5159 159.073 55.3569 159.345C55.5159 159.074 55.6819 158.806 55.8479 158.538Z" fill="#F0D9DE"/>
<path d="M54.9088 160.129C54.7608 160.393 54.6088 160.656 54.4658 160.922C54.6098 160.657 54.7608 160.393 54.9088 160.129Z" fill="#F0D9DE"/>
<path d="M72.1716 143.114C71.7966 143.317 71.4276 143.528 71.0596 143.743C71.4276 143.529 71.7966 143.318 72.1716 143.114Z" fill="#F0D9DE"/>
<path d="M73.778 142.283C73.377 142.48 72.979 142.687 72.585 142.896C72.979 142.687 73.376 142.48 73.778 142.283Z" fill="#F0D9DE"/>
<path d="M60.1769 152.693C59.9419 152.961 59.7119 153.236 59.4839 153.507C59.7119 153.236 59.9419 152.96 60.1769 152.693Z" fill="#F0D9DE"/>
<path d="M61.6548 151.097C62.7038 150.019 63.8068 148.993 64.9618 148.025C63.8068 148.993 62.7028 150.019 61.6548 151.097Z" fill="#F0D9DE"/>
<path d="M67.6256 145.963C67.2876 146.205 66.9506 146.447 66.6206 146.699C66.9506 146.45 67.2876 146.205 67.6256 145.963Z" fill="#F0D9DE"/>
<path d="M61.3987 151.357C61.1327 151.636 60.8737 151.923 60.6147 152.209C60.8727 151.923 61.1327 151.636 61.3987 151.357Z" fill="#F0D9DE"/>
<path d="M82.752 120.445C82.752 120.445 93.233 127.558 103.221 120.445H82.752Z" fill="#C26021"/>
<path d="M52.1779 93.3215C86.0879 93.3215 91.9959 73.4895 92.9029 64.1845C93.4939 73.4895 98.8529 93.3215 133.797 93.3215C133.825 93.3215 133.851 93.2945 133.876 93.2515C134.932 93.5345 135.88 94.0695 136.657 94.7935C136.657 93.0075 136.657 90.4255 136.657 86.9005C136.657 62.7815 117.105 43.2295 92.9859 43.2295C68.8679 43.2295 49.3159 62.7815 49.3159 86.9005C49.3159 90.5365 49.3159 93.0695 49.3159 94.7935C50.0929 94.0685 51.0429 93.5345 52.0989 93.2515C52.1249 93.2945 52.1509 93.3215 52.1779 93.3215Z" fill="#DAA461"/>
<path d="M135.429 171.206C135.346 170.862 135.257 170.518 135.165 170.177C135.095 169.915 135.025 169.652 134.95 169.392C134.851 169.048 134.745 168.708 134.638 168.371C134.56 168.117 134.482 167.863 134.398 167.613C134.28 167.263 134.154 166.918 134.028 166.572C133.942 166.338 133.861 166.101 133.772 165.869C133.618 165.463 133.451 165.062 133.284 164.666C133.186 164.434 133.09 164.199 132.989 163.969C132.779 163.489 132.561 163.012 132.335 162.541C132.217 162.297 132.09 162.057 131.967 161.816C131.816 161.515 131.665 161.216 131.508 160.92C131.365 160.656 131.218 160.398 131.072 160.139C130.922 159.871 130.772 159.604 130.617 159.342C130.459 159.074 130.296 158.809 130.132 158.545C129.978 158.297 129.824 158.049 129.665 157.805C129.492 157.537 129.315 157.272 129.135 157.008C128.979 156.776 128.819 156.547 128.658 156.319C128.468 156.051 128.275 155.784 128.081 155.52C127.921 155.307 127.757 155.094 127.595 154.881C127.388 154.613 127.181 154.346 126.968 154.084C126.81 153.889 126.648 153.695 126.486 153.502C126.259 153.232 126.034 152.961 125.801 152.695C125.655 152.527 125.503 152.365 125.354 152.201C125.098 151.918 124.844 151.634 124.579 151.359C124.49 151.265 124.396 151.173 124.307 151.082C123.266 150.012 122.171 148.994 121.027 148.035C120.938 147.959 120.85 147.881 120.759 147.806C120.428 147.535 120.092 147.271 119.754 147.007C119.62 146.904 119.489 146.798 119.355 146.696C119.027 146.448 118.691 146.204 118.355 145.964C118.207 145.859 118.06 145.751 117.911 145.648C117.573 145.414 117.232 145.187 116.888 144.96C116.737 144.86 116.582 144.761 116.429 144.661C116.078 144.44 115.726 144.222 115.37 144.009C115.22 143.919 115.068 143.831 114.918 143.743C114.549 143.528 114.18 143.317 113.806 143.114C113.669 143.04 113.532 142.97 113.395 142.897C112.999 142.686 112.6 142.479 112.199 142.282C112.1 142.233 112.001 142.188 111.901 142.139C109.896 141.176 107.81 140.356 105.65 139.703L92.9908 161.629L80.3318 139.703C78.1748 140.355 76.0898 141.174 74.0858 142.137C73.9848 142.186 73.8828 142.233 73.7808 142.282C73.3798 142.479 72.9818 142.686 72.5878 142.895C72.4508 142.967 72.3128 143.04 72.1758 143.114C71.8008 143.317 71.4318 143.528 71.0638 143.743C70.9128 143.831 70.7618 143.919 70.6108 144.007C70.2558 144.222 69.9028 144.441 69.5538 144.661C69.3988 144.761 69.2468 144.86 69.0938 144.96C68.7488 145.185 68.4078 145.413 68.0708 145.648C67.9238 145.752 67.7768 145.857 67.6308 145.963C67.2928 146.205 66.9558 146.449 66.6258 146.699C66.4938 146.799 66.3638 146.902 66.2338 147.004C65.8938 147.27 65.5528 147.533 65.2208 147.807C65.1348 147.879 65.0508 147.954 64.9648 148.026C63.8108 148.995 62.7068 150.02 61.6578 151.098C61.5738 151.186 61.4848 151.27 61.4018 151.358C61.1358 151.637 60.8768 151.924 60.6178 152.21C60.4738 152.372 60.3238 152.53 60.1808 152.694C59.9458 152.962 59.7158 153.237 59.4878 153.508C59.3298 153.699 59.1698 153.889 59.0138 154.078C58.7988 154.346 58.5888 154.615 58.3798 154.887C58.2198 155.096 58.0588 155.305 57.9028 155.516C57.7038 155.784 57.5108 156.051 57.3188 156.323C57.1608 156.55 57.0038 156.776 56.8478 157.003C56.6658 157.271 56.4858 157.54 56.3108 157.812C56.1558 158.052 56.0028 158.296 55.8518 158.541C55.6858 158.809 55.5198 159.076 55.3608 159.348C55.2068 159.606 55.0598 159.869 54.9138 160.131C54.7658 160.395 54.6138 160.658 54.4708 160.924C54.3158 161.215 54.1688 161.51 54.0198 161.805C53.8948 162.051 53.7648 162.295 53.6448 162.545C53.4238 163.002 53.2138 163.467 53.0078 163.934C52.8988 164.182 52.7938 164.434 52.6898 164.684C52.5248 165.077 52.3618 165.471 52.2078 165.87C52.1188 166.104 52.0368 166.345 51.9498 166.581C51.8248 166.925 51.6998 167.267 51.5838 167.616C51.4988 167.866 51.4198 168.124 51.3418 168.376C51.2358 168.716 51.1288 169.054 51.0298 169.396C50.9548 169.656 50.8838 169.919 50.8138 170.183C50.7218 170.525 50.6328 170.867 50.5508 171.21C50.4868 171.476 50.4248 171.743 50.3638 172.009C50.3358 172.146 50.3008 172.279 50.2718 172.413C50.2258 172.628 50.1878 172.843 50.1468 173.059C50.0928 173.325 50.0428 173.594 49.9938 173.862C49.9318 174.221 49.8738 174.585 49.8188 174.948C49.7798 175.212 49.7398 175.475 49.7038 175.739C49.6538 176.122 49.6118 176.505 49.5718 176.887C49.5458 177.139 49.5148 177.389 49.4948 177.641C49.4568 178.067 49.4298 178.494 49.4048 178.924C49.3918 179.137 49.3758 179.35 49.3658 179.565C49.3378 180.21 49.3208 180.858 49.3208 181.508C49.3208 184.586 49.3208 186.168 49.3208 186.928H136.662C136.662 186.305 136.662 184.807 136.662 181.508C136.662 180.858 136.646 180.209 136.618 179.565C136.609 179.35 136.591 179.139 136.578 178.926C136.554 178.496 136.528 178.067 136.49 177.639C136.468 177.389 136.438 177.139 136.411 176.887C136.372 176.504 136.329 176.121 136.279 175.739C136.245 175.475 136.204 175.212 136.165 174.948C136.109 174.585 136.053 174.221 135.989 173.862C135.94 173.594 135.89 173.327 135.839 173.059C135.789 172.815 135.744 172.567 135.691 172.323C135.669 172.218 135.643 172.114 135.619 172.009C135.554 171.739 135.494 171.472 135.429 171.206Z" fill="#B0382A"/>
</g>
</svg>
