<svg width="186" height="186" viewBox="0 0 186 186" fill="none" xmlns="http://www.w3.org/2000/svg">
<path d="M185.484 92.9143C185.484 41.7892 144.039 0.344147 92.9139 0.344147C41.7888 0.344147 0.34375 41.7892 0.34375 92.9143C0.34375 144.039 41.7888 185.484 92.9139 185.484C144.039 185.484 185.484 144.039 185.484 92.9143Z" fill="#B0382A"/>
<mask id="mask0_2938_182" style="mask-type:luminance" maskUnits="userSpaceOnUse" x="0" y="0" width="186" height="186">
<path d="M92.9139 185.484C144.039 185.484 185.484 144.039 185.484 92.9139C185.484 41.7888 144.039 0.34375 92.9139 0.34375C41.7888 0.34375 0.34375 41.7888 0.34375 92.9139C0.34375 144.039 41.7888 185.484 92.9139 185.484Z" fill="white"/>
</mask>
<g mask="url(#mask0_2938_182)">
<path d="M84.449 138.671C85.034 138.558 85.621 138.45 86.215 138.36C86.223 138.567 86.279 138.771 86.375 138.971C87.048 140.35 89.718 141.381 92.916 141.381C96.114 141.381 98.784 140.35 99.457 138.971C99.554 138.771 99.608 138.567 99.617 138.36C100.211 138.45 100.797 138.557 101.383 138.671C101.509 138.696 101.634 138.722 101.76 138.747C102.802 138.961 103.832 139.206 104.847 139.491C103.117 139 101.345 138.606 99.535 138.331V137.543C95.938 138.029 93.357 137.962 92.798 137.939C92.25 137.962 89.769 138.028 86.297 137.576V138.332C84.486 138.607 82.713 139.002 80.981 139.493C81.998 139.207 83.029 138.962 84.072 138.748C84.198 138.722 84.323 138.697 84.449 138.671Z" fill="#F0D9DE"/>
<path d="M106.669 140.052C106.883 140.122 107.096 140.191 107.308 140.264C107.095 140.191 106.883 140.122 106.669 140.052Z" fill="#F0D9DE"/>
<path d="M136.586 181.665C136.586 181.609 136.586 181.559 136.586 181.503C136.586 174.583 134.973 168.041 132.107 162.227L132.06 162.255C134.953 168.115 136.583 174.706 136.586 181.665Z" fill="#F0D9DE"/>
<path d="M61.8678 107.774C61.5788 106.582 65.5568 121.446 84.4228 112.285C87.0098 111.028 89.8358 110.099 92.9158 110.099C95.9228 110.099 98.7508 110.859 101.227 112.189L101.226 112.185C116.979 119.348 123.275 108.934 123.808 107.681C124.698 104.846 125.177 101.607 125.122 97.9086C124.787 74.5206 105.029 70.6316 105.029 70.6316L104.84 70.3906C103.03 75.2186 98.3758 78.6576 92.9158 78.6576C87.3778 78.6576 82.6688 75.1206 80.9178 70.1826L80.5668 70.6316C80.5668 70.6316 60.8078 74.5216 60.4708 97.9086C60.4118 101.991 61.0018 105.513 62.0768 108.55C62.0008 108.29 61.9278 108.031 61.8678 107.774Z" fill="#F0D9DE"/>
<path d="M53.7241 162.227C50.8591 168.041 49.2451 174.583 49.2451 181.503C49.2451 181.567 49.2451 181.623 49.2451 181.685C49.2451 174.719 50.8761 168.122 53.7711 162.257L53.7241 162.227Z" fill="#F0D9DE"/>
<path d="M78.5239 140.264C78.7359 140.191 78.9499 140.121 79.1649 140.051C78.9499 140.122 78.7359 140.19 78.5239 140.264Z" fill="#F0D9DE"/>
<path d="M104.879 139.501C105.204 139.592 105.524 139.69 105.847 139.789C105.524 139.689 105.202 139.592 104.879 139.501Z" fill="#F0D9DE"/>
<path d="M92.9158 116.521C88.2728 116.521 80.9748 118.067 78.9248 122.021C82.6808 125.493 88.7968 126.357 92.7978 126.369C96.8578 126.357 104.789 125.074 107.775 122.021C105.757 118.458 97.9088 116.521 92.9158 116.521ZM82.6798 120.441H103.149C93.1618 127.554 82.6798 120.441 82.6798 120.441Z" fill="#F0D9DE"/>
<path d="M79.9849 139.79C80.3069 139.69 80.6279 139.592 80.9529 139.5C80.6299 139.592 80.3049 139.689 79.9849 139.79Z" fill="#F0D9DE"/>
<path d="M53.2499 93.042C52.1939 93.12 51.2119 93.444 50.3519 93.959C48.4249 95.114 47.1279 97.218 47.1279 99.629C47.1279 103.281 50.0889 106.241 53.7419 106.241C53.7549 106.241 53.7679 106.239 53.7819 106.239C53.1869 102.335 52.9709 97.961 53.2499 93.042Z" fill="#F0D9DE"/>
<path d="M131.813 106.227C131.906 106.232 131.997 106.24 132.089 106.24C135.74 106.24 138.703 103.28 138.703 99.6283C138.703 97.1743 137.36 95.0373 135.375 93.8963C134.477 93.3793 133.444 93.0723 132.344 93.0293C132.623 97.9483 132.409 102.323 131.813 106.227Z" fill="#F0D9DE"/>
<path d="M103.149 120.441H82.6797C82.6797 120.441 93.1617 127.554 103.149 120.441Z" fill="#C1A0A4"/>
<path d="M92.7981 137.939C93.3581 137.962 95.9391 138.03 99.5351 137.543C109.745 136.163 128.145 130.302 131.813 106.228C132.409 102.324 132.623 97.9486 132.344 93.0286C133.445 93.0716 134.477 93.3796 135.375 93.8956C136.054 92.0786 136.585 89.7536 136.585 86.8966C136.585 62.7776 117.034 43.2266 92.9151 43.2266C68.7961 43.2266 49.2451 62.7776 49.2451 86.8966C49.2451 89.9806 49.7261 92.2756 50.3501 93.9586C51.2101 93.4436 52.1931 93.1196 53.2481 93.0416C52.9701 97.9616 53.1851 102.336 53.7801 106.239C57.4811 130.491 76.1361 136.254 86.2951 137.576C89.7681 138.028 92.2501 137.962 92.7981 137.939ZM92.7981 126.37C88.7971 126.358 82.6811 125.494 78.9251 122.022C80.9751 118.068 88.2741 116.522 92.9161 116.522C97.9091 116.522 105.757 118.46 107.775 122.022C104.789 125.075 96.8571 126.358 92.7981 126.37ZM60.4711 97.9086C60.8081 74.5206 80.5671 70.6316 80.5671 70.6316L80.9181 70.1826C82.6691 75.1206 87.3781 78.6576 92.9161 78.6576C98.3761 78.6576 103.03 75.2186 104.84 70.3906L105.029 70.6316C105.029 70.6316 124.787 74.5216 125.122 97.9086C125.177 101.607 124.697 104.847 123.808 107.681C123.275 108.934 116.979 119.348 101.226 112.185L101.227 112.189C98.7511 110.859 95.9231 110.099 92.9161 110.099C89.8361 110.099 87.0101 111.028 84.4231 112.285C65.5581 121.446 61.5791 106.582 61.8681 107.774C61.9291 108.031 62.0011 108.29 62.0781 108.549C61.0031 105.513 60.4131 101.991 60.4711 97.9086Z" fill="#DAA461"/>
<path d="M68.0591 170.999L53.7721 162.257C50.8771 168.121 49.2461 174.719 49.2461 181.685C49.2461 184.639 49.2461 186.178 49.2461 186.922C49.2461 186.988 49.2461 187.05 49.2461 187.104H68.0591V170.999Z" fill="#192430"/>
<path d="M86.3748 138.971C86.2778 138.771 86.2228 138.567 86.2148 138.36C86.2218 138.57 86.2778 138.774 86.3748 138.971Z" fill="#192430"/>
<path d="M99.617 138.36C99.608 138.567 99.554 138.771 99.457 138.971C99.553 138.774 99.608 138.57 99.617 138.36Z" fill="#192430"/>
<path d="M117.772 170.999V187.104H136.585H136.587C136.587 186.481 136.587 184.984 136.587 181.685C136.587 181.678 136.585 181.671 136.585 181.665C136.582 174.705 134.952 168.114 132.059 162.255L117.772 170.999Z" fill="#192430"/>
<path d="M101.76 138.747C101.634 138.722 101.509 138.696 101.383 138.671C101.508 138.697 101.633 138.722 101.76 138.747Z" fill="#192430"/>
<path d="M84.4488 138.671C84.3228 138.696 84.1978 138.722 84.0708 138.747C84.1978 138.722 84.3228 138.697 84.4488 138.671Z" fill="#192430"/>
<path d="M107.307 140.263C107.095 140.19 106.882 140.121 106.668 140.051C106.395 139.961 106.12 139.872 105.846 139.787C105.524 139.688 105.203 139.59 104.878 139.499C104.867 139.496 104.855 139.493 104.846 139.49C103.831 139.205 102.801 138.96 101.759 138.746C101.633 138.721 101.508 138.695 101.382 138.67C100.796 138.557 100.21 138.449 99.616 138.359C99.607 138.569 99.553 138.773 99.456 138.97C98.783 140.349 96.113 141.38 92.915 141.38C89.717 141.38 87.047 140.349 86.374 138.97C86.277 138.773 86.222 138.569 86.214 138.359C85.62 138.449 85.033 138.556 84.448 138.67C84.322 138.695 84.197 138.721 84.07 138.746C83.027 138.96 81.996 139.205 80.979 139.491C80.97 139.494 80.961 139.496 80.952 139.498C80.627 139.59 80.307 139.688 79.984 139.788C79.71 139.872 79.436 139.961 79.164 140.05C78.949 140.12 78.735 140.19 78.523 140.263C77.979 140.451 77.442 140.651 76.909 140.86C76.871 140.875 76.834 140.89 76.795 140.906C66.693 144.889 58.421 152.503 53.582 162.14L53.724 162.226L53.772 162.256L68.059 170.998V187.103V187.271H117.772V187.103V170.998L132.059 162.254L132.106 162.226L132.249 162.14C127.41 152.501 119.136 144.888 109.034 140.905C108.995 140.89 108.959 140.875 108.923 140.86C108.388 140.652 107.85 140.451 107.307 140.263Z" fill="#8FCAB8"/>
</g>
</svg>
