<svg width="186" height="186" viewBox="0 0 186 186" fill="none" xmlns="http://www.w3.org/2000/svg">
<path d="M185.142 92.572C185.142 143.697 143.698 185.142 92.571 185.142C41.446 185.142 0 143.697 0 92.572C0 41.447 41.446 0 92.571 0C143.698 0 185.142 41.447 185.142 92.572Z" fill="#BE93B1"/>
<mask id="mask0_2938_412" style="mask-type:luminance" maskUnits="userSpaceOnUse" x="0" y="0" width="186" height="186">
<path d="M185.142 92.572C185.142 143.697 143.698 185.142 92.571 185.142C41.446 185.142 0 143.697 0 92.572C0 41.447 41.446 0 92.571 0C143.698 0 185.142 41.447 185.142 92.572Z" fill="white"/>
</mask>
<g mask="url(#mask0_2938_412)">
<path d="M144.582 88.1475C147.515 85.3385 149.344 81.3875 149.344 77.0065C149.344 72.8875 147.727 69.1495 145.096 66.3835C145.79 64.6295 146.176 62.7175 146.176 60.7155C146.176 52.4815 139.724 45.7565 131.6 45.3155C129.557 37.8275 122.71 32.3195 114.574 32.3195C112.416 32.3195 110.349 32.7105 108.437 33.4175C105.356 27.0895 98.8638 22.7285 91.3508 22.7285C83.8878 22.7285 77.4339 27.0355 74.3289 33.2965C72.5399 32.8195 70.6639 32.5625 68.7249 32.5625C56.7289 32.5625 47.0039 42.2875 47.0039 54.2835C47.0039 55.7195 47.1478 57.1215 47.4128 58.4805C40.6458 60.8925 35.7979 67.3535 35.7979 74.9495C35.7979 80.0435 37.9788 84.6275 41.4538 87.8225C39.7158 90.5395 38.7038 93.7635 38.7038 97.2285C38.7038 102.922 41.4289 107.981 45.6419 111.172C47.6909 118.551 54.4529 123.966 62.4839 123.966C62.8969 123.966 63.3048 123.948 63.7088 123.919C59.1158 119.421 55.9588 113.352 54.8378 105.541C54.6978 105.551 54.5609 105.562 54.4169 105.562C50.7659 105.562 47.8049 102.601 47.8049 98.9505C47.8049 95.7865 50.0259 93.1475 52.9919 92.4955C58.7629 92.6855 83.4808 92.1555 85.4008 69.4195C85.8358 76.0775 91.3258 92.0135 133.765 92.4215C136.942 92.9015 139.379 95.6385 139.379 98.9505C139.379 102.601 136.418 105.562 132.766 105.562C132.614 105.562 132.464 105.548 132.315 105.539C131.191 113.371 128.021 119.451 123.407 123.953C123.59 123.961 123.771 123.966 123.955 123.966C130.528 123.966 136.139 119.853 138.359 114.06C144.713 112.154 149.344 106.263 149.344 99.2875C149.344 94.9075 147.515 90.9565 144.582 88.1475ZM135.422 92.4325C139.719 92.4325 141.197 92.4325 141.242 92.4325C141.198 92.4325 139.719 92.4325 135.422 92.4325Z" fill="#B0382A"/>
<path d="M50.106 176.771C50.13 176.517 50.167 176.265 50.194 176.011C50.166 176.265 50.13 176.517 50.106 176.771Z" fill="#F0D9DE"/>
<path d="M49.9678 178.787C49.9748 178.635 49.9888 178.486 49.9988 178.334C49.9898 178.486 49.9748 178.635 49.9678 178.787Z" fill="#F0D9DE"/>
<path d="M133.988 164.228C134.135 164.587 134.288 164.943 134.426 165.306C134.288 164.943 134.135 164.588 133.988 164.228Z" fill="#F0D9DE"/>
<path d="M51.0547 170.894C51.1207 170.607 51.2007 170.326 51.2737 170.041C51.2017 170.326 51.1217 170.607 51.0547 170.894Z" fill="#F0D9DE"/>
<path d="M60.5718 152.246C60.9468 151.811 61.3338 151.389 61.7248 150.969C61.3328 151.388 60.9468 151.81 60.5718 152.246Z" fill="#F0D9DE"/>
<path d="M61.8447 150.838C62.2577 150.4 62.6827 149.971 63.1137 149.553C62.6827 149.97 62.2577 150.4 61.8447 150.838Z" fill="#F0D9DE"/>
<path d="M52.1099 167.133C52.2169 166.809 52.3379 166.492 52.4519 166.168C52.3369 166.492 52.2169 166.808 52.1099 167.133Z" fill="#F0D9DE"/>
<path d="M83.3437 138.366C75.6207 140.223 68.6947 144.132 63.1777 149.485C68.6947 144.132 75.6207 140.227 83.3447 138.37C83.3447 138.368 83.3447 138.368 83.3437 138.366Z" fill="#F0D9DE"/>
<path d="M119.669 145.792C115.02 142.325 109.655 139.767 103.839 138.366C103.839 138.368 103.838 138.37 103.838 138.37C109.655 139.768 115.02 142.325 119.669 145.792Z" fill="#F0D9DE"/>
<path d="M58.208 155.221C58.504 154.813 58.812 154.417 59.121 154.021C58.812 154.418 58.504 154.813 58.208 155.221Z" fill="#F0D9DE"/>
<path d="M54.2866 161.769C54.4656 161.4 54.6566 161.042 54.8456 160.679C54.6566 161.043 54.4646 161.4 54.2866 161.769Z" fill="#F0D9DE"/>
<path d="M52.7588 165.306C52.8968 164.943 53.0488 164.587 53.1968 164.228C53.0488 164.588 52.8968 164.943 52.7588 165.306Z" fill="#F0D9DE"/>
<path d="M55.1616 160.063C55.3756 159.668 55.6016 159.281 55.8286 158.896C55.6016 159.281 55.3746 159.669 55.1616 160.063Z" fill="#F0D9DE"/>
<path d="M56.1089 158.404C56.3419 158.013 56.5879 157.635 56.8319 157.254C56.5869 157.635 56.3419 158.013 56.1089 158.404Z" fill="#F0D9DE"/>
<path d="M126.862 152.545C127.188 152.93 127.512 153.313 127.825 153.707C127.512 153.312 127.188 152.929 126.862 152.545Z" fill="#F0D9DE"/>
<path d="M130.397 157.323C130.626 157.68 130.857 158.038 131.075 158.401C130.857 158.038 130.625 157.68 130.397 157.323Z" fill="#F0D9DE"/>
<path d="M119.674 145.795C120.181 146.174 120.679 146.561 121.168 146.961C120.679 146.56 120.18 146.173 119.674 145.795Z" fill="#F0D9DE"/>
<path d="M131.407 158.983C131.614 159.34 131.825 159.698 132.022 160.063C131.825 159.698 131.614 159.341 131.407 158.983Z" fill="#F0D9DE"/>
<path d="M122.719 148.288C123.155 148.679 123.585 149.077 124.005 149.485C123.585 149.077 123.155 148.678 122.719 148.288Z" fill="#F0D9DE"/>
<path d="M121.264 147.043C121.722 147.418 122.173 147.801 122.615 148.193C122.173 147.8 121.722 147.418 121.264 147.043Z" fill="#F0D9DE"/>
<path d="M132.37 160.739C132.547 161.081 132.728 161.421 132.898 161.768C132.728 161.421 132.546 161.081 132.37 160.739Z" fill="#F0D9DE"/>
<path d="M132.315 105.539C132.464 105.549 132.614 105.562 132.766 105.562C136.418 105.562 139.379 102.601 139.379 98.9509C139.379 95.6379 136.941 92.9019 133.765 92.4219C91.3257 92.0139 85.8347 76.0779 85.4007 69.4199C83.4807 92.1559 58.7617 92.6859 52.9917 92.4959C50.0257 93.1479 47.8047 95.7869 47.8047 98.9509C47.8047 102.601 50.7657 105.562 54.4167 105.562C54.5607 105.562 54.6977 105.55 54.8377 105.541C55.9587 113.352 59.1157 119.422 63.7087 123.92C69.5457 129.637 77.7047 132.822 86.9717 133.818V137.152V137.256V137.551V137.653C86.9657 137.653 86.9597 137.657 86.9547 137.657C87.1457 139.272 90.0367 140.555 93.5917 140.555C97.1467 140.555 100.037 139.272 100.23 137.657C100.223 137.657 100.217 137.653 100.211 137.653V137.551V137.256V137.15V133.814C109.447 132.816 117.579 129.642 123.406 123.953C128.021 119.451 131.191 113.371 132.315 105.539ZM83.3577 119.763H103.826C93.8377 126.877 83.3577 119.763 83.3577 119.763Z" fill="#F0D9DE"/>
<path d="M103.826 119.763H83.3579C83.3579 119.763 93.8379 126.877 103.826 119.763Z" fill="#E490A1"/>
<path d="M93.5929 143.29C88.6759 143.29 84.5469 141.2 83.3449 138.37C75.6209 140.227 68.6949 144.132 63.1779 149.485C63.1549 149.507 63.1349 149.528 63.1139 149.551C62.6829 149.969 62.2589 150.399 61.8449 150.836C61.8039 150.879 61.7659 150.924 61.7249 150.967C61.3329 151.387 60.9469 151.809 60.5719 152.244C60.5129 152.31 60.4589 152.383 60.4009 152.449C60.0469 152.863 59.6969 153.279 59.3579 153.705C59.2779 153.809 59.2019 153.914 59.1219 154.02C58.8129 154.416 58.5049 154.813 58.2089 155.221C58.1199 155.344 58.0379 155.473 57.9489 155.596C57.6709 155.99 57.3919 156.385 57.1259 156.787C57.0239 156.939 56.9309 157.1 56.8319 157.252C56.5879 157.633 56.3429 158.012 56.1089 158.402C56.0119 158.562 55.9229 158.73 55.8289 158.894C55.6019 159.279 55.3759 159.667 55.1619 160.062C55.0539 160.265 54.9529 160.474 54.8459 160.677C54.6579 161.04 54.4659 161.398 54.2869 161.767C54.1799 161.986 54.0849 162.212 53.9809 162.433C53.8129 162.794 53.6429 163.152 53.4849 163.515C53.3829 163.749 53.2939 163.99 53.1969 164.226C53.0499 164.585 52.8969 164.941 52.7589 165.304C52.6509 165.587 52.5539 165.88 52.4509 166.165C52.3369 166.489 52.2169 166.806 52.1089 167.13C51.9989 167.466 51.9009 167.81 51.7979 168.148C51.7129 168.431 51.6209 168.711 51.5399 168.994C51.4429 169.34 51.3609 169.691 51.2719 170.039C51.1999 170.324 51.1199 170.605 51.0529 170.892C50.9659 171.267 50.8929 171.646 50.8169 172.025C50.7619 172.291 50.6999 172.554 50.6509 172.82C50.5799 173.209 50.5229 173.601 50.4619 173.992C50.4199 174.256 50.3699 174.517 50.3349 174.781C50.2779 175.189 50.2369 175.599 50.1919 176.01C50.1649 176.264 50.1289 176.516 50.1039 176.77C50.0569 177.288 50.0269 177.809 49.9979 178.333C49.9879 178.485 49.9739 178.634 49.9669 178.786C49.9349 179.462 49.9199 180.141 49.9199 180.823C49.9199 183.901 49.9199 185.483 49.9199 186.243H137.262C137.262 185.62 137.262 184.122 137.262 180.823C137.262 180.141 137.246 179.462 137.215 178.786C137.208 178.634 137.193 178.485 137.184 178.333C137.155 177.81 137.123 177.288 137.077 176.77C137.054 176.516 137.017 176.264 136.989 176.01C136.945 175.6 136.904 175.19 136.847 174.781C136.811 174.517 136.761 174.256 136.72 173.992C136.658 173.601 136.602 173.209 136.53 172.82C136.48 172.554 136.419 172.291 136.364 172.025C136.287 171.646 136.215 171.267 136.127 170.892C136.061 170.605 135.981 170.324 135.909 170.039C135.82 169.691 135.737 169.34 135.641 168.994C135.561 168.711 135.469 168.431 135.384 168.148C135.282 167.81 135.183 167.466 135.073 167.13C134.967 166.806 134.846 166.489 134.731 166.165C134.629 165.88 134.533 165.587 134.424 165.304C134.286 164.941 134.134 164.585 133.986 164.226C133.889 163.99 133.799 163.749 133.698 163.515C133.54 163.152 133.369 162.794 133.201 162.433C133.098 162.212 133.002 161.986 132.896 161.767C132.726 161.419 132.544 161.079 132.368 160.738C132.25 160.513 132.141 160.285 132.02 160.062C131.823 159.697 131.612 159.339 131.405 158.982C131.293 158.789 131.188 158.591 131.073 158.4C130.855 158.037 130.624 157.679 130.395 157.322C130.28 157.144 130.173 156.963 130.056 156.787C129.805 156.406 129.541 156.035 129.28 155.664C129.176 155.516 129.078 155.365 128.972 155.221C128.691 154.832 128.398 154.455 128.103 154.076C128.009 153.953 127.918 153.826 127.823 153.705C127.51 153.311 127.186 152.928 126.86 152.543C126.775 152.443 126.696 152.34 126.611 152.242C126.261 151.84 125.9 151.447 125.537 151.054C125.469 150.982 125.405 150.908 125.338 150.833C124.948 150.421 124.55 150.023 124.145 149.626C124.097 149.579 124.052 149.528 124.004 149.483C123.584 149.075 123.154 148.676 122.718 148.286C122.682 148.255 122.649 148.221 122.614 148.19C122.173 147.797 121.721 147.415 121.263 147.04C121.23 147.013 121.2 146.985 121.167 146.958C120.678 146.558 120.18 146.171 119.673 145.792C119.673 145.792 119.67 145.79 119.668 145.79C115.019 142.323 109.653 139.767 103.837 138.368C102.637 141.2 98.5079 143.29 93.5929 143.29Z" fill="#BDCAE8"/>
<path d="M86.9381 137.541C86.9371 137.547 86.9351 137.553 86.9351 137.557C86.9371 137.557 86.9391 137.557 86.9391 137.557C86.9391 137.55 86.9381 137.547 86.9381 137.541Z" fill="#BDCAE8"/>
<path d="M86.9559 137.656C86.9609 137.656 86.9669 137.652 86.9729 137.652V137.55C86.9619 137.552 86.9519 137.552 86.9399 137.556C86.9409 137.589 86.9509 137.623 86.9559 137.656Z" fill="#BDCAE8"/>
<path d="M100.249 137.555C100.249 137.551 100.248 137.545 100.248 137.541C100.248 137.545 100.246 137.549 100.246 137.555C100.246 137.555 100.247 137.555 100.249 137.555Z" fill="#BDCAE8"/>
<path d="M100.246 137.556C100.235 137.552 100.223 137.552 100.212 137.55V137.652C100.218 137.652 100.224 137.656 100.231 137.656C100.233 137.623 100.245 137.589 100.246 137.556Z" fill="#BDCAE8"/>
<path d="M100.23 137.656C100.038 139.271 97.1468 140.554 93.5918 140.554C90.0368 140.554 87.1458 139.271 86.9548 137.656C86.9498 137.623 86.9398 137.589 86.9378 137.556C86.9378 137.556 86.9358 137.556 86.9338 137.556C85.7048 137.744 84.4948 137.988 83.3008 138.277C83.3138 138.308 83.3298 138.338 83.3428 138.367C83.3438 138.369 83.3438 138.369 83.3438 138.371C84.5458 141.201 88.6748 143.291 93.5918 143.291C98.5068 143.291 102.636 141.201 103.837 138.371C103.837 138.371 103.838 138.369 103.838 138.367C103.852 138.338 103.869 138.308 103.881 138.277C102.688 137.988 101.477 137.744 100.247 137.556C100.247 137.556 100.246 137.556 100.244 137.556C100.245 137.589 100.233 137.623 100.23 137.656Z" fill="#213480"/>
<path d="M86.9717 137.549V137.254V137.15C86.9477 137.259 86.9307 137.371 86.9307 137.484C86.9307 137.504 86.9347 137.521 86.9377 137.539C86.9377 137.545 86.9387 137.549 86.9387 137.555C86.9507 137.551 86.9607 137.551 86.9717 137.549Z" fill="#213480"/>
<path d="M100.211 137.549C100.222 137.551 100.234 137.551 100.245 137.555C100.245 137.549 100.247 137.545 100.247 137.541C100.249 137.521 100.253 137.504 100.253 137.484C100.253 137.371 100.236 137.259 100.211 137.148V137.254V137.549Z" fill="#213480"/>
</g>
</svg>
