<svg width="186" height="186" viewBox="0 0 186 186" fill="none" xmlns="http://www.w3.org/2000/svg">
<path d="M185.142 92.572C185.142 143.697 143.695 185.142 92.571 185.142C41.444 185.142 0 143.697 0 92.572C0 41.447 41.444 0 92.571 0C143.695 0 185.142 41.447 185.142 92.572Z" fill="#F3BE49"/>
<mask id="mask0_2938_471" style="mask-type:luminance" maskUnits="userSpaceOnUse" x="0" y="0" width="186" height="186">
<path d="M185.142 92.572C185.142 143.697 143.695 185.142 92.571 185.142C41.444 185.142 0 143.697 0 92.572C0 41.447 41.444 0 92.571 0C143.695 0 185.142 41.447 185.142 92.572Z" fill="white"/>
</mask>
<g mask="url(#mask0_2938_471)">
<path d="M136.241 94.1112C135.464 93.3882 134.515 92.8533 133.458 92.5703C133.433 92.6133 133.408 92.6382 133.381 92.6382C97.6142 92.6382 92.8432 71.8652 92.4512 62.8652C91.5582 71.8902 85.7412 92.7773 51.0232 92.7833C50.2302 93.0903 49.5111 93.5432 48.9001 94.1112C47.6011 95.3182 46.7832 97.0372 46.7832 98.9492C46.7832 102.601 49.7432 105.56 53.3952 105.56C53.5372 105.56 53.6772 105.548 53.8182 105.54C56.3622 123.276 69.3891 132.038 85.9521 133.817V137.255C85.9271 137.362 85.9122 137.47 85.9112 137.581C85.9152 137.606 85.9172 137.632 85.9232 137.657C85.9342 137.655 85.9421 137.653 85.9521 137.651C85.9411 137.653 85.9332 137.655 85.9232 137.657C86.2812 139.204 89.1162 140.411 92.5702 140.411C96.0242 140.411 98.8612 139.204 99.2182 137.657C99.2082 137.655 99.1991 137.653 99.1891 137.651C99.2001 137.653 99.2082 137.655 99.2182 137.657C99.2242 137.632 99.2262 137.606 99.2292 137.581C99.2292 137.47 99.2141 137.36 99.1891 137.255V133.814C115.737 132.027 128.749 123.265 131.292 105.539C131.441 105.549 131.591 105.56 131.743 105.56C135.395 105.56 138.356 102.601 138.356 98.9492C138.357 97.0372 137.54 95.3182 136.241 94.1112ZM98.3732 122.05C94.2142 123.464 90.2562 122.931 87.3102 122.019C82.3702 122.517 78.5582 117.064 78.5582 117.064C78.5582 117.064 82.7232 119.16 85.4152 116.289C88.1072 113.416 91.0062 114.732 91.8452 115.547C92.6482 116.326 93.0842 118.127 91.7262 119.762H93.4832C92.1262 118.127 92.5612 116.326 93.3652 115.547C94.2032 114.733 97.1012 113.416 99.7932 116.289C102.485 119.16 106.65 117.064 106.65 117.064C106.65 117.064 103.081 122.17 98.3732 122.05Z" fill="#F0D9DE"/>
<path d="M93.4821 119.761H91.725C91.329 120.239 90.789 120.704 90.048 121.122C89.11 121.655 88.1931 121.93 87.3101 122.018C90.2551 122.93 94.213 123.463 98.373 122.049C97.347 122.02 96.2691 121.75 95.1611 121.121C94.4211 120.705 93.8791 120.24 93.4821 119.761Z" fill="#C1A0A4"/>
<path d="M117.379 169.972V186.212H67.7634V169.972L53.5273 161.259C53.1543 162.001 52.7944 162.753 52.4634 163.521C52.4424 163.568 52.4234 163.619 52.4034 163.666C52.1714 164.209 51.9464 164.756 51.7364 165.309C51.7104 165.379 51.6874 165.452 51.6614 165.522C51.4624 166.055 51.2674 166.592 51.0894 167.137C51.0424 167.276 51.0054 167.416 50.9604 167.555C50.8084 168.036 50.6574 168.512 50.5214 168.998C50.4724 169.17 50.4344 169.342 50.3884 169.514C50.2654 169.973 50.1424 170.432 50.0334 170.897C49.9944 171.067 49.9643 171.243 49.9263 171.413C49.8233 171.882 49.7193 172.353 49.6313 172.827C49.5853 173.077 49.5504 173.333 49.5074 173.587C49.4424 173.985 49.3714 174.384 49.3154 174.784C49.2664 175.136 49.2334 175.491 49.1934 175.845C49.1584 176.153 49.1144 176.462 49.0864 176.775C49.0554 177.121 49.0374 177.474 49.0154 177.824C48.9934 178.144 48.9624 178.465 48.9484 178.789C48.9174 179.465 48.9023 180.144 48.9023 180.826C48.9023 183.904 48.9023 185.486 48.9023 186.246H136.243C136.243 185.623 136.243 184.125 136.243 180.826C136.243 180.144 136.228 179.465 136.197 178.789C136.188 178.613 136.17 178.439 136.161 178.264C136.132 177.768 136.103 177.27 136.058 176.776C136.03 176.463 135.987 176.155 135.952 175.846C135.912 175.492 135.879 175.137 135.83 174.785C135.782 174.447 135.722 174.111 135.667 173.777C135.615 173.459 135.572 173.14 135.513 172.826C135.444 172.449 135.36 172.078 135.28 171.703C135.222 171.435 135.174 171.164 135.112 170.896C135.018 170.5 134.911 170.107 134.808 169.714C134.745 169.476 134.69 169.235 134.624 168.999C134.506 168.575 134.371 168.157 134.239 167.739C134.176 167.538 134.122 167.335 134.055 167.136C133.893 166.646 133.718 166.163 133.539 165.685C133.494 165.56 133.453 165.433 133.407 165.31C133.213 164.8 133.005 164.296 132.793 163.796C132.754 163.704 132.72 163.61 132.681 163.521C132.454 162.996 132.212 162.478 131.966 161.962C131.936 161.899 131.909 161.835 131.879 161.773C131.795 161.601 131.703 161.433 131.616 161.261L117.379 169.972Z" fill="#F0D9DE"/>
<path d="M92.4514 62.8649C92.8434 71.8649 97.6144 92.6379 133.381 92.6379C133.408 92.6379 133.434 92.6129 133.458 92.5699C134.516 92.8529 135.464 93.3878 136.241 94.1108C136.241 92.3258 136.241 89.7439 136.241 86.2169C136.241 62.0999 116.689 42.5469 92.5704 42.5469C68.4534 42.5469 48.9004 62.0999 48.9004 86.2169C48.9004 89.8539 48.9004 92.3868 48.9004 94.1108C49.5114 93.5428 50.2304 93.0899 51.0234 92.7829C85.7414 92.7769 91.5584 71.8899 92.4514 62.8649Z" fill="#192430"/>
<path d="M99.7921 116.288C97.1011 113.415 94.2021 114.731 93.3641 115.546C92.5601 116.325 92.1251 118.126 93.4821 119.761C93.8791 120.239 94.4201 120.704 95.1611 121.122C96.2681 121.751 97.346 122.02 98.373 122.05C103.081 122.169 106.649 117.064 106.649 117.064C106.649 117.064 102.484 119.159 99.7921 116.288Z" fill="#192430"/>
<path d="M91.7251 119.761C93.0831 118.126 92.6471 116.325 91.8441 115.546C91.0051 114.732 88.1071 113.415 85.4141 116.288C82.7231 119.159 78.5571 117.063 78.5571 117.063C78.5571 117.063 82.3691 122.516 87.3091 122.018C88.1921 121.93 89.1091 121.655 90.0471 121.122C90.7891 120.705 91.3291 120.24 91.7251 119.761Z" fill="#192430"/>
<path d="M99.2194 137.657C98.8624 139.204 96.0254 140.411 92.5714 140.411C89.1174 140.411 86.2824 139.204 85.9244 137.657C85.9184 137.632 85.9164 137.606 85.9124 137.581C85.9004 137.518 85.8864 137.458 85.8824 137.397C71.5924 139.581 59.5744 148.661 53.3174 161.13L53.5284 161.259L67.7643 169.972V186.212H117.38V169.972L131.615 161.259L131.827 161.13C125.568 148.661 113.553 139.581 99.2614 137.397C99.2594 137.458 99.2424 137.518 99.2314 137.581C99.2274 137.606 99.2254 137.632 99.2194 137.657Z" fill="#93CFE9"/>
</g>
</svg>
