<svg width="186" height="186" viewBox="0 0 186 186" fill="none" xmlns="http://www.w3.org/2000/svg">
<path d="M92.57 185.14C143.695 185.14 185.14 143.695 185.14 92.57C185.14 41.445 143.695 0 92.57 0C41.445 0 0 41.445 0 92.57C0 143.695 41.445 185.14 92.57 185.14Z" fill="#E7C205"/>
<mask id="mask0_2938_490" style="mask-type:luminance" maskUnits="userSpaceOnUse" x="0" y="0" width="186" height="186">
<path d="M92.57 185.14C143.695 185.14 185.14 143.695 185.14 92.57C185.14 41.445 143.695 0 92.57 0C41.445 0 0 41.445 0 92.57C0 143.695 41.445 185.14 92.57 185.14Z" fill="white"/>
</mask>
<g mask="url(#mask0_2938_490)">
<path d="M54.0898 163.133C51.1348 169.024 49.4648 175.672 49.4648 182.71C49.4648 188.14 49.4648 188.14 49.4648 188.14H68.3268V171.845L54.0898 163.133Z" fill="#F0D9DE"/>
<path d="M132.01 107.285C132.161 107.296 132.311 107.307 132.461 107.307C136.122 107.307 139.088 104.342 139.088 100.683C139.088 97.6501 137.046 95.0971 134.261 94.3141C134.205 94.3151 134.136 94.3121 134.053 94.3071L128.436 98.1731C114.533 98.9771 76.8707 94.2921 72.6657 77.2881C72.6657 77.2881 71.6957 94.7561 58.7817 98.1731L53.1637 94.3071C53.1277 94.2601 53.0937 94.1971 53.0607 94.1271C49.8327 94.5711 47.3447 97.3331 47.3447 100.683C47.3447 104.342 50.3097 107.307 53.9677 107.307C54.1117 107.307 54.2497 107.295 54.3907 107.286C56.9417 125.056 69.9927 133.834 86.5847 135.616V139.146C86.7807 140.758 89.6697 142.039 93.2197 142.039C96.7457 142.039 99.6177 140.774 99.8477 139.176V135.613C116.426 133.824 129.463 125.045 132.01 107.285ZM82.9627 121.535H103.468C93.4637 128.662 82.9627 121.535 82.9627 121.535Z" fill="#F0D9DE"/>
<path d="M118.107 188.14H136.968C136.968 188.14 136.968 188.14 136.968 182.71C136.968 175.672 135.298 169.024 132.343 163.133L118.107 171.845V188.14Z" fill="#F0D9DE"/>
<path d="M82.9629 121.535C82.9629 121.535 93.4639 128.662 103.468 121.535H82.9629Z" fill="#E0481D"/>
<path d="M58.7818 98.1739C71.6958 94.7569 72.6658 77.2889 72.6658 77.2889C76.8708 94.2929 114.533 98.9779 128.436 98.1739L134.053 94.3079C134.136 94.3129 134.205 94.3159 134.261 94.3149C134.646 94.3059 134.452 94.1609 134.208 94.0659C136.206 91.0189 136.14 84.7349 135.907 81.6549C134.456 62.4089 125.33 50.9879 108.71 45.6899C97.3018 41.6609 84.3528 41.0589 76.4228 41.1619C76.2908 41.1599 76.1598 41.1499 76.0258 41.1499C64.0118 41.1499 46.0508 41.4739 46.0508 41.4739C46.0508 41.4739 55.0358 50.9219 54.0648 69.7039C53.8798 73.3089 51.7878 91.4979 53.0608 94.1279C53.0928 94.1969 53.1268 94.2609 53.1638 94.3079L58.7818 98.1739Z" fill="#A7612D"/>
<path d="M93.2196 144.777C88.3126 144.777 84.1916 142.692 82.9836 139.868C70.2076 142.909 59.5866 151.505 53.8296 162.975L54.0416 163.104L54.0896 163.133L68.3266 171.845V188.14H118.107V171.845L132.343 163.133L132.391 163.104L132.603 162.975C126.846 151.506 116.23 142.914 103.455 139.87C102.246 142.694 98.1256 144.777 93.2196 144.777Z" fill="#EC8087"/>
<path d="M93.2196 142.039C89.6696 142.039 86.7806 140.759 86.5846 139.146C86.5806 139.112 86.5676 139.077 86.5666 139.042C86.5556 139.044 86.5436 139.046 86.5306 139.048C85.3136 139.236 84.1146 139.477 82.9326 139.761C82.9436 139.789 82.9586 139.819 82.9716 139.846C82.9756 139.853 82.9806 139.86 82.9836 139.867C84.1916 142.691 88.3126 144.776 93.2196 144.776C98.1246 144.776 102.245 142.693 103.455 139.869C103.457 139.867 103.459 139.862 103.46 139.86C103.476 139.827 103.493 139.795 103.507 139.761C102.312 139.473 101.101 139.229 99.8686 139.042C99.8666 139.076 99.8566 139.111 99.8536 139.146C99.8516 139.158 99.8476 139.166 99.8466 139.175C99.6186 140.775 96.7466 142.039 93.2196 142.039Z" fill="#E6595A"/>
</g>
</svg>
