<svg width="186" height="186" viewBox="0 0 186 186" fill="none" xmlns="http://www.w3.org/2000/svg">
<path d="M185.14 92.572C185.14 143.699 143.695 185.144 92.571 185.144C41.445 185.144 0 143.699 0 92.572C0 41.447 41.445 0 92.571 0C143.695 0 185.14 41.447 185.14 92.572Z" fill="#D2DE00"/>
<mask id="mask0_2938_216" style="mask-type:luminance" maskUnits="userSpaceOnUse" x="0" y="0" width="186" height="186">
<path d="M185.14 92.572C185.14 143.699 143.695 185.144 92.571 185.144C41.445 185.144 0 143.699 0 92.572C0 41.447 41.445 0 92.571 0C143.695 0 185.14 41.447 185.14 92.572Z" fill="white"/>
</mask>
<g mask="url(#mask0_2938_216)">
<path d="M131.293 105.539C128.75 123.266 115.736 132.027 99.189 133.814V137.652C102.488 138.154 105.664 139.025 108.677 140.22H136.24C136.24 140.22 136.24 119.786 136.24 103.788C135.06 104.886 133.482 105.561 131.744 105.561C131.591 105.562 131.443 105.548 131.293 105.539Z" fill="#E490A1"/>
<path d="M85.9524 133.818C69.3914 132.039 56.3634 123.277 53.8184 105.541C53.6784 105.551 53.5404 105.562 53.3964 105.562C51.6584 105.562 50.0804 104.886 48.9014 103.789C48.9014 119.842 48.9014 140.221 48.9014 140.221H76.4654C79.4774 139.026 82.6544 138.155 85.9514 137.653L85.9524 133.818Z" fill="#E490A1"/>
<path d="M52.3413 163.818C52.4333 163.601 52.5273 163.384 52.6223 163.171C52.5273 163.385 52.4333 163.601 52.3413 163.818Z" fill="#F0D9DE"/>
<path d="M136.168 178.397C136.178 178.588 136.189 178.778 136.197 178.969C136.189 178.778 136.177 178.588 136.168 178.397Z" fill="#F0D9DE"/>
<path d="M49.9844 171.132C50.0314 170.929 50.0804 170.726 50.1304 170.523C50.0804 170.727 50.0314 170.928 49.9844 171.132Z" fill="#F0D9DE"/>
<path d="M51.688 165.445C51.758 165.257 51.835 165.072 51.909 164.885C51.836 165.072 51.758 165.258 51.688 165.445Z" fill="#F0D9DE"/>
<path d="M50.4263 169.367C50.4813 169.162 50.5353 168.959 50.5943 168.758C50.5363 168.959 50.4813 169.162 50.4263 169.367Z" fill="#F0D9DE"/>
<path d="M49.6201 172.89C49.6441 172.763 49.6731 172.636 49.6971 172.509C49.6721 172.636 49.6441 172.763 49.6201 172.89Z" fill="#F0D9DE"/>
<path d="M133.232 164.885C133.304 165.073 133.382 165.258 133.453 165.445C133.383 165.258 133.304 165.072 133.232 164.885Z" fill="#F0D9DE"/>
<path d="M134.547 168.758C134.606 168.959 134.66 169.162 134.715 169.367C134.66 169.162 134.605 168.959 134.547 168.758Z" fill="#F0D9DE"/>
<path d="M132.517 163.172C132.613 163.385 132.706 163.602 132.798 163.819C132.707 163.601 132.613 163.385 132.517 163.172Z" fill="#F0D9DE"/>
<path d="M134.025 167.056C134.07 167.195 134.111 167.333 134.154 167.468C134.111 167.334 134.07 167.195 134.025 167.056Z" fill="#F0D9DE"/>
<path d="M135.806 174.66C135.829 174.824 135.847 174.99 135.869 175.154C135.847 174.99 135.83 174.824 135.806 174.66Z" fill="#F0D9DE"/>
<path d="M135.443 172.51C135.468 172.637 135.498 172.764 135.521 172.891C135.498 172.763 135.468 172.636 135.443 172.51Z" fill="#F0D9DE"/>
<path d="M135.011 170.522C135.06 170.725 135.111 170.928 135.156 171.131C135.111 170.928 135.06 170.727 135.011 170.522Z" fill="#F0D9DE"/>
<path d="M50.9873 167.469C51.0313 167.334 51.0713 167.196 51.1163 167.057C51.0713 167.195 51.0313 167.334 50.9873 167.469Z" fill="#F0D9DE"/>
<path d="M138.357 98.949C138.357 97.037 137.541 95.318 136.24 94.111C135.31 93.246 134.133 92.648 132.822 92.433H109.214L100.495 76.2891L103.079 92.433H52.3172C51.0072 92.648 49.8312 93.246 48.9002 94.111C47.6012 95.318 46.7832 97.037 46.7832 98.949C46.7832 100.863 47.6012 102.582 48.9002 103.789C50.0802 104.887 51.6572 105.562 53.3952 105.562C53.5382 105.562 53.6772 105.55 53.8172 105.541C56.3622 123.277 69.3892 132.039 85.9512 133.818V137.652C82.6532 138.154 79.4762 139.025 76.4652 140.22C75.0062 140.8 73.5902 141.462 72.2132 142.191C72.5482 142.013 72.8832 141.837 73.2222 141.67C76.5292 145.953 83.9462 148.94 92.5712 148.94C101.195 148.94 108.611 145.954 111.918 141.67C112.258 141.838 112.592 142.014 112.928 142.191C111.551 141.462 110.135 140.8 108.678 140.22C105.664 139.025 102.489 138.154 99.1902 137.652V133.814C115.737 132.027 128.751 123.265 131.294 105.539C131.444 105.549 131.593 105.562 131.745 105.562C133.483 105.562 135.061 104.886 136.241 103.789C137.541 102.582 138.357 100.863 138.357 98.949ZM82.3372 119.763H102.805C92.8172 126.877 82.3372 119.763 82.3372 119.763Z" fill="#F0D9DE"/>
<path d="M70.7861 142.977C71.1051 142.793 71.4261 142.613 71.7491 142.437C71.4251 142.613 71.1051 142.794 70.7861 142.977Z" fill="#F0D9DE"/>
<path d="M69.3501 143.839C69.6631 143.642 69.9801 143.452 70.2971 143.263C69.9801 143.453 69.6631 143.642 69.3501 143.839Z" fill="#F0D9DE"/>
<path d="M64.6343 147.267C64.8993 147.046 65.1663 146.829 65.4373 146.615C65.1673 146.83 64.8993 147.047 64.6343 147.267Z" fill="#F0D9DE"/>
<path d="M54.9673 158.615C55.0983 158.392 55.2353 158.174 55.3703 157.953C55.2353 158.173 55.0983 158.392 54.9673 158.615Z" fill="#F0D9DE"/>
<path d="M60.4434 151.259C60.6574 151.025 60.8724 150.794 61.0914 150.566C60.8724 150.794 60.6574 151.024 60.4434 151.259Z" fill="#F0D9DE"/>
<path d="M56.8481 155.714C57.0021 155.493 57.1551 155.273 57.3131 155.056C57.1551 155.273 57.0031 155.494 56.8481 155.714Z" fill="#F0D9DE"/>
<path d="M129.769 157.953C129.906 158.174 130.042 158.392 130.173 158.615C130.043 158.392 129.906 158.173 129.769 157.953Z" fill="#F0D9DE"/>
<path d="M119.703 146.615C119.975 146.83 120.242 147.047 120.508 147.267C120.242 147.047 119.974 146.83 119.703 146.615Z" fill="#F0D9DE"/>
<path d="M120.996 147.685C121.258 147.91 121.521 148.134 121.777 148.365C121.521 148.135 121.258 147.91 120.996 147.685Z" fill="#F0D9DE"/>
<path d="M126.347 153.158C126.542 153.396 126.74 153.633 126.929 153.875C126.74 153.633 126.543 153.396 126.347 153.158Z" fill="#F0D9DE"/>
<path d="M113.392 142.437C113.714 142.613 114.034 142.793 114.355 142.977C114.035 142.794 113.715 142.613 113.392 142.437Z" fill="#F0D9DE"/>
<path d="M114.843 143.263C115.161 143.452 115.478 143.642 115.79 143.839C115.478 143.642 115.162 143.453 114.843 143.263Z" fill="#F0D9DE"/>
<path d="M118.361 145.588C118.65 145.799 118.933 146.016 119.215 146.234C118.933 146.015 118.65 145.798 118.361 145.588Z" fill="#F0D9DE"/>
<path d="M127.828 155.056C127.986 155.273 128.139 155.494 128.293 155.714C128.138 155.494 127.986 155.273 127.828 155.056Z" fill="#F0D9DE"/>
<path d="M130.781 159.679C130.908 159.906 131.031 160.134 131.152 160.363C131.031 160.135 130.908 159.906 130.781 159.679Z" fill="#F0D9DE"/>
<path d="M103.08 92.4329L100.496 76.2889L109.215 92.4329H132.823C134.133 92.6479 135.311 93.2458 136.241 94.1108C136.241 90.5228 136.241 87.7089 136.241 86.2169C136.241 62.0999 116.69 42.5469 92.5724 42.5469C68.4544 42.5469 48.9023 62.0999 48.9023 86.2169C48.9023 87.8089 48.9023 90.6058 48.9023 94.1108C49.8333 93.2458 51.0093 92.6479 52.3193 92.4329H103.08Z" fill="#E490A1"/>
<path d="M102.804 119.763H82.3359C82.3359 119.763 92.817 126.877 102.804 119.763Z" fill="#E490A1"/>
<path d="M92.5713 148.939C83.9463 148.939 76.5293 145.953 73.2223 141.669C72.8833 141.837 72.5483 142.013 72.2133 142.19C72.0593 142.272 71.9023 142.352 71.7483 142.436C71.4253 142.612 71.1053 142.793 70.7853 142.977C70.6223 143.071 70.4603 143.166 70.2973 143.262C69.9803 143.451 69.6623 143.641 69.3503 143.838C69.2283 143.916 69.1093 143.996 68.9883 144.074C68.3483 144.484 67.7193 144.912 67.1033 145.355C66.9963 145.431 66.8873 145.507 66.7803 145.585C66.4923 145.796 66.2103 146.013 65.9263 146.231C65.7633 146.358 65.6003 146.483 65.4383 146.612C65.1673 146.827 64.9003 147.044 64.6353 147.264C64.4703 147.401 64.3073 147.541 64.1453 147.682C63.8833 147.907 63.6213 148.131 63.3643 148.362C63.2473 148.468 63.1313 148.579 63.0143 148.688C62.5303 149.133 62.0563 149.59 61.5923 150.055C61.4243 150.225 61.2563 150.391 61.0923 150.563C60.8723 150.792 60.6573 151.022 60.4443 151.256C60.2713 151.441 60.1013 151.631 59.9313 151.82C59.7273 152.05 59.5243 152.281 59.3243 152.513C59.1453 152.724 58.9693 152.939 58.7943 153.154C58.5993 153.392 58.4033 153.629 58.2133 153.871C57.9073 154.258 57.6083 154.654 57.3153 155.053C57.1573 155.27 57.0043 155.491 56.8503 155.711C56.6733 155.961 56.4973 156.213 56.3263 156.469C56.1733 156.694 56.0233 156.922 55.8753 157.151C55.7053 157.417 55.5373 157.682 55.3733 157.95C55.2373 158.171 55.1013 158.389 54.9703 158.612C54.7623 158.964 54.5613 159.319 54.3623 159.677C54.2363 159.904 54.1133 160.132 53.9913 160.361C53.7793 160.759 53.5713 161.162 53.3723 161.566C53.2703 161.773 53.1743 161.982 53.0753 162.189C52.9223 162.513 52.7713 162.839 52.6263 163.169C52.5303 163.382 52.4373 163.599 52.3453 163.816C52.1963 164.169 52.0533 164.525 51.9123 164.882C51.8393 165.07 51.7623 165.255 51.6913 165.442C51.4913 165.975 51.2993 166.512 51.1193 167.053C51.0743 167.192 51.0343 167.33 50.9903 167.465C50.8533 167.893 50.7203 168.32 50.5973 168.754C50.5383 168.955 50.4843 169.158 50.4293 169.363C50.3253 169.746 50.2263 170.133 50.1323 170.519C50.0823 170.722 50.0333 170.925 49.9863 171.128C49.8833 171.585 49.7883 172.042 49.6993 172.505C49.6743 172.632 49.6463 172.759 49.6223 172.886C49.5163 173.472 49.4213 174.062 49.3373 174.656C49.3153 174.82 49.2963 174.986 49.2743 175.15C49.2163 175.591 49.1653 176.035 49.1213 176.48C49.1003 176.685 49.0823 176.892 49.0653 177.099C49.0293 177.529 49.0003 177.96 48.9753 178.394C48.9643 178.585 48.9533 178.775 48.9453 178.966C48.9203 179.581 48.9033 180.198 48.9033 180.821C48.9033 183.897 48.9033 185.479 48.9033 186.239H136.242C136.242 185.616 136.242 184.12 136.242 180.821C136.242 180.198 136.226 179.581 136.199 178.966C136.191 178.775 136.179 178.585 136.17 178.394C136.147 177.96 136.117 177.529 136.08 177.099C136.062 176.892 136.045 176.685 136.025 176.48C135.98 176.035 135.927 175.591 135.871 175.15C135.849 174.986 135.832 174.82 135.808 174.656C135.724 174.062 135.63 173.472 135.523 172.886C135.5 172.759 135.47 172.632 135.445 172.505C135.357 172.042 135.261 171.585 135.158 171.128C135.113 170.925 135.062 170.722 135.013 170.519C134.919 170.132 134.82 169.746 134.716 169.363C134.661 169.158 134.607 168.955 134.548 168.754C134.425 168.32 134.292 167.893 134.155 167.465C134.112 167.33 134.071 167.192 134.026 167.053C133.844 166.512 133.653 165.975 133.454 165.442C133.384 165.254 133.306 165.069 133.233 164.882C133.092 164.524 132.95 164.169 132.799 163.816C132.707 163.599 132.614 163.382 132.518 163.169C132.373 162.839 132.223 162.513 132.069 162.189C131.971 161.982 131.874 161.773 131.772 161.566C131.573 161.162 131.366 160.759 131.153 160.361C131.032 160.133 130.909 159.904 130.782 159.677C130.583 159.32 130.384 158.964 130.175 158.612C130.044 158.389 129.907 158.171 129.771 157.95C129.607 157.682 129.439 157.417 129.269 157.151C129.121 156.922 128.972 156.694 128.818 156.469C128.648 156.213 128.472 155.961 128.295 155.711C128.141 155.49 127.988 155.27 127.83 155.053C127.537 154.655 127.238 154.258 126.932 153.871C126.743 153.629 126.545 153.392 126.35 153.154C126.174 152.939 125.998 152.724 125.821 152.513C125.622 152.281 125.419 152.05 125.214 151.82C125.046 151.631 124.874 151.441 124.7 151.256C124.487 151.022 124.272 150.791 124.051 150.563C123.887 150.391 123.719 150.225 123.553 150.055C123.088 149.59 122.613 149.133 122.129 148.688C122.014 148.579 121.899 148.467 121.779 148.362C121.523 148.132 121.259 147.907 120.998 147.682C120.836 147.541 120.674 147.401 120.51 147.264C120.244 147.043 119.977 146.826 119.705 146.612C119.543 146.483 119.381 146.358 119.217 146.231C118.936 146.012 118.653 145.795 118.363 145.585C118.256 145.507 118.146 145.431 118.039 145.355C117.424 144.912 116.795 144.484 116.154 144.074C116.033 143.996 115.916 143.916 115.793 143.838C115.48 143.641 115.164 143.451 114.846 143.262C114.684 143.166 114.522 143.071 114.358 142.977C114.038 142.793 113.717 142.612 113.395 142.436C113.241 142.352 113.084 142.272 112.93 142.19C112.594 142.012 112.26 141.836 111.92 141.669C108.611 145.953 101.195 148.939 92.5713 148.939Z" fill="#5F666F"/>
</g>
</svg>
